<?xml version="1.0" encoding="utf-8"?>
<!-- Generator: Adobe Illustrator 23.0.1, SVG Export Plug-In . SVG Version: 6.00 Build 0)  -->
<svg version="1.1" id="Layer_1" xmlns="http://www.w3.org/2000/svg" xmlns:xlink="http://www.w3.org/1999/xlink" x="0px" y="0px"
	 viewBox="0 0 364.2 364.8" style="enable-background:new 0 0 364.2 364.8;" xml:space="preserve">
<style type="text/css">
	.st0{fill:#FFFFFF;}
</style>
<g>
	<path d="M193.4,364.8c-7.6,0-15.2,0-22.8,0c-1-0.2-2.1-0.5-3.1-0.6c-35-2.8-67.1-14.3-94.7-35.9C18.5,285.8-6.1,229.8,1.3,161.1
		c5.6-52,30.6-93.9,72.4-124.9C132.7-7.6,209.8-12,273,24.9c48.7,28.4,78.2,71.1,88.5,126.6c1.2,6.5,1.8,13.1,2.7,19.7
		c0,7.6,0,15.2,0,22.8c-0.2,0.9-0.5,1.8-0.6,2.8c-2.4,31.4-12.1,60.3-29.7,86.4c-29,42.9-69.1,69.4-120.2,78.9
		C207,363.2,200.2,363.9,193.4,364.8z M180.5,307.2C180.5,307.2,180.5,307.2,180.5,307.2c2.6,0,5.2,0,7.8,0c0.2,0,0.5,0,0.7,0
		c4.9-0.2,7.2-2.2,7.4-7.2c0.2-5.2,0.2-10.4,0.2-15.7c0-6.5,1.5-8.6,7.7-10.6c1-0.3,2.1-0.6,3.1-0.9c24-8,40.2-29.9,39.2-54
		c-1-22.3-12.2-38.5-31.8-48.8c-9-4.7-18.7-8.1-27.8-12.6c-6.2-3-12.6-6.2-18-10.5c-8.9-7.1-7.2-19.3,3.2-24.1
		c3.7-1.8,8.2-2.6,12.3-2.9c13.5-0.9,26.3,2.1,38.6,7.9c5.1,2.4,7.1,1.6,8.9-3.7c2.1-6.3,3.9-12.7,5.7-19c2.2-7.5,1.3-9.9-6.2-12.4
		c-8.5-2.8-17.3-4.9-26-7c-5.7-1.4-6.9-2.4-7.1-8.3c-0.1-4.3-0.1-8.6-0.4-12.8c-0.4-4.9-2.1-6.4-7.1-6.6c-5.3-0.2-10.7-0.2-16-0.1
		c-6.2,0.1-7.6,1.6-7.8,7.9c-0.1,4.6-0.2,9.3-0.1,13.9c0.1,4.5-1.8,7.3-6.1,8.8c-3.7,1.2-7.3,2.7-10.9,4.4
		c-25.5,11.9-37.6,40.7-27.7,65.8c5,12.5,14.3,21.2,25.9,27.3c10.8,5.6,22.3,9.9,33.3,15.2c5.3,2.5,10.7,5.4,15,9.2
		c9.7,8.6,7.5,22.4-4,28.4c-6.9,3.6-14.4,4.7-22.1,4c-13-1.3-25.3-4.8-37-10.8c-5.5-2.8-7.3-2-9.2,3.8c-1.7,5.1-3.2,10.2-4.6,15.3
		c-3.6,12.7-3.1,14.6,9.5,19c9.6,3.3,19.6,5.3,29.5,7.7c4.9,1.2,5.7,1.9,5.8,6.9c0.2,5.2,0,10.4,0.4,15.7c0.3,4.7,2.6,6.8,7.3,6.9
		C174.8,307.3,177.6,307.2,180.5,307.2z"/>
	<path class="st0" d="M180.5,307.2c-2.8,0-5.7,0.1-8.5,0c-4.7-0.2-7-2.2-7.3-6.9c-0.3-5.2-0.2-10.4-0.4-15.7c-0.2-5-0.9-5.7-5.8-6.9
		c-9.9-2.4-19.9-4.4-29.5-7.7c-12.5-4.4-13.1-6.3-9.5-19c1.4-5.1,2.9-10.3,4.6-15.3c1.9-5.8,3.7-6.6,9.2-3.8
		c11.7,5.9,24,9.5,37,10.8c7.7,0.8,15.2-0.4,22.1-4c11.5-6,13.7-19.8,4-28.4c-4.3-3.9-9.7-6.7-15-9.2c-11-5.3-22.5-9.5-33.3-15.2
		c-11.6-6-21-14.7-25.9-27.3c-9.9-25.1,2.2-53.8,27.7-65.8c3.5-1.7,7.2-3.2,10.9-4.4c4.4-1.4,6.2-4.3,6.1-8.8
		c-0.1-4.6,0-9.3,0.1-13.9c0.2-6.3,1.6-7.8,7.8-7.9c5.3-0.1,10.7-0.1,16,0.1c5,0.2,6.6,1.7,7.1,6.6c0.4,4.2,0.3,8.5,0.4,12.8
		c0.2,5.9,1.3,6.9,7.1,8.3c8.7,2.1,17.5,4.2,26,7c7.5,2.5,8.3,4.9,6.2,12.4c-1.8,6.4-3.6,12.8-5.7,19c-1.8,5.3-3.8,6.1-8.9,3.7
		c-12.2-5.8-25-8.8-38.6-7.9c-4.2,0.3-8.6,1.1-12.3,2.9c-10.3,4.9-12,17-3.2,24.1c5.4,4.3,11.8,7.4,18,10.5
		c9.1,4.5,18.8,7.9,27.8,12.6c19.6,10.2,30.8,26.4,31.8,48.8c1,24-15.2,45.9-39.2,54c-1,0.3-2,0.6-3.1,0.9
		c-6.2,1.9-7.7,4.1-7.7,10.6c0,5.2,0,10.4-0.2,15.7c-0.2,4.9-2.4,7-7.4,7.2c-0.2,0-0.5,0-0.7,0C185.7,307.2,183.1,307.2,180.5,307.2
		C180.5,307.2,180.5,307.2,180.5,307.2z"/>
</g>
</svg>
