<?xml version="1.0" encoding="utf-8"?>
<!-- Generator: Adobe Illustrator 23.0.1, SVG Export Plug-In . SVG Version: 6.00 Build 0)  -->
<svg version="1.1" id="Layer_1" xmlns="http://www.w3.org/2000/svg" xmlns:xlink="http://www.w3.org/1999/xlink" x="0px" y="0px"
	 viewBox="0 0 364.4 364.5" style="enable-background:new 0 0 364.4 364.5;" xml:space="preserve">
<style type="text/css">
	.st0{fill:#18222B;}
	.st1{fill:#FDFDFD;}
</style>
<g>
	<path class="st0" d="M195.7,364.5c-9.5,0-19,0-28.5,0c-0.8-0.3-1.6-0.7-2.5-0.8c-22-2.2-43-8-62.8-17.8
		C26.3,308.4-13.4,226.2,4.1,143.5C24.6,47.1,120.6-15.9,217.5,3.5c75.9,15.2,133.7,75.9,144.9,152.2c0.6,4.1,1.3,8.2,2,12.4
		c0,9.7,0,19.5,0,29.2c-0.5,3.1-1.1,6.1-1.5,9.2c-5,35.7-19,67.5-42.7,94.8c-29.6,34-66.7,54.6-111.4,61.4
		C204.4,363.2,200,363.9,195.7,364.5z M180.7,306.9C180.7,306.9,180.7,306.9,180.7,306.9c2.7,0,5.5,0,8.2,0c5.3-0.1,7.5-2.2,7.7-7.6
		c0.2-5.3,0.2-10.7,0.2-16c0-5.5,1.5-7.7,6.7-9.5c1.3-0.5,2.7-0.8,4.1-1.3c23.9-8,40.1-29.9,39.1-53.9c-0.9-22-11.9-38.2-31.1-48.4
		c-9.2-4.9-19-8.4-28.4-13c-6.3-3.1-12.8-6.3-18.3-10.7c-8.7-7-7-19.1,3.1-23.9c3.8-1.8,8.4-2.7,12.6-2.9
		c13.4-0.9,26.1,2.1,38.2,7.8c5.5,2.6,7.3,1.8,9.2-4c2-6.2,3.8-12.4,5.6-18.7c2.2-7.5,1.3-9.9-6.2-12.4c-8.5-2.8-17.2-5-26-7
		c-5.7-1.4-7-2.4-7.1-8.2c-0.1-4,0-8.1-0.3-12.1c-0.5-5.8-2.1-7.3-7.8-7.4c-5.2-0.1-10.4-0.2-15.7-0.1c-5.8,0.1-7.4,1.7-7.5,7.5
		c-0.1,5-0.2,10-0.2,14.9c0,4.1-1.7,6.6-5.7,8c-3.9,1.3-7.8,2.9-11.5,4.6c-24.6,11.6-36.6,38.6-28.3,63.5
		c4.6,13.8,14.5,23.1,26.8,29.5c10.7,5.7,22.2,9.9,33.2,15.1c5.4,2.6,10.7,5.6,15.3,9.5c5.4,4.5,7.1,10.8,4.9,17.7
		c-2,6.1-6.6,9.6-12.3,11.9c-10.6,4.2-21.3,3.2-31.8,0.3c-8.5-2.3-16.7-5.9-24.9-9c-4.4-1.7-6.3-1.6-7.5,2.1c-2.7,8.4-5,17-7.3,25.6
		c-0.8,2.8,0.4,5.2,2.9,6.7c2.8,1.6,5.5,3.4,8.5,4.3c9,2.6,18,5.1,27.1,7.1c7.4,1.6,8,1.9,8.2,9.3c0.1,4.7,0,9.5,0.3,14.2
		c0.3,4.3,2.6,6.3,7,6.5C174.8,307,177.8,306.9,180.7,306.9z"/>
	<path class="st1" d="M180.7,306.9c-3,0-5.9,0.1-8.9,0c-4.3-0.2-6.7-2.2-7-6.5c-0.3-4.7-0.2-9.5-0.3-14.2c-0.2-7.4-0.8-7.7-8.2-9.3
		c-9.1-2-18.1-4.5-27.1-7.1c-3-0.9-5.8-2.7-8.5-4.3c-2.5-1.5-3.7-3.9-2.9-6.7c2.3-8.6,4.6-17.1,7.3-25.6c1.2-3.7,3.1-3.8,7.5-2.1
		c8.3,3.2,16.4,6.7,24.9,9c10.5,2.9,21.2,3.9,31.8-0.3c5.8-2.3,10.4-5.8,12.3-11.9c2.2-6.9,0.5-13.3-4.9-17.7
		c-4.5-3.8-9.9-6.9-15.3-9.5c-11-5.3-22.5-9.5-33.2-15.1c-12.3-6.5-22.2-15.8-26.8-29.5c-8.3-24.9,3.7-51.9,28.3-63.5
		c3.7-1.8,7.6-3.3,11.5-4.6c3.9-1.4,5.7-3.9,5.7-8c0-5,0-10,0.2-14.9c0.2-5.8,1.7-7.3,7.5-7.5c5.2-0.1,10.4-0.1,15.7,0.1
		c5.8,0.2,7.3,1.6,7.8,7.4c0.3,4,0.2,8.1,0.3,12.1c0.1,5.8,1.4,6.9,7.1,8.2c8.7,2.1,17.5,4.2,26,7c7.5,2.5,8.3,4.9,6.2,12.4
		c-1.8,6.2-3.5,12.5-5.6,18.7c-1.9,5.8-3.8,6.6-9.2,4c-12.1-5.7-24.8-8.7-38.2-7.8c-4.3,0.3-8.8,1.1-12.6,2.9
		c-10.1,4.9-11.8,16.9-3.1,23.9c5.4,4.4,12,7.6,18.3,10.7c9.3,4.6,19.2,8.1,28.4,13c19.2,10.2,30.2,26.4,31.1,48.4
		c1,24-15.2,45.9-39.1,53.9c-1.3,0.5-2.7,0.8-4.1,1.3c-5.2,1.8-6.7,3.9-6.7,9.5c0,5.3,0,10.7-0.2,16c-0.2,5.4-2.4,7.4-7.7,7.6
		C186.2,307,183.5,306.9,180.7,306.9C180.7,306.9,180.7,306.9,180.7,306.9z"/>
</g>
</svg>
