<?xml version="1.0" encoding="utf-8"?>
<!-- Generator: Adobe Illustrator 23.0.1, SVG Export Plug-In . SVG Version: 6.00 Build 0)  -->
<svg version="1.1" id="Layer_1" xmlns="http://www.w3.org/2000/svg" xmlns:xlink="http://www.w3.org/1999/xlink" x="0px" y="0px"
	 viewBox="0 0 363.9 363.9" style="enable-background:new 0 0 363.9 363.9;" xml:space="preserve">
<style type="text/css">
	.st0{fill:#18222B;}
</style>
<g>
	<path class="st0" d="M363.9,109.9c-6.4,6.1-12.7,12.1-19,18.2c-0.7,0.6-0.9,2.2-0.7,3.2c1.2,7.3,2.6,14.6,3.7,22
		c0.2,1.6,0.1,4-0.9,4.7c-0.9,0.7-3.3,0.1-4.7-0.6c-6.5-3.2-13-6.6-19.4-10.1c-1.7-0.9-3-1-4.8,0c-6.5,3.6-13.1,7-19.7,10.3
		c-1.3,0.6-3.5,1.2-4.4,0.5c-0.9-0.7-1.2-2.9-0.9-4.4c1.1-7.2,2.2-14.5,3.7-21.6c0.5-2.4-0.2-3.7-1.8-5.2
		c-5.3-5-10.6-10.2-15.7-15.4c-1-1-2-2.8-1.7-3.8c0.3-1,2.2-2,3.5-2.2c7.3-1.2,14.7-2.4,22.1-3.2c2.4-0.3,3.5-1.2,4.4-3.3
		c3.1-6.5,6.3-12.9,9.6-19.3c0.7-1.4,2.3-2.4,3.5-3.5c1.2,1.2,2.7,2.2,3.5,3.6c3.3,6.3,6.4,12.6,9.4,19c1,2.1,2.2,3.2,4.7,3.4
		c7,0.8,14,1.9,21,3c1.7,0.3,3.2,1.2,4.8,1.8C363.9,108.1,363.9,109,363.9,109.9z"/>
	<path class="st0" d="M261.7,126.3c3,3.4,6,6.6,8.8,10c0.7,0.9,0.9,2.5,0.8,3.8c-0.5,6.9-1.7,13.8-1.6,20.7
		c0.1,3.6,2.3,7.2,3.4,10.3c-8.3,8.5-17.1,16.6-24.8,25.6c-20.2,23.4-34.2,50.5-45.3,79.1c-9.3,23.8-16,48.3-21.3,73.2
		c-0.1,0.5-0.1,0.9-0.3,1.4c-0.6,2.3-1.8,4-4.4,3.6c-2.4-0.4-3.2-2.2-3.1-4.4c0.1-6.5,0-13,0.2-19.5c0.9-24.2,3.9-48.2,9.7-71.8
		c7.7-31.7,19.9-61.4,38.3-88.3C233,153.8,245.9,139.6,261.7,126.3z"/>
	<path class="st0" d="M90.1,12.2C88.9,24.1,88,35,86.8,45.9c-0.2,2.1,0.3,3.5,1.9,4.8c8,6.6,16,13.2,23.9,20
		c1.4,1.2,2.1,3.1,3.1,4.7c-1.6,0.9-3,2.1-4.7,2.5c-10.2,2.4-20.5,4.6-30.6,7.1c-1.4,0.3-3,1.7-3.6,3c-4.2,9.9-8,19.9-12.2,29.7
		c-0.6,1.3-1.9,3.1-3,3.3c-1.1,0.1-2.8-1.4-3.5-2.7c-5.5-9.1-10.9-18.2-16.2-27.4c-1.2-2.1-2.7-2.9-5-3c-10.5-0.6-21-1.3-31.5-2.2
		c-1.5-0.1-3.9-0.9-4.1-1.8c-0.3-1.3,0.6-3.3,1.6-4.5c6.8-8,13.8-15.9,20.8-23.7c1.5-1.7,1.9-3.1,1.3-5.3
		c-2.7-10.1-5.2-20.3-7.6-30.5c-0.4-1.5-0.4-3.9,0.5-4.8c0.8-0.8,3.3-0.4,4.7,0.2c9.9,4.1,19.7,8.5,29.6,12.6
		c1.2,0.5,3.2,0.3,4.4-0.4c9.4-5.7,18.6-11.6,28-17.3c1.1-0.7,2.9-0.9,4.1-0.6C89.5,10.1,89.9,11.9,90.1,12.2z"/>
	<path class="st0" d="M120,100.3c4,13.2,8.3,26,11.8,39c7.2,26.5,12.2,53.5,15.8,80.8c5.2,39.9,7.1,80,7,120.2
		c0,0.8,0.3,1.8-0.1,2.5c-0.6,1.2-1.6,2.2-2.4,3.3c-0.8-1-2.2-1.9-2.4-3c-1.8-10.1-3.2-20.3-5-30.4c-7.9-45.2-17.6-90-34-133
		c-6.3-16.6-13.7-32.6-23.6-47.3c-1.3-1.9-1.5-3.4-0.6-5.5c2.7-6.2,5-12.5,7.7-18.6c0.5-1.2,2-2.6,3.3-2.9
		C104.7,103.7,112.1,102.1,120,100.3z"/>
	<path class="st0" d="M272.5,273.1c3,5.4,5.7,10.4,8.5,15.3c1.5,2.6-0.2,6.9-3.2,7.4c-25.4,4.4-45.2,18.2-61.8,37.1
		c-3.6,4.1-6.8,8.5-10.1,12.8c-1.9,2.5-4.2,4-7.3,2.4c-3-1.6-3.1-4.3-2.2-7.3c7.9-25.7,24.2-44.1,47.8-56.5
		C253.6,279.3,263.3,275.6,272.5,273.1z"/>
	<path class="st0" d="M175,68.2c5.8,2,10.6,3.5,15.3,5.3c1.3,0.5,2.5,1.7,3.4,2.8c3.9,5.2,2.7,10.1,0.1,15.8
		c-9.3,20.7-14.3,42.6-17.9,64.9c-1.4,8.7-2.3,17.6-3.6,26.3c-0.2,1.2-1.7,2.3-2.6,3.4c-0.9-1.2-2.3-2.3-2.5-3.6
		c-3.3-27.6-4.2-55.2,0.3-82.6C169.4,89.5,172.6,78.6,175,68.2z"/>
	<path class="st0" d="M20.8,210c5.6,0.8,10.4,1.3,15.2,2.3c2.4,0.5,3.7-0.3,5.1-1.9c2.8-3.2,5.7-6.4,8.7-9.3
		c1.1-1.1,3.2-2.5,4.3-2.1c1.2,0.4,2,2.6,2.4,4.2c1,4.4,1.4,8.9,2.4,13.2c0.3,1.3,1.5,2.8,2.7,3.5c4.3,2.3,8.7,4.1,13,6.3
		c1,0.5,2.4,1.8,2.4,2.7c-0.1,1.1-1.2,2.5-2.3,3.2c-4.2,2.4-8.6,4.4-12.8,6.8c-1.2,0.7-2.3,2.3-2.6,3.6c-0.8,4.6-1.1,9.4-1.9,14
		c-0.2,1.3-1.1,3.3-2.1,3.6c-1,0.4-2.8-0.7-3.8-1.6c-3-2.7-6-5.4-8.6-8.4c-2.3-2.7-4.7-3.3-8-2.4c-4,1.1-8.1,1.8-12.1,2.4
		c-1.1,0.2-3-0.1-3.4-0.8c-0.6-0.9-0.6-2.7-0.1-3.8c2-4.5,4.4-8.8,6.4-13.4c0.5-1.1,0.5-2.9-0.1-4.1c-2.2-4.4-4.8-8.7-7.1-13.1
		C16.8,211.8,18.2,209.8,20.8,210z"/>
	<path class="st0" d="M243.3,17.6c-1.2,5.1-2.6,10.2-3.6,15.4c-0.3,1.3,0.2,3.2,1.1,4.3c3,3.7,6.3,7,9.3,10.6c0.8,1,1.7,2.8,1.3,3.6
		c-0.5,1.1-2.3,2-3.6,2.2c-4.7,0.5-9.4,0.6-14.1,1.2c-1.4,0.2-3,1.2-3.8,2.3c-2.6,3.9-4.7,8.1-7.3,12.1c-0.7,1.1-2.2,2.6-3.3,2.5
		c-1.1-0.1-2.4-1.6-3-2.9c-2-4.4-3.7-8.9-5.7-13.3c-0.5-1-1.8-2.1-2.9-2.4c-4.8-1.3-9.7-2.1-14.4-3.4c-1.2-0.3-2.8-1.3-3-2.3
		c-0.2-1,0.7-2.6,1.7-3.5c3.5-3.2,7.1-6.2,10.8-9.2c1.5-1.2,2.2-2.4,1.8-4.5c-0.7-4.7-1.1-9.4-1.4-14.1c-0.1-1.3,0.4-3.3,1.2-3.7
		c1.1-0.5,3-0.2,4.2,0.5c4.1,2.3,8,5,12.1,7.3c1.2,0.7,3.1,0.8,4.4,0.3c4.6-1.7,9.1-3.9,13.6-5.8C241.4,13.7,243.3,14.8,243.3,17.6z
		"/>
	<path class="st0" d="M309.6,266.8c6.6,2.6,10.9-1.1,14.2-7.2c1.2-2.2,2.8-4.1,4.4-6c0.9-1,2.5-2.3,3.3-2c1.1,0.4,2.3,1.9,2.7,3.2
		c1.5,4.3,2.9,8.7,4,13.2c0.6,2.3,1.8,3.2,3.9,3.8c4.4,1.3,8.8,2.7,13.1,4.3c1.2,0.4,2.7,1.6,2.8,2.6c0.2,1-0.9,2.6-1.9,3.3
		c-3.9,2.9-8,5.4-11.8,8.4c-1.1,0.8-2,2.5-2.1,3.9c-0.3,4.5,0,9-0.2,13.5c-0.1,1.6-0.7,3.6-1.8,4.4c-0.7,0.5-3-0.5-4.2-1.3
		c-3.7-2.6-7.1-5.5-10.8-8c-1.2-0.8-3.3-1.1-4.7-0.7c-4.4,1.2-8.7,2.9-13.1,4.1c-1.3,0.4-3.4,0.4-4.2-0.4c-0.8-0.7-0.7-2.8-0.3-4.1
		c1.4-4.5,3.2-8.9,4.5-13.4c0.4-1.3,0.1-3.2-0.6-4.4c-2.3-3.6-5.1-6.8-7.4-10.4c-1-1.5-1.3-3.5-1.8-5.3c1.8-0.5,3.6-1.2,5.5-1.4
		C305,266.6,306.9,266.8,309.6,266.8z"/>
	<path class="st0" d="M96.2,245c9.4,13.1,16.5,27.6,22.2,42.9c7,18.7,11.7,38.1,15.2,57.7c0.4,2.2,0.4,4.1-2,5
		c-2.6,1-3.8-0.7-4.8-2.9c-5.7-12.4-11.1-25-17.3-37.2c-7.5-14.8-16.4-28.7-27.2-41.3c-2-2.3-2.2-4.5-2-7.6c0.4-5.2,2.8-7.8,7.2-10
		C90.7,250.1,93.3,247.3,96.2,245z"/>
</g>
</svg>
