<?xml version="1.0" encoding="utf-8"?>
<!-- Generator: Adobe Illustrator 23.0.1, SVG Export Plug-In . SVG Version: 6.00 Build 0)  -->
<svg version="1.1" id="Layer_1" xmlns="http://www.w3.org/2000/svg" xmlns:xlink="http://www.w3.org/1999/xlink" x="0px" y="0px"
	 viewBox="0 0 300.6 313" style="enable-background:new 0 0 300.6 313;" xml:space="preserve">
<style type="text/css">
	.st0{fill:#FFFFFF;}
</style>
<g>
	<path class="st0" d="M77.6,205.7l29.4-12.2l-15.1-36.4l-29.1,12C66.7,182.6,72.2,195.2,77.6,205.7z"/>
	<path class="st0" d="M204.1,205.6l-62.8-74.8c-3.9-4.6-2.4-11.6,3-14.4h0.1c16.5-8.2,38-6.4,51.9,12.4l7.7,10.5l17-12.1
		c11.9-8.4,14.8-24.8,6.6-36.8L165.6,0c0,0-37.4,23.7-73.7,66.7C87,72.4,75,85.7,70.3,92.1c-7.9,10.8-11.7,23-12.7,35.6l19-7.9
		l15.3,36.9l37.1-15.4l15.5,37.3L107.4,194l14.3,34.5c0.6,1.5,1.4,3,2.2,4.4l1,1.6c2.3,3.9,4.9,7.5,7.8,11c0,0.1,0.1,0.1,0.1,0.2
		c5.5,7,15.3,22.7,24.2,22.1l6.8-12.4c-10.3-7.3-19.3,1.6-23.6,1.6H57.5v56h185.7C243.2,273.7,229.4,235.7,204.1,205.6z"/>
</g>
</svg>
