<?xml version="1.0" encoding="utf-8"?>
<!-- Generator: Adobe Illustrator 23.0.1, SVG Export Plug-In . SVG Version: 6.00 Build 0)  -->
<svg version="1.1" id="Layer_1" xmlns="http://www.w3.org/2000/svg" xmlns:xlink="http://www.w3.org/1999/xlink" x="0px" y="0px"
	 viewBox="0 0 300.6 313" style="enable-background:new 0 0 300.6 313;" xml:space="preserve">
<style type="text/css">
	.st0{fill:#2E4756;}
	.st1{fill:#F2E9DC;}
</style>
<rect x="35.3" y="41.5" transform="matrix(0.9239 -0.3827 0.3827 0.9239 -48.4473 69.4329)" class="st0" width="230" height="230"/>
<path class="st1" d="M204.1,205.6l-62.8-74.8c-3.9-4.6-2.4-11.6,3-14.4h0.1c16.5-8.2,38-6.4,51.9,12.4l7.7,10.5l17-12.1
	c11.9-8.4,14.8-24.8,6.6-36.8L165.6,0c0,0-37.4,23.7-73.7,66.7C87,72.4,75,85.7,70.3,92.1c-25.3,34.4-8.4,82.8,7.4,113.8
	c9.6,18.8,26.4,32.8,46.6,38.8l16.9,5c4.1,1.2,3.2,7.3-1.1,7.3H57.5v56h185.7l0,0C243.2,273.7,229.4,235.7,204.1,205.6z"/>
<g>
	
		<rect x="76" y="199.7" transform="matrix(0.9239 -0.3827 0.3827 0.9239 -76.8239 53.5628)" class="st0" width="40.4" height="40.4"/>
	
		<rect x="97.9" y="147.5" transform="matrix(0.9239 -0.3827 0.3827 0.9239 -55.1709 57.9609)" class="st0" width="40.4" height="40.4"/>
	
		<rect x="45.5" y="126" transform="matrix(0.9239 -0.3827 0.3827 0.9239 -50.952 36.2534)" class="st0" width="40.4" height="40.4"/>
</g>
</svg>
