<?xml version="1.0" encoding="utf-8"?>
<!-- Generator: Adobe Illustrator 23.0.1, SVG Export Plug-In . SVG Version: 6.00 Build 0)  -->
<svg version="1.1" id="Layer_1" xmlns="http://www.w3.org/2000/svg" xmlns:xlink="http://www.w3.org/1999/xlink" x="0px" y="0px"
	 viewBox="0 0 329 329" style="enable-background:new 0 0 329 329;" xml:space="preserve">
<style type="text/css">
	.st0{fill:#18222B;}
</style>
<g>
	<path class="st0" d="M56,225.2c12.1,15.2,28.2,23.9,46.4,29.6c-5.8,7.3-11.4,14.3-17.1,21.3c-0.6,0.7-1.9,1.1-2.9,1.1
		c-22.7-0.4-43.7-6.4-62.2-19.6c-15.4-11-21.6-26.7-19.7-45.5c3-31.3,10-61.8,21.5-91.1c14.6-37.3,42-59.8,81.2-67.9
		c4.5-0.9,9.2-1.1,13.8-1.2c1.8,0,3.5,1.2,5.2,2.4c-20.8,5.7-40.6,13-58.6,24.4c-4,2.5-7.7,5.4-11.4,8.5c73-32.1,145.8-32.1,219,0.7
		c-2.4-4.1-16.1-12.8-30.8-19.1c-10.9-4.7-22.2-8.7-33.3-13c1.5-2.8,4-4,7.7-3.6c44.3,4.4,75.3,27.1,92.2,68.2
		c11.7,28.5,18.6,58.4,21.7,89.1c2,20-5.6,36.1-22.3,47.2c-18.5,12.3-39.2,18.4-61.4,18.8c-1.7,0-3.9-1-4.9-2.2
		c-5.5-6.3-10.6-12.8-16.2-19.7c18.9-5.9,35.6-14.3,47.9-29.7c-0.8,0.4-1.6,0.7-2.3,1.2c-23.9,14.4-49.4,24.4-77.2,27.7
		c-24.4,2.9-48.4,0.6-72.1-5.3c-21-5.2-41.4-11.9-60.9-21.4C58.1,225.7,57,225.5,56,225.2z M83.4,180.3c0,16.2,13.2,30,28.7,30.1
		c15.4,0,29-14.2,28.9-30c-0.2-16.2-13.7-30.1-29-29.9C96.5,150.6,83.4,164.3,83.4,180.3z M244,180.4c-0.1-16.2-13.3-30.1-28.8-30
		c-15.4,0.1-28.7,13.8-28.8,29.7c0,16.3,13.5,30.4,29.1,30.2C231,210.1,244.1,196.4,244,180.4z"/>
</g>
</svg>
