<?xml version="1.0" encoding="utf-8"?>
<!-- Generator: Adobe Illustrator 23.0.1, SVG Export Plug-In . SVG Version: 6.00 Build 0)  -->
<svg version="1.1" id="Layer_1" xmlns="http://www.w3.org/2000/svg" xmlns:xlink="http://www.w3.org/1999/xlink" x="0px" y="0px"
	 viewBox="0 0 64.4 124.1" style="enable-background:new 0 0 64.4 124.1;" xml:space="preserve">
<style type="text/css">
	.st0{fill:#18222B;}
</style>
<g>
	<path class="st0" d="M19.1,124.1c0-0.4-0.1-0.9-0.1-1.3c0-17.9,0-35.9,0-53.8c0-0.4,0-0.9,0-1.4c-6.4,0-12.6,0-19,0
		c0-7.4,0-14.7,0-22.1c6.3,0,12.6,0,19,0c0-0.5,0-1,0-1.4c0-5.8-0.1-11.6,0.1-17.4c0.3-7,2.3-13.4,7.3-18.6
		c3.7-3.9,8.4-6.2,13.7-7.3c4.2-0.9,8.5-0.8,12.8-0.6c3.5,0.1,7.1,0.4,10.6,0.7c0.3,0,0.5,0.1,0.9,0.1c0,6.5,0,13,0,19.7
		c-0.4,0-0.8,0-1.3,0c-4.3,0.1-8.6,0-13,0.2c-5.1,0.3-8,3.1-8.2,8.2c-0.2,5.4-0.1,10.7-0.1,16.1c0,0.1,0.1,0.1,0.2,0.3
		c7.1,0,14.3,0,21.6,0c-1,7.4-1.9,14.7-2.8,22.1c-6.3,0-12.6,0-18.9,0c0,0.4-0.1,0.7-0.1,1c0,18.3,0,36.5,0,54.8
		c0,0.3,0,0.6,0.1,0.8C34.3,124.1,26.7,124.1,19.1,124.1z"/>
</g>
</svg>
