<?xml version="1.0" encoding="utf-8"?>
<!-- Generator: Adobe Illustrator 23.0.1, SVG Export Plug-In . SVG Version: 6.00 Build 0)  -->
<svg version="1.1" id="Layer_1" xmlns="http://www.w3.org/2000/svg" xmlns:xlink="http://www.w3.org/1999/xlink" x="0px" y="0px"
	 viewBox="0 0 409 409" style="enable-background:new 0 0 409 409;" xml:space="preserve">
<style type="text/css">
	.st0{fill:#18222B;}
</style>
<g>
	<path class="st0" d="M123.7,298.9c-38.5-3.4-64-22.8-78.3-58.6c12.9,1.7,24.9,1.9,37.3-1.6c-43.3-10.4-67.1-48-66.2-82.7
		c5.9,2.2,11.7,4.9,17.7,6.6c6,1.7,12.2,2.3,18.4,3.1C16,134.5,7.6,97.5,28,53.2c45.8,53.9,103.1,83.4,172.8,88.2
		c-0.3-8.2-1.3-16.1-0.8-23.9c1.7-28.2,14.5-50.5,38.2-65.7c34-21.7,75.1-17.2,104.2,10.7c1.7,1.6,3.1,2.2,5.6,1.6
		c16.2-3.6,31.6-9.3,46.1-17.4c1-0.5,2-1,3.9-1.8c-6.7,19.7-18.5,34.3-36.1,45.6c16.6-1.6,31.3-6.4,45.9-11.9
		c0.3,0.4,0.6,0.9,0.9,1.3c-6.5,7.6-12.8,15.6-19.8,22.8c-5.8,6-12.7,11-18.8,16.6c-1.3,1.1-2.4,3.2-2.3,4.9
		c1.3,52.2-13.2,99.9-41.9,143.2c-25.7,38.9-60.1,67.6-103.3,85.6c-23.1,9.6-47.3,15-72.3,17.1c-30,2.4-59.6-0.3-88.6-8.7
		c-21.4-6.2-41.5-15.3-61.2-27.9C46.3,337.6,87,326.6,123.7,298.9z"/>
</g>
</svg>
