<?xml version="1.0" encoding="utf-8"?>
<!-- Generator: Adobe Illustrator 23.0.1, SVG Export Plug-In . SVG Version: 6.00 Build 0)  -->
<svg version="1.1" id="Layer_1" xmlns="http://www.w3.org/2000/svg" xmlns:xlink="http://www.w3.org/1999/xlink" x="0px" y="0px"
	 viewBox="0 0 512 512" style="enable-background:new 0 0 512 512;" xml:space="preserve">
<style type="text/css">
	.st0{fill:#EFD8B5;}
	.st1{fill:#EDD7B3;}
	.st2{fill:#D9C2AF;}
	.st3{fill:#B38662;}
	.st4{fill:#B48763;}
	.st5{fill:#030202;}
	.st6{fill:#171514;}
	.st7{fill:#0B0A09;}
	.st8{fill:#CECECE;}
	.st9{fill:#201E1C;}
	.st10{fill:#050403;}
	.st11{fill:#DBDBDB;}
	.st12{fill:#EFD8B4;}
	.st13{fill:#EAEAEA;}
</style>
<g>
	<path class="st0" d="M384,0c21.3,0,42.7,0,64,0c0,0.3,0,0.7,0,1c0,21,0,42,0,63c-21.3,0-42.7,0-64,0c0-21,0-42,0-63
		C384,0.7,384,0.3,384,0z"/>
	<path class="st0" d="M0,320c0-21.3,0-42.7,0-64c0.3,0,0.7,0,1,0c21,0,42,0,63,0c0,21.3,0,42.7,0,64c-21,0-42,0-63,0
		C0.7,320,0.3,320,0,320z"/>
	<path class="st0" d="M0,192c0-21.3,0-42.7,0-64c0.3,0,0.7,0,1,0c21,0,42,0,63,0c0,21.3,0,42.7,0,64c-21,0-42,0-63,0
		C0.7,192,0.3,192,0,192z"/>
	<path class="st0" d="M512,192c0,21.3,0,42.7,0,64c-0.3,0-0.7,0-1,0c-21,0-42,0-63,0c0-21.3,0-42.7,0-64c21,0,42,0,63,0
		C511.3,192,511.7,192,512,192z M505.3,204.1c0.9,1.1,1.3,1.6,1.8,2.3c0.7-1.3,1.3-2.2,1.8-3c-2-1.8,0-4.4-1.7-6.9
		c-2.4,1.9-3.5,4.7-5.9,7.2C503.2,203.9,504.4,204,505.3,204.1z"/>
	<path class="st0" d="M512,320c0,21.3,0,42.7,0,64c-0.3,0-0.7,0-1,0c-21,0-42,0-63,0c0-21.3,0-42.7,0-64c21,0,42,0,63,0
		C511.3,320,511.7,320,512,320z M508.8,328.9c-1.4-0.5-2.6-0.9-3.8-1.4c0-0.2,0-0.3,0.1-0.5c1.2,0,2.5,0,3.7,0
		c0.1-0.2,0.1-0.4,0.2-0.7c-1-0.6-2-1.1-2.6-1.5c-1.3,1.2-2.3,2.1-3.4,3.2c0,1.2,0,2.8,0,4.5c0.5,0.5,0.9,0.9,1.4,1.4
		c1.1,0,2.2,0,3.2,0C509.4,332.7,509.1,331,508.8,328.9z"/>
	<path class="st1" d="M0,448c0-21.3,0-42.7,0-64c0.3,0,0.7,0,1,0c21,0,42,0,63,0c0,21.3,0,42.7,0,64c-21,0-42,0-63,0
		C0.7,448,0.3,448,0,448z M48.8,440.9c1.3-8.9-2.6-15.2-8.7-20.2c0.7-1.2,1.2-2.2,1.8-3.4c0.2-7.6,0.2-7.6-4-12c0.4-1,0.8-2,1.2-2.9
		c-0.9-1.8-1.7-3.5-2.4-4.9c-3.2-2.2-6.4-2-9.5-0.2c-0.5,2.7-4.3,4.8-1,8c-2.2,2.2-4.4,4.1-4.3,7.4c0,2.8,0,5.6,2,8
		c-6.5,5.3-10.1,11.7-8.7,20.2C26.5,440.9,37.6,440.9,48.8,440.9z"/>
	<path class="st1" d="M512,64c0,21.3,0,42.7,0,64c-0.3,0-0.7,0-1,0c-21,0-42,0-63,0c0-21.3,0-42.7,0-64c21,0,42,0,63,0
		C511.3,64,511.7,64,512,64z M462.1,120.4c0.5,0.6,0.9,1.1,1.3,1.5c11.1,0,22.1,0,33.1,0c0.5-0.5,1-1,1.6-1.6
		c-0.4-2.5-0.3-5.4-1.3-7.8c-0.9-2.2-1.3-4.8-3.3-6.6c-1.9-1.7-2.9-4.4-5.6-5.3c0.8-0.8,1.4-1.4,1.7-1.7c0.5-2,0.9-3.7,1.3-5.4
		c-1.5-1-0.8-2.6-0.9-4c-1.2-1.4-2.4-2.7-3.7-4.2c1.7-4.3,0.8-6.5-4.1-9.3c-3.9-0.2-7.6-0.3-9.1,5.4c0.2,2.3,0,5.5-2.8,7.9
		c-0.4,0.3-0.1,1.2-0.3,1.8c-0.3,1-0.6,2.1-0.8,2.5c0.4,2.1,0.8,3.6,1.1,5.1c-0.2,0.2-0.5,0.5-0.7,0.7c0.7,0.5,1.5,1,2.2,1.4
		C465.5,105,461.9,112.6,462.1,120.4z M508.9,76.3c-1-0.2-1.9-0.4-3.1-0.7c1.3-1.2,2.3-2.2,3.2-3c0-0.8,0-1.4,0-2.1
		c-0.7-0.4-1.4-0.8-2.1-1c-0.7-0.3-1.5-0.4-2.3-0.5c0.2,0.2,0.3,0.4,0.5,0.7c-0.7,0.3-1.5,0.6-2.9,1.1c1.9,0.3,2.8,0.4,3.7,0.6
		c0,0.8,0,1.5,0,2.2c-0.8,1.4-2.9,2.1-3,4.4c2,0,3.9,0,6,0C508.9,77.3,508.9,76.8,508.9,76.3z"/>
	<path class="st1" d="M384,512c-21.3,0-42.7,0-64,0c0-0.3,0-0.7,0-1c0-21,0-42,0-63c21.3,0,42.7,0,64,0c0,21,0,42,0,63
		C384,511.3,384,511.7,384,512z M328,501c-2.3-0.4-2.8,1.7-4.3,2.8c0.5,1.6,0.9,2.9,1.3,4.3c1.7-0.1,2.9-0.2,4.1-0.3
		c0-0.7,0-1-0.1-1.5c-1-0.2-2-0.4-3.7-0.8c1.3-1.1,2-1.8,2.8-2.5c0.4,0.3,0.8,0.9,1.3,1c1.8,0.1,3.7,0.2,5.5,0
		c1.7-0.2,3.4-0.9,5.1-0.9c7.7-0.1,15.3,0,23,0c0.8,0,1.9-0.3,2.5,0.1c3.4,2.1,7,0.3,10.3,1c0.7-1,1.2-1.6,1.7-2.4
		c-1.9-1.3-3.5-2.5-4.9-3.5c-4.3-0.5-8.3-1-12.2-1.5c1.3-1.1,2.7-2.2,3.8-3.1c0-1.2,0-1.9,0-2.5c0-0.3,0-0.7,0-1
		c0.1-1.8-1.2-3.1-1.9-4.6c0.7-1,1.7-2,2.1-3.1c0.8-2.4,2.2-4.4,1.3-7.5c-1.6-5.4-5-8.7-9.7-11.5c0.4-1.3,0.9-2.6,1.3-4.1
		c-0.8-1.3-1.5-2.7-2.3-4c-1.9,0-3.7,0-5.7,0c-0.8,1.3-1.5,2.7-2.2,3.9c0.5,1.7,0.8,3.2,1.2,4.6c-3.9,1.2-6,4.1-8,6.8
		c-2.3,3.1-2.6,7.4-1.1,10.6c0.7,1.6,1.9,3.1,2.6,4.1c-0.6,2-1.1,3.4-1.6,4.9c0,0.3,0,0.7,0,1c0,0.8,0,1.7,0,2.7
		c1.2,0.9,2.5,1.9,3.9,3c-4.2,0.5-8.3,1-12.8,1.5C330.3,499,329.1,500,328,501z"/>
	<path class="st1" d="M128,0c21.3,0,42.7,0,64,0c0,0.3,0,0.7,0,1c0,21,0,42,0,63c-21.3,0-42.7,0-64,0c0-21,0-42,0-63
		C128,0.7,128,0.3,128,0z M149.5,38.1c-0.2,0.5-0.7,1.4-1.3,2.5c0,1.6,0,3.3,0,5.2c1.3,0.9,2.5,1.8,4,2.9c-3.1,0.8-6.2-0.2-9.3,0.8
		c-3,1-6.2,1.2-8.2,5c0.7,0.3,1.5,0.6,2.2,0.9c6.5-0.2,13.6,1.6,20.6-0.3c2.5-0.7,5.4,0.4,8.1,0.7c6.1,0.6,12.2,0.2,18.2,0.2
		c0.6-0.9,1.1-1.6,1.6-2.3c-1.7-1.3-3.1-3-4.8-3.5c-4-1.2-8.2-1.5-12.9-1.1c1.9-1.4,3.2-2.5,4.4-3.4c0-1.9,0-3.5,0-4.9
		c-0.7-1.3-1.3-2.4-1.9-3.4c0.2-0.2,0.6-0.4,0.7-0.7c0.2-0.4,0.1-1,0.4-1.3c3.3-4.9,3.6-5.8,1.7-10.4c-1-2.4-1.9-5.1-4.2-6.7
		c-1.5-1-3.2-1.9-4.9-2.9c0.4-1.4,0.9-2.7,1.4-4.2c-0.7-1.3-1.5-2.6-2.3-4c-1.9,0-3.7,0-5.8,0c-0.7,1.4-1.5,2.9-2.1,4.1
		c0.5,1.7,0.9,3,1.3,4.3c-5,2.3-8.2,5.4-9.4,10.8c-0.4,1.9-1.5,3.5,0.1,5.2C146.3,34.2,149.5,35,149.5,38.1z"/>
	<path class="st1" d="M256,512c-21.3,0-42.7,0-64,0c0-0.3,0-0.7,0-1c0-21,0-42,0-63c21.3,0,42.7,0,64,0c0,21,0,42,0,63
		C256,511.3,256,511.7,256,512z M245,473c-0.3-0.3-0.7-0.7-1-1c-0.7-0.7-1.3-1.3-2-2c-2,0.2-3.7-1.9-5.9-0.7
		c-1.7,0.9-3.7,1.3-6.1,2.1c0.3-4.2-2.1-6.1-4.9-7.7c0-0.9,0-1.7,0-2.6c1-0.2,1.9-0.3,2.7-0.4c0-1,0-1.8,0-2.6c-1-0.2-2-0.4-3-0.5
		c0-1,0-1.7,0-2.6c-0.6,0-1.1,0-1.6,0c-0.1,1-0.3,1.9-0.4,2.8c-1,0.1-1.8,0.2-2.6,0.3c0,1,0,1.9,0,2.8c1,0.1,1.8,0.1,2.7,0.2
		c0,1,0,1.7,0,2.6c-1.3,0.9-2.6,1.7-3.6,2.4c-0.5,2.2-0.9,4.1-1.3,5.9c-0.3,0-0.7,0-1,0c-3.4-2.1-6.8-3-10.8-2.9
		c-1,0.9-2.1,1.9-3.2,2.9c-0.3,0.3-0.7,0.7-1,1c-1.5,0.1-0.8,1.2-1,2c-1.5,0.1-0.8,1.2-1,2c0,0.3,0,0.7,0,1c-1.4,1.3-1.4,2.7,0,4
		c0.2,0.8-0.5,1.9,1,2c0.3,0.3,0.7,0.7,1,1c0.2,0.8-0.5,1.9,1,2c0.4,1.6,1.4,2.2,3,2c1.9,0.5,0.6,2,1,3c0,1,0,2,0,3c0,0.7,0,1.3,0,2
		c0,1,0,2,0,3c0,0.6,0,1.2,0,2c0.8,0,1.4,0,2,0c0.1,0.3,0.2,0.8,0.4,0.8c2.9,1,5.8,2.8,9.1,2.1c2.1-0.4,3.9,1.7,5.5,0.9
		c2.2-1.1,4.5-0.4,6.6-1c2.2-0.6,4.9-0.8,6.5-2.9c0.7-0.1,1.4-0.2,2.4-0.3c-0.6-1.1-1-1.9-1.4-2.7c1.5-0.1,0.8-1.2,1-2
		c1.4-1,1.4-2,0-3c0-0.7,0-1.3,0-2c0-0.3,0-0.7,0-1c0.3-0.3,0.7-0.7,1-1c2-1.7,4-3.3,6-5c1.5-0.1,0.8-1.2,1-2c0.3-0.3,0.7-0.7,1-1
		c1.4-1.3,1.4-2.7,0-4c-0.4-1,0.9-2.5-1-3c-0.3-0.3-0.7-0.7-1-1C245.7,473.7,245.3,473.3,245,473z M195.2,504.4c0,0.2,0,1.3,0,2.3
		c0.5,0.5,0.9,0.9,1.2,1.2c1.8,0,3.6,0,5.5,0c0-1.9,0-3.7,0-5.5c-1.3-0.5-2.6-1-4.1-1.6C197,501.8,196.2,502.9,195.2,504.4z"/>
	<path class="st1" d="M256,0c21.3,0,42.7,0,64,0c0,0.3,0,0.7,0,1c0,21,0,42,0,63c-21.3,0-42.7,0-64,0c0-21,0-42,0-63
		C256,0.7,256,0.3,256,0z M285.6,7c-2.4,1.8-1.3,3.8-1.6,5.5c0.8,0.8,1.4,1.4,2.3,2.3c-0.8,4.9-1.7,10-2.7,15.9
		c-2.1-5.3-4-10-5.9-14.7c1-1.1,1.7-1.9,2.2-2.5c0-1.3,0-2.2,0-3.1c-0.8-0.8-1.5-1.5-2.3-2.3c-1,0-2.2,0-2.6,0
		c-1.3,1-2.2,1.7-2.9,2.3c0,1.7,0,3,0,4.5c0.9,0.5,1.9,1.1,2.9,1.7c-0.2,4.1,0.3,8.3-0.3,13c-3.7-2.2-4.1-6.2-7-8.2
		c0.5-1.8,0.9-3.3,1.3-4.7c-0.8-1.2-1.5-2.4-2.2-3.5c-1.7,0-3.2,0-4.5,0c-0.5,0.5-0.9,0.9-1.2,1.2c0,1.8,0,3.5,0,5.7
		c1.3,0.5,2.6,0.9,3.9,1.4c0,0.8-0.2,1.7,0,2.5c1.3,3.3,1.3,6.8,1.9,10.2c0.5,2.7,0.9,5.2,2.9,7.3c1.1,1.2,1.7,2.9,2.6,4.5
		c-2.7,2.6-3.7,5.5-3.5,8.9c4.1,1.2,8,2.3,12.2,2.2c4.2-0.1,8.3-0.1,12.5,0c4.2,0.1,8.2-0.6,12.1-2c0-2.1,0-3.9,0-5.2
		c-0.8-1.8-1.5-3.2-2.2-4.8c1.4-2,2.8-3.9,4.4-6.2c1-5.6,2.1-11.7,3.1-17.4c1.5-0.6,2.7-1.1,3.8-1.6c0-2.2,0-3.8,0-5.4
		c-0.5-0.5-1-1-1.3-1.3c-1.6,0-3.1,0-4.6,0c-0.8,1.3-1.5,2.5-2,3.4c0.4,1.9,0.8,3.4,1,4.2c-1.6,2.6-2.8,4.6-4.1,6.6
		c-0.6,0.8-1.5,1.3-2.8,2.2c0-4.5,0-8.3,0-12.2c0.8-0.8,1.7-1.7,2.7-2.7c0-1.4,0-2.9,0-4.2c-0.5-0.5-0.8-0.8-1.3-1.3
		c-1.7,0-3.4,0-5.5,0c-0.5,1.7-0.9,3.5-1.3,5c1,1.2,1.8,2,2.4,2.7c-0.9,2.5-1.5,4.8-2.5,6.9c-0.9,2.1-2.1,4.1-3.7,7.2
		c0.4-6.5-2.7-11.3-1.8-16.7c0.7-0.6,1.3-1.2,1.7-1.5c0-1.7,0-3.2,0-4.4c-0.5-0.5-0.9-0.9-1.3-1.3C288.9,7,287.2,7,285.6,7z"/>
	<path class="st1" d="M128,512c-21.3,0-42.7,0-64,0c0-0.3,0-0.7,0-1c0-21,0-42,0-63c21.3,0,42.7,0,64,0c0,21,0,42,0,63
		C128,511.3,128,511.7,128,512z M107,466c-0.3-0.3-0.7-0.7-1-1c-0.8-0.2-1.9,0.5-2-1s-1.2-0.8-2-1c-0.3-0.3-0.7-0.7-1-1
		c-1.9,0.4-3.4-0.7-4.9-1.4c0-1.7-0.1-3.3-2.5-3.6c-1.4,1.4-2.9,2.9-4.6,4.5c-1.7-1.7-3.2-3.2-5.2-5.2c-0.4,1.1-0.8,1.9-1.1,2.7
		c-0.3-0.2-0.6-0.3-0.9-0.5c0.4,1.7,0.7,3.3,1.1,5c-0.4,0.8-0.6,1.8-1.2,2.4c-4.1,4.4-6.4,10-9.1,15.2c-0.7,1.4-1.2,2.9-1.4,4.4
		c-0.1,1,0.6,2,0.9,3.1c0.1,0.4,0.1,0.9,0.2,1.2c0.9,0.9,1.6,1.6,2,2c2.7,0.5,5,0.9,7.4,1.3c3.9-4.5,8.6-7.9,13.4-11
		c0.4,2.9-0.7,5.2-2.8,7.3c-2,2.1-3.9,4.3-5.6,6.6c-0.7,0.9-1.2,2.1-1.6,3.3c-0.4,1.4-0.6,3-0.9,4.5c9.9,2.3,19.9,1,29.8,1.3
		c0.8-0.2,1.9,0.5,2-1c0.3,0,0.7,0,1,0c0.6,0,1.2,0,2,0c0-3.9,0-7.4,0-11c-0.4-1,0.9-2.5-1-3c0-1.7,0-3.3,0-5
		c-0.9-4.9-2.2-9.6-4.4-14c-0.6,0-1.1,0-1.6,0c-0.2-0.8,0.5-1.9-1-2c-0.3-0.3-0.7-0.7-1-1c-0.3-0.3-0.7-0.7-1-1
		C108.9,465.5,107.8,466.2,107,466z M70.1,510.7c2.1,1,3.9-0.3,5.6-1c0-2.9,0-5.8,0-9.1c-1,0.6-1.7,0.9-2.3,1.3
		c-0.5-0.3-0.9-0.7-1.7-1.3c-0.9,1.2-1.6,2.2-2.6,3.5c0,0.5,0,1.6,0,3c1.3,0.5,2.6,0.9,4.1,1.5c-1.4,0.3-2.4,0.5-3.3,0.7
		C70,510,70.1,510.3,70.1,510.7z"/>
	<path class="st0" d="M512,448c0,21.3,0,42.7,0,64c-21.3,0-42.7,0-64,0c0-0.3,0-0.7,0-1c20.9,0,41.8,0,63,0c0-21.2,0-42.1,0-63
		C511.3,448,511.7,448,512,448z"/>
	<path class="st2" d="M64,511c0,0.3,0,0.7,0,1c-21.3,0-42.7,0-64,0c0-21.3,0-42.7,0-64c0.3,0,0.7,0,1,0c0,20.9,0,41.8,0,63
		C22.2,511,43.1,511,64,511z"/>
	<path class="st0" d="M0,64C0,42.7,0,21.3,0,0c21.3,0,42.7,0,64,0c0,0.3,0,0.7,0,1C43.1,1,22.2,1,1,1c0,21.2,0,42.1,0,63
		C0.7,64,0.3,64,0,64z"/>
	<path class="st2" d="M512,64c-0.3,0-0.7,0-1,0c0-20.9,0-41.8,0-63c-21.2,0-42.1,0-63,0c0-0.3,0-0.7,0-1c21.3,0,42.7,0,64,0
		C512,21.3,512,42.7,512,64z"/>
	<ellipse class="st2" cx="224" cy="0.5" rx="45.3" ry="0.7"/>
	<ellipse class="st2" cx="352" cy="0.5" rx="45.3" ry="0.7"/>
	<ellipse class="st2" cx="511.5" cy="288" rx="0.7" ry="45.3"/>
	<ellipse class="st2" cx="416" cy="511.5" rx="45.3" ry="0.7"/>
	<ellipse class="st2" cx="0.5" cy="96" rx="0.7" ry="45.3"/>
	<ellipse class="st2" cx="288" cy="511.5" rx="45.3" ry="0.7"/>
	<ellipse class="st2" cx="160" cy="511.5" rx="45.3" ry="0.7"/>
	<ellipse class="st2" cx="511.5" cy="160" rx="0.7" ry="45.3"/>
	<ellipse class="st2" cx="96" cy="0.5" rx="45.3" ry="0.7"/>
	<ellipse class="st2" cx="0.5" cy="224" rx="0.7" ry="45.3"/>
	<ellipse class="st2" cx="511.5" cy="416" rx="0.7" ry="45.3"/>
	<ellipse class="st2" cx="0.5" cy="352" rx="0.7" ry="45.3"/>
	<path class="st3" d="M448,64c0,21.3,0,42.7,0,64c-21.3,0-42.7,0-64,0c0-21.3,0-42.7,0-64C405.3,64,426.7,64,448,64z M422.5,85.7
		c0.7-4.3,1.5-6.5-4-9.7c-6.7-0.1-6.7-0.1-9.6,4.5c0.2,3,0.2,6-2.4,8.4c-0.5,0.4-0.4,1.5-0.6,2.2c-0.3,1-0.7,2.1-0.7,2.3
		c0.4,2.2,0.7,3.7,1,5.3c0.5,0.6,1.4,1.1,1.7,1.9c-7.4,4.9-9.4,12.1-10,19.8c0.6,0.6,1,1,1.4,1.4c11,0,22.1,0,33.3,0
		c0.4-0.4,0.9-0.9,1.6-1.6c-0.4-2.3-0.5-4.9-1.3-7.3c-1.5-4.6-3.6-8.9-8-11.6c-0.4-0.2-0.6-0.6-0.8-1c0.7-0.7,1.3-1.3,1.5-1.5
		c0.5-2.1,1-3.7,1.3-5.2C425.7,90.9,425.7,87.5,422.5,85.7z"/>
	<path class="st3" d="M320,1c21.3,0,42.7,0,64,0c0,21,0,42,0,63c-21.3,0-42.7,0-64,0C320,43,320,22,320,1z M363.9,45.8
		c0.2-3.4,0.2-6.2-1.7-8.1c0.5-1.1,0.6-1.9,1.1-2.5c3-4.3,3.2-5.4,1.6-10c-0.9-2.5-1.8-5.1-4.1-6.8c-1.6-1.2-3.4-2.1-5.2-3.2
		c1.6-3.1,1.6-5.9-1.1-8.1c-1.8,0-3.6,0-5.5,0c-0.8,1.4-1.6,2.7-2.2,4c0.5,1.6,0.9,2.9,1.4,4.5c-4.4,1.6-7.5,4.3-8.9,8.6
		c-0.5,1.6-1.2,3.3-1.3,4.9c-0.1,1.5,0.4,3.1,1.1,4.5c0.7,1.5,1.9,2.7,2.8,3.9c-2.4,2.5-2,5.3-1.9,8.2c1.2,0.9,2.5,1.9,4.2,3.3
		c-2.6,0-4.8-0.2-6.9,0.1c-3.7,0.5-7.6,1-10.2,4.3c-0.2,0.2-0.1,0.6-0.3,1.3c0.5,0.3,1.1,0.8,2.1,1.5c6.8-0.6,14,0.9,21.2-1
		c2.7-0.7,5.4,0.7,8.1,0.8c5.8,0.3,11.6,0.1,17.3,0.1c0.7-0.7,1.2-1.3,1.9-2c-5-5.3-11.3-5-17.7-5.1
		C361.4,47.7,362.6,46.8,363.9,45.8z"/>
	<path class="st3" d="M448,1c20.9,0,41.8,0,63,0c0,21.2,0,42.1,0,63c-21,0-42,0-63,0C448,43,448,22,448,1z M494,42.5c0-6,0-12,0-18
		c1.3-1.3,2.6-2.6,3.9-3.9c0-2.8,0-5.6,0-8.3c-3.1-1.9-6-1.8-8.8,0.2c-0.2,0.5-0.3,1-0.4,1.4c-1.3,0-2.4,0-3.1,0
		c-0.8-1.2-1.4-2.1-1.9-2.8c-2.6,0-4.9,0-7.4,0c-0.5,0.8-1.1,1.8-1.8,2.9c-0.9,0-2,0-3.2,0c-0.1-0.5-0.2-0.9-0.3-1.5
		c-2.8-1.8-5.8-2.1-8.8,0c0,2.7,0,5.5,0,8.4c1.3,1.2,2.6,2.5,3.9,3.6c0,6.1,0,12.1,0,18.1c-0.6,0.6-1.2,1.2-2,2c0,1.6,0,3.4,0,5.1
		c-1.8,0.5-3.4,0.9-5,1.4c0.3,2.4-0.8,4.5,1.5,5.9c13.1,0,26.2,0,39.1,0c2.2-1.5,1.3-3.6,1.4-5c-1-2.8-3.3-1.4-5-2.2
		c0-1.9,0-3.6,0-5.3C495.2,43.7,494.6,43.1,494,42.5z M504.8,7.8c0.1,2.2,0.3,4.3,0.4,6.4c0.8-0.2,1.3-0.3,1.8-0.5
		c0-1.6,0-3.1,0-4.6c0-1.4-0.1-2.8-0.3-5c-1.8,1.8-4,2.3-3.5,5.1C503.8,8.6,504.2,8.3,504.8,7.8z"/>
	<circle class="st4" cx="96" cy="288" r="45.3"/>
	<ellipse class="st4" cx="32.5" cy="224" rx="44.5" ry="45.3"/>
	<ellipse class="st4" cx="32.5" cy="352" rx="44.5" ry="45.3"/>
	<circle class="st4" cx="96" cy="160" r="45.3"/>
	<path class="st3" d="M1,128c0-21.3,0-42.7,0-64c21,0,42,0,63,0c0,21.3,0,42.7,0,64C43,128,22,128,1,128z M48.8,122
		c0.4-0.8,1.1-1.7,1.1-2.5c-0.1-2-0.4-4.1-1-6.1c-1.3-4.9-3.5-9.3-8.1-12.1c-0.3-0.2-0.6-0.6-0.8-1c0.7-0.7,1.3-1.3,1.6-1.6
		c0.4-1.9,0.8-3.4,1.2-5.1c-1.3-2.6-0.9-6.6-4.7-8.1c1.8-4.5,1-6.7-3.6-9.6c-4-0.2-8-0.5-9.5,5.3c0,0.8,0,2.4,0,3.9
		c-0.6,1.1-1.1,2.2-1.8,3c-0.9,0.9-1.2,1.8-1.3,3c0,1-0.6,2.1-0.7,2.3c0.4,2.3,0.7,3.8,1,5.4c0.5,0.5,1.1,1,1.8,1.6
		c-7.5,4.7-9.6,12-10.2,19.6c1,2,2.4,1.8,3.7,1.8C28,122,38.3,122,48.8,122z"/>
	<circle class="st4" cx="416" cy="224" r="45.3"/>
	<path class="st4" d="M511,256c0,21.3,0,42.7,0,64c-21,0-42,0-63,0c0-21.3,0-42.7,0-64C469,256,490,256,511,256z M503.1,269.8
		c1.6,0,3.2,0,4.3,0c2.3-1.3,1.6-3,1.5-4.5c-1.3-0.6-2.6-1.2-4.3-1.9c1.5-0.3,2.5-0.5,3.6-0.7c-0.2-0.7-0.3-1.1-0.4-1.6
		c-1.6,0-3,0-4.5,0c0,1.7,0,3.2,0,4.7c1.1,0.2,2,0.3,2.8,0.5c-0.1,0.7-0.1,1-0.2,1.5c-0.9,0.1-1.8,0.3-2.8,0.4
		C503.1,268.8,503.1,269.2,503.1,269.8z"/>
	<path class="st4" d="M511,128c0,21.3,0,42.7,0,64c-21,0-42,0-63,0c0-21.3,0-42.7,0-64C469,128,490,128,511,128z M508.1,133.2
		c-2.1,0-3.5,0-5,0c0,0.6,0,1.1,0,1.6c1,0.1,1.9,0.3,3.5,0.5c-1.1,1-1.7,1.7-2.4,2.3c0.4,0.5,1.1,1.3,1.8,2.2
		c-1.6,0.2-2.9,0.3-4.2,0.5c0.2,0.7,0.3,1.2,0.4,1.7c1.9,0,3.7,0,4.8,0c4-1.4,0.2-4.4,1.9-6.2C509.2,135.4,508.4,134.1,508.1,133.2z
		"/>
	<path class="st3" d="M505.3,204.1c-0.9-0.1-2.1-0.2-4-0.4c2.3-2.5,3.4-5.3,5.9-7.2c1.7,2.5-0.3,5.1,1.7,6.9c-0.5,0.9-1,1.8-1.8,3
		C506.6,205.7,506.2,205.2,505.3,204.1z M505.9,201.4c-0.7,0.3-1.4,0.6-2.1,1c0.1,0.2,0.2,0.3,0.4,0.5c0.6,0,1.1,0,1.7,0
		C505.9,202.2,505.9,201.8,505.9,201.4z"/>
	<circle class="st4" cx="416" cy="352" r="45.3"/>
	<path class="st3" d="M511,384c0,21.3,0,42.7,0,64c-21,0-42,0-63,0c0-21.3,0-42.7,0-64C469,384,490,384,511,384z M474.1,405
		c-1.6,2.1-2.9,3.9-4.1,5.5c0,6.7,0,6.7,2,10c-6.4,5.3-10.3,11.7-8.8,20.3c11.3,0,22.4,0,33.5,0c1.3-8.7-2.5-15.1-8.8-20.4
		c2.8-3.2,1.8-6.7,2-10.2c-1.3-1.7-2.6-3.4-4.2-5.4c3.3-3.1-0.9-5.1-1.1-7.4c-3.4-2.6-6.5-1.8-9.4-0.3c-0.7,1.4-1.2,2.7-2,3.9
		C472.3,402.7,473.5,403.7,474.1,405z M502.1,390.8c1.3,0.2,2.7,0.4,4.2,0.6c-1.2,2.4-2.2,4.3-3.2,6.4c2,0.5,3.4,0.2,3.9-1.8
		c0.4-1.3,1-2.6,1.4-3.9c0.3-1,0.4-2,0.5-2.9c-2.6,0-4.7,0-6.9,0C502.1,389.8,502.1,390.2,502.1,390.8z"/>
	<path class="st3" d="M508.8,328.9c0.2,2.1,0.6,3.8-1.3,5c-0.9,0-2,0-3.2,0c-0.5-0.5-0.9-0.9-1.4-1.4c0-1.6,0-3.3,0-4.5
		c1.2-1.1,2.1-2,3.4-3.2c0.6,0.3,1.6,0.9,2.6,1.5c-0.1,0.2-0.1,0.4-0.2,0.7c-1.2,0-2.5,0-3.7,0c0,0.2,0,0.3-0.1,0.5
		C506.3,327.9,507.5,328.4,508.8,328.9z M505,330.1c-0.1,2.2,0.7,2.2,2.1,1.5c-0.1-0.5-0.2-1-0.3-1.5
		C506.2,330.1,505.8,330.1,505,330.1z"/>
	<path class="st3" d="M128,448c-21.3,0-42.7,0-64,0c0-21.3,0-42.7,0-64c21.3,0,42.7,0,64,0C128,405.3,128,426.7,128,448z M108,427
		c-0.2-0.8,0.5-1.9-1-2c-0.1-1.3,0.4-2.6-1-3.5c0.8-1.2,2-2.2,2.4-3.5c0.6-2.2,2.2-4.1,1.3-6.7c-1.8-5.5-4.5-8.9-10-11.8
		c0.4-1.4,0.9-2.9,1.3-4.4c-0.9-1.4-1.7-2.8-2.3-3.8c-2.1,0-3.9,0-5.8,0c-0.8,1.4-1.5,2.8-2.2,4c0.5,1.6,0.9,2.9,1.3,4.2
		c-4.4,2.4-5.7,3.5-7.9,6.8c-1.9,2.9-2.6,7.3-1.3,10.5c0.7,1.7,1.9,3.2,2.8,4.8c-1.3,0.8-0.8,2.2-0.9,3.5c-1.5,0.1-0.8,1.2-1,2
		c0,0.8,0,1.7,0,2.7c1.2,0.9,2.5,1.9,4,3c-4.2,0.5-8.4,1-12.8,1.5c-0.8,0.5-2,1.3-3,1.9c0,1.4,0,2.5,0,3.5c4.2,1.1,8.1-0.5,12.1-0.6
		c7.8-0.2,15.6-0.2,23.4,0c3.7,0.1,7.3,1.5,11,0.9c0.4-0.1,0.9-0.3,1.3-0.4c0-1.1,0-2.1,0-3c-1.2-0.8-2.4-1.6-3.5-2.3
		c-4.1-0.5-8.3-1-12.4-1.5c1.4-1.2,2.8-2.3,3.9-3.2C108,428.3,108,427.7,108,427z"/>
	<path class="st3" d="M64,511c-20.9,0-41.8,0-63,0c0-21.2,0-42.1,0-63c21,0,42,0,63,0C64,469,64,490,64,511z M45,490
		c0-0.3,0-0.7,0-1c0-5.7,0-11.3,0-17c0-0.3,0-0.7,0-1c1.6,0.2,2.6-0.4,3-2c0.3-0.7,0.7-1.3,1-2c0-2.3,0-4.6,0-6.9
		c-2.5,0-4.6,0-6.6,0c-0.7,0.7-1.3,1.3-1.8,1.8c-1.2,0-2.3,0-3.4,0c-0.2-0.7-0.4-1.3-0.6-1.7c-3.3,0-6.4,0-9.5,0
		c-0.2,0.6-0.3,1.1-0.4,1.7c-1.1,0-2.2,0-3.8,0c-0.3-0.4-0.9-1.2-1.1-1.6c-2.6,0-4.7,0-6.8,0c0,2.4,0,4.6,0,6.7c0.3,0.7,0.7,1.3,1,2
		c0.4,1.6,1.4,2.2,3,2c0,0.3,0,0.7,0,1c0,5.7,0,11.3,0,17c0,0.3,0,0.7,0,1c-1.5,0.1-0.8,1.2-1,2c-0.6,0-1.2,0-2,0c0,2.2,0,4.1,0,6
		c-1.2,0-2.5,0-3.1,0c-2.3,1.1-1.8,2.6-1.9,4c-1.3-0.5-2.6-1-3.3-1.2c-0.9-0.9-1.4-1.4-2.7-2.7c0.2,4-0.2,7,0.3,10
		c0.7-0.1,1-0.1,1.7-0.2c0-1.5,0-3.1,0-4.7c0.8,0,1.2-0.1,2-0.1c0,1.6,0,3.2,0,4.9c0.8,0,1.2,0,2,0c0-1.7,0-3.3,0-4.9
		c0.5,0.7,1,1.3,1.5,1.9c13.1,0,26.2,0,39.1,0c0.5-0.5,0.8-0.8,1.3-1.3c0-1.3,0-2.8,0-4.2c-0.5-0.5-0.9-1-1.4-1.4
		c-1.2,0-2.4,0-3.5,0c-0.1-2,0.3-4.1-0.3-6c-0.8,0-1.2,0-1.7,0C45.8,491.2,46.5,490.1,45,490z"/>
	<path class="st5" d="M48.8,440.9c-11.3,0-22.4,0-33.6,0c-1.3-8.5,2.3-14.9,8.7-20.2c-2-2.4-2-5.2-2-8c-0.1-3.3,2.1-5.2,4.3-7.4
		c-3.3-3.1,0.4-5.3,1-8c3.2-1.8,6.3-2,9.5,0.2c0.7,1.4,1.5,3,2.4,4.9c-0.4,0.9-0.8,1.9-1.2,2.9c4.1,4.4,4.1,4.4,4,12
		c-0.6,1.2-1.1,2.2-1.8,3.4C46.2,425.7,50.1,432,48.8,440.9z"/>
	<path class="st6" d="M462.1,120.4c-0.3-7.8,3.4-15.5,9.6-19.6c-0.7-0.5-1.4-0.9-2.2-1.4c0.2-0.2,0.5-0.5,0.7-0.7
		c-0.3-1.5-0.6-3-1.1-5.1c0.1-0.4,0.5-1.4,0.8-2.5c0.2-0.6-0.1-1.5,0.3-1.8c2.8-2.4,3-5.6,2.8-7.9c1.5-5.6,5.3-5.6,9.1-5.4
		c4.9,2.8,5.8,5,4.1,9.3c1.3,1.5,2.5,2.8,3.7,4.2c0.1,1.4-0.6,3,0.9,4c-0.4,1.7-0.8,3.4-1.3,5.4c-0.3,0.3-0.9,0.9-1.7,1.7
		c2.8,0.9,3.7,3.6,5.6,5.3c2.1,1.8,2.4,4.4,3.3,6.6c1,2.4,0.9,5.3,1.3,7.8c-0.7,0.7-1.2,1.2-1.6,1.6c-11,0-21.9,0-33.1,0
		C463.1,121.6,462.7,121.1,462.1,120.4z M475.7,80.8c0.4,2,0.7,4,1,5.9c-4,1.8-5.2,4.9-4.7,9.1c1.3,1.8,2.7,3.7,4.2,5.7
		c-3.7,1.6-6.5,3.5-8.4,7c-1.8,3.4-2.8,6.8-2.8,10.4c10.2,0,19.9,0,29.8,0c0.2-3.4-0.8-6.4-2-9.2c-1.7-4-5.2-6.6-9.2-8.3
		c1.6-2.1,2.9-3.9,4.2-5.6c0.7-4.4-1-7.5-4.6-9.1c0.3-2.2,0.6-4.2,0.8-5.3c-1.2-1.6-1.9-2.6-2.4-3.2c-1.4,0-2.4,0-3.3,0
		C477.6,78.9,476.9,79.6,475.7,80.8z"/>
	<path class="st3" d="M508.9,76.3c0,0.5,0,0.9,0,1.5c-2,0-3.9,0-6,0c0.1-2.3,2.2-2.9,3-4.4c0-0.7,0-1.4,0-2.2
		c-0.9-0.1-1.8-0.3-3.7-0.6c1.4-0.5,2.1-0.8,2.9-1.1c-0.2-0.2-0.3-0.4-0.5-0.7c0.8,0.2,1.6,0.3,2.3,0.5c0.7,0.3,1.4,0.7,2.1,1
		c0,0.7,0,1.3,0,2.1c-0.9,0.9-1.9,1.8-3.2,3C507,75.9,507.9,76.1,508.9,76.3z"/>
	<path class="st3" d="M384,448c-21.3,0-42.7,0-64,0c0-21.3,0-42.7,0-64c21.3,0,42.7,0,64,0C384,405.3,384,426.7,384,448z M344,420.5
		c-8.4,8.4-9.7,11.5-8.6,20.4c11.1,0,22.2,0,33.3,0c1.5-8.7-2.5-15.1-8.6-20.2c0.7-1.3,1.2-2.2,1.8-3.4c0.4-4.3,0.4-8.9-4.3-11.9
		c3.3-3.3-0.5-5.5-0.9-8c-3.3-1.8-6.4-1.9-9.6,0c-0.6,2.7-3.9,5-1.2,7.8c-1.5,2-2.8,3.8-4,5.4C342.2,414.1,341.2,417.6,344,420.5z"
		/>
	<path class="st3" d="M448,511c-21.3,0-42.7,0-64,0c0-21,0-42,0-63c21.3,0,42.7,0,64,0C448,469,448,490,448,511z M431,469
		c-0.3-0.3-0.7-0.7-1-1s-0.7-0.7-1-1c-0.1-1.5-1.2-0.8-2-1c-0.3-0.3-0.7-0.7-1-1c-0.1-1.5-1.2-0.8-2-1c-0.1-1.5-1.2-0.8-2-1
		c-0.3-0.3-0.7-0.7-1-1c-1.9,0.3-3.3-0.7-4.5-1.2c-0.7-1.5-1.3-2.8-1.9-4c-1.9,0.9-3.5,1.2-4.2,3.1c-0.2,0.6-1.2,0.9-1.7,1.3
		c-1.8-1.6-3.3-3.1-5-4.7c-0.8,0.9-1.3,1.5-1.8,2c0,2.1,0,4.1,0,5.8c-3.2,5.6-6.9,10.7-9.2,16.5c-0.7,1.9-2.3,3.8-1.6,5.7
		c0.8,1.9,0.9,4.5,2.5,5.1c3.2,0.6,5.4,1.1,7.9,1.6c3.7-4.4,8.5-7.8,13.5-11.1c0.4,3.1-0.8,5.6-3.1,7.7c-3.1,2.8-5.3,6.2-7.1,10
		c-0.7,1.5-0.6,2.7-0.6,4.4c4.9-0.6,9.5,1.3,14.4,1c5.1-0.3,10.3-0.1,15.4-0.1c0.8-0.2,1.9,0.5,2-1c0.3,0,0.7,0,1,0c0.6,0,1.2,0,2,0
		c0-3.9,0-7.4,0-11c0.8-5.1-2-9.6-2.2-14.5c-0.1-2.6-2.1-5-3.2-7.5c-0.6,0-1.1,0-1.6,0C431.8,470.2,432.5,469.1,431,469z
		 M388.2,507.7c3.8,0.3,3.8,0.3,5.7-1.1c0-1.4,0-2.9,0-4.7c-1.2-0.4-2.5-0.9-3.2-1.1c-1-0.9-1.5-1.5-2.5-2.4
		C388.2,501.9,388.2,504.8,388.2,507.7z"/>
	<path class="st3" d="M320,511c-21.3,0-42.7,0-64,0c0-21,0-42,0-63c21.3,0,42.7,0,64,0C320,469,320,490,320,511z M270,502
		c0.3,0.3,0.7,0.7,1,1c1.8,2.6,4.5,1.9,7,2c0.3,0.3,0.7,0.7,1,1c1.7,0,3.3,0,5,0c0.3,0.3,0.5,0.9,0.8,1c2.1,0.1,4.3,0.1,6.4,0
		c0.3,0,0.5-0.6,0.8-1c1.7,0,3.3,0,5,0c0.3-0.3,0.7-0.7,1-1c2.5-0.1,5.2,0.6,7-2c1.9-0.5,0.6-2,1-3c-0.2-0.8,0.5-1.9-1-2
		c-0.2-0.8,0.5-1.9-1-2c-0.2-0.8,0.5-1.9-1-2c0-0.7,0-1.3,0-2c1.5-0.1,0.8-1.2,1-2c0.3-0.3,0.7-0.7,1-1c1.4,0.4,2.4-0.4,2.8-1.4
		c0.6-1.6,0.9-3.3,1.1-5c0.2-1.4,0.3-2.7,0.8-4.2c1-2.6,0.8-5.7,1.2-8.5c0-0.3,0.3-0.5,0.2-0.4c1.5-0.6,2.6-1,3.7-1.4
		c0-2.2,0-4,0-5.7c-2.4-0.9-4.8-2.8-6.9,0.3c0,2.3,0,4.6,0,6.9c-2.1,3.2-4.2,6.4-6.9,10.3c0-5.5,0-9.9,0-15.5
		c0.6-0.4,1.9-1.2,3.2-2.1c-0.5-1.9-1-3.5-1.5-5.1c-1.7,0-3.1,0-3.8,0c-1.4,1.1-2.4,1.7-3,2.2c0,1.4,0,2.4,0,4
		c0.6,0.3,1.4,0.7,2.2,1.1c-2,4.9-3.8,9.2-5.6,13.6c-0.1-5.1-3.5-9.5-2.6-14.6c0.6-0.6,1.2-1.2,1.8-1.8c0-1.4,0-2.9,0-4.4
		c-1.4-0.8-2.7-1.6-4-2.3c-1.4,0.8-2.6,1.6-3.8,2.3c0,1.5,0,3,0,4.4c0.6,0.6,1.2,1.2,1.8,1.8c0.9,5.1-2.5,9.5-2.6,14.6
		c-1.8-4.4-3.6-8.7-5.5-13.2c0.7-0.8,1.4-1.7,2-2.3c0-1.2,0-2.2,0-2.5c-1-1.3-1.7-2.2-2.3-3c-2.2,0.2-4.3-0.7-5.5,1.7
		c0,1.3,0,2.6,0,4.6c0.8,0.7,2,1.6,3,2.4c-0.2,4.6,0.2,9-0.3,13.8c-1.5-2.1-2.7-3.6-3.8-5.2c-1-1.6-1.9-3.2-3.2-5.3
		c0-1.9,0-4.4,0-6.5c-2.6-2.2-4.8-1.8-6.8,0.1c0,1.7,0,3.4,0,5.4c1.2,0.4,2.5,0.9,3.8,1.4c0.1,1.4,0,3,0.4,4.3
		c0.9,2.5,1.4,5.2,1.5,7.8c0.1,2,1.1,3.7,1.2,5.6c0.1,1.4,1.4,2.1,2.9,1.9c0.3,0.3,0.7,0.7,1,1c0.2,0.8-0.5,1.9,1,2c0,0.7,0,1.3,0,2
		c-1.5,0.1-0.8,1.2-1,2c-0.3,0.3-0.7,0.7-1,1c-1.9,0.5-0.6,2-1,3c-0.3,0.3-0.7,0.5-1,0.8C269.3,501.2,269.7,501.6,270,502z
		 M265.8,507.9c0-3.2,0-6,0-9.6c-1.2,1.2-1.8,1.8-2.7,2.7c-0.4,0-1.1,0.1-2,0.2c-0.7,1.2-1.4,2.4-1.8,3.1c0.4,1.5,0.7,2.5,1,3.7
		C262.1,507.9,263.9,507.9,265.8,507.9z"/>
	<path class="st7" d="M340,490c0.5-1.5,1-2.9,1.6-4.9c-0.6-1-1.8-2.4-2.6-4.1c-1.5-3.3-1.1-7.6,1.1-10.6c2-2.7,4.1-5.6,8-6.8
		c-0.4-1.5-0.8-2.9-1.2-4.6c0.7-1.2,1.5-2.5,2.2-3.9c1.9,0,3.7,0,5.7,0c0.8,1.3,1.5,2.7,2.3,4c-0.5,1.5-0.9,2.8-1.3,4.1
		c4.7,2.8,8.1,6.1,9.7,11.5c0.9,3.1-0.5,5.1-1.3,7.5c-0.4,1.1-1.4,2.1-2.1,3.1c0.7,1.5,2,2.8,1.9,4.6
		C358.7,488.5,345.3,488.5,340,490z M348.2,472.1c0,1.1,0,1.9,0,2.7c1.1,0.2,2,0.3,3,0.5c0,1.1,0,1.8,0,2.7c0.7-0.1,1.1-0.1,1.6-0.2
		c0.2-1,0.3-1.9,0.5-3c1,0,1.7,0,2.8,0c-0.1-1.1-0.2-2-0.3-3c-1.1,0-1.9,0-2.6,0c-0.2-1.1-0.3-2-0.5-3c-0.8,0.2-1.3,0.4-1.7,0.5
		c-0.1,0.9-0.1,1.7-0.1,2.5C349.9,471.9,349.1,472,348.2,472.1z M359.9,484.2c-5.3,0-10.5,0-15.8,0c0,0.6,0,1.1,0,1.7
		c5.3,0,10.5,0,15.8,0C359.9,485.2,359.9,484.8,359.9,484.2z"/>
	<path class="st7" d="M364,491c0,0.7,0,1.3,0,2.5c-1.1,0.9-2.5,2-3.8,3.1c3.9,0.5,7.9,1,12.2,1.5c1.3,1,3,2.1,4.9,3.5
		c-0.6,0.8-1,1.4-1.7,2.4c-3.3-0.8-6.9,1.1-10.3-1c-0.6-0.4-1.6-0.1-2.5-0.1c-7.7,0-15.3-0.1-23,0c-1.7,0-3.4,0.8-5.1,0.9
		c-1.8,0.2-3.7,0.1-5.5,0c-0.4,0-0.9-0.6-1.3-1c0-0.7,0-1.3,0-2c1.1-1,2.3-2,3.1-2.8c4.5-0.5,8.6-1,12.8-1.5c-1.3-1-2.7-2-3.9-3
		c0-1,0-1.9,0-2.7c1,0.3,2,0.9,3.1,1c6,0.1,11.9,0.1,17.9,0C362,491.9,363,491.3,364,491z"/>
	<path class="st8" d="M364,491c-1,0.3-2,0.9-3.1,1c-6,0.1-11.9,0.1-17.9,0c-1,0-2-0.6-3.1-1c0-0.3,0-0.7,0-1c5.3-1.5,18.7-1.5,24,0
		C364,490.3,364,490.7,364,491z"/>
	<path class="st3" d="M328,501c0,0.7,0,1.3,0,2c-0.8,0.7-1.5,1.4-2.8,2.5c1.8,0.4,2.8,0.6,3.7,0.8c0,0.5,0,0.8,0.1,1.5
		c-1.2,0.1-2.4,0.2-4.1,0.3c-0.4-1.4-0.8-2.7-1.3-4.3C325.2,502.7,325.7,500.6,328,501z"/>
	<path class="st3" d="M128,64c21.3,0,42.7,0,64,0c0,21.3,0,42.7,0,64c-21.3,0-42.7,0-64,0C128,106.7,128,85.3,128,64z M178.1,120.4
		c-0.8-7.8-2.8-15-10.4-19.9c3.3-1.2,1.3-4.7,3.2-6.4c-1.4-3-1.1-6.9-4.9-8.4c1.9-4.3,1-6.7-3.6-9.6c-1.7,0-3.3,0-5.4,0
		c-1.3,1.3-2.8,2.8-4.1,4.1c0,2.1,0,3.8,0,5.4c-2.6,2.4-2.9,5.8-3.7,8c0.4,2.1,0.6,3.5,0.9,5.2c0.4,0.5,1.1,1.2,1.8,1.9
		c-7.3,4.8-9.5,12-10,19.9c0.6,0.6,1,1,1.5,1.5c11,0,22.1,0,33.2,0C177,121.5,177.3,121.2,178.1,120.4z"/>
	<path class="st3" d="M192,1c21.3,0,42.7,0,64,0c0,21,0,42,0,63c-21.3,0-42.7,0-64,0C192,43,192,22,192,1z M240,43.5
		c0.7-0.7,1.2-1.6,1.9-1.8c3.1-0.9,4.1-3.9,5.8-6.1c1.4-1.7,1.8-4.1,1.1-6.3c-0.4-1.3-1.1-2.6-1.8-3.7c-1.4-2.3-4-3.1-6.2-4.2
		c-1.6-0.8-3.3-0.6-5.1,0.3c-1.6,0.8-3.5,1-5.5,1.5c-0.3-3.9-2-6.4-5.2-7.8c0.1-0.9,0.1-1.5,0.1-2.2c1-0.2,1.9-0.3,2.8-0.4
		c0-1,0-1.8,0-2.6c-1-0.2-2-0.3-3-0.5c0-1,0-1.7,0-2.6c-0.6,0-1.1,0-1.6,0c-0.1,1-0.3,1.9-0.4,2.8c-1.4,0.1-2.6,0.3-4,0.4
		c1.5,2.5,1.5,2.5,4.1,3.1c0,0.8,0,1.5,0,2.2c-3.9,1.5-5.2,4.6-5,8.2c-4-1.2-7.4-3.3-12.1-2.7c-1.7,1.5-3.8,3.3-5.7,5
		c-1.1,5.4-1.1,5.4,0.1,10.8c2.2,1.8,3.7,4.5,6.8,5.6c0,3.7,0,7.5,0,10.5c3.9,3.7,8.7,3.5,12.9,4.9c2.6,0.9,8.3-0.3,12.2-1.6
		c2.8-0.9,6-1,7.8-3.9C240,49.5,240,46.7,240,43.5z"/>
	<path class="st3" d="M64,1c21.3,0,42.7,0,64,0c0,21,0,42,0,63c-21.3,0-42.7,0-64,0C64,43,64,22,64,1z M119,56.9
		c-0.2-8.5,0.2-16.5-1.8-24.6c-1.9-7.8-7.6-15.9-16.1-18.3c-2.4-0.7-4.4-1.2-5.4-3.8c-0.3-0.8-1.7-1.1-2.8-1.8
		c-1.5,1.7-2.6,3.1-4,4.8c-1.5-1.5-3-3-4.7-4.7c-0.8,0.7-1.5,1.4-2.2,1.9c0,2.1,0,4.1,0,5.4c-0.5,1.3-0.7,2.2-1.2,2.7
		c-3.6,4.2-5.8,9.2-8.1,14.1c-2.4,5.1-2.3,6.4,0.5,9.9c0.4,0.5,0.8,1.1,0.7,1c3.1,0.6,5.4,1,7.8,1.5c3.3-5.1,8.8-7.3,13-11.2
		c0.4,1.9,0.4,3.3-1,5c-1.3,1.6-2.7,3.2-3.9,4.8c-2,2.6-4.5,4.9-5.4,8.2c-0.5,1.9-0.7,3.4,1,4.9C96.4,56.9,107.5,56.9,119,56.9z"/>
	<path class="st9" d="M149.5,38.1c0.1-3.1-3.2-3.9-2.5-6.6c-1.6-1.7-0.5-3.3-0.1-5.2c1.1-5.3,4.3-8.5,9.4-10.8
		c-0.4-1.3-0.8-2.6-1.3-4.3c0.6-1.2,1.4-2.7,2.1-4.1c2.1,0,3.9,0,5.8,0c0.8,1.4,1.6,2.7,2.3,4c-0.5,1.5-0.9,2.8-1.4,4.2
		c1.8,1,3.4,1.9,4.9,2.9c2.3,1.6,3.3,4.3,4.2,6.7c1.8,4.6,1.5,5.5-1.7,10.4c-0.2,0.4-0.2,0.9-0.4,1.3c-0.1,0.3-0.5,0.5-0.7,0.7
		c0.6,1.1,1.2,2.1,1.9,3.4c0,1.4,0,3,0,4.9c-1.2,0.9-2.5,2-4.4,3.4c4.7-0.4,8.9-0.2,12.9,1.1c1.7,0.5,3,2.2,4.8,3.5
		c-0.5,0.7-0.9,1.4-1.6,2.3c-6,0-12.1,0.4-18.2-0.2c-2.7-0.3-5.5-1.4-8.1-0.7c-7,1.9-14.1,0.2-20.6,0.3c-0.8-0.3-1.6-0.6-2.2-0.9
		c1.9-3.8,5.2-4,8.2-5c3-1,6.1,0,9.3-0.8c-1.4-1.1-2.7-2-4-2.9c0-1.9,0-3.7,0-5.2C148.7,39.5,149.2,38.5,149.5,38.1z M170.9,32.8
		c0.2-3.4,0.2-6.4-1.7-10.2c-1.7-1.5-4.2-3.7-6.4-5.6c-6.4,0-6.4,0-13,6.6c-0.4,2.9-0.8,5.9-1.2,8.5c2.4,2.9,4.9,4.2,8.3,3.9
		c3.1-0.2,6.3-0.1,9.5-0.1C168,34.9,169.6,33.8,170.9,32.8z M160,52.2c1.3,0.3,2.1,0.7,3,0.8c5.4,0.3,10.8-0.7,16.1,1
		c0.6,0.2,1.2,0,2.3,0c-0.9-0.9-1.3-1.4-1.7-1.8c-3-0.8-6,0.4-9.2-0.9c-2.7-1.1-6,0-9-1.1c-1.8-0.7-4,0.4-6.1,0.7
		c-4.9,0.8-10,0.9-15,1.3c0.4,0.3,0.7,0.7,1.1,1c-0.9,0.1-1.7,0.2-2.6,0.2c1.2,0.5,2.2,0.8,2.8,0.5c2.4-1.3,5-0.9,7.6-0.9
		c2.5,0,5,0.1,7.5,0C157.9,52.9,158.9,52.5,160,52.2z M153.3,38c-0.9,1.2-1.7,2.2-3.1,4c6.7,0,12.5,0,18.3,0c0.2,0,0.4-0.5,0.7-1
		c-0.9-1-1.8-2-2.7-3C162.1,38,158,38,153.3,38z M150.4,44.1c-0.2,0.2-0.3,0.4-0.5,0.6c0.8,0.4,1.6,1,2.4,1.3
		c4.1,1.8,8.4,0.7,12.6,1c1.4-1.4,4.1-0.2,5-2.9C163.3,44.1,156.8,44.1,150.4,44.1z M161.9,9.2c-1.5,0-2.6,0-3.8,0
		c0,1.2,0,2.3,0,3.5c0.2-0.2,0.5-0.5,0.7-0.7c0.2,0.8,0.5,1.7,1,3.6c0.8-1.9,1.1-2.6,1.5-3.4c0.2,0.2,0.4,0.4,0.6,0.6
		C161.9,11.5,161.9,10.4,161.9,9.2z"/>
	<path class="st4" d="M192,511c-21.3,0-42.7,0-64,0c0-21,0-42,0-63c21.3,0,42.7,0,64,0C192,469,192,490,192,511z M135.2,499.2
		c-0.6,0.9-1.4,2.1-2.1,3.3c1.9,1.4,0.2,3.7,1.3,5.4c0.8,0,1.6,0,2.6,0c0-1.5,0-3,0-3.7c1-2.1,1.6-3.4,2.4-5.1
		C137.7,499.2,136.6,499.2,135.2,499.2z"/>
	<path class="st3" d="M256,448c-21.3,0-42.7,0-64,0c0-21.3,0-42.7,0-64c21.3,0,42.7,0,64,0C256,405.3,256,426.7,256,448z
		 M216.1,420.6c-6.7,5.5-10.3,11.8-8.8,20.3c11.3,0,22.4,0,33.6,0c1.4-8.7-2.6-15.1-8.7-20.2c0.7-1.3,1.2-2.2,1.8-3.4
		c0.4-4.4,0.3-8.9-3.7-11.6c0.2-1.8,0.7-3.2,0.4-4.4c-0.3-1.4-1.4-2.7-2.1-4.1c-3.1-1.8-6.3-1.7-9.4,0.1c-0.7,2.7-3.9,5-1.2,7.8
		c-1.5,2-2.8,3.8-4,5.5C214.2,414.1,213.2,417.6,216.1,420.6z"/>
	<path class="st8" d="M217,472c0.3,0,0.7,0,1,0c0.1,0.6,0,1.4,0.4,1.8c1.8,1.9,3.6,3.7,5.3,5.2c2.3-2.3,4.4-4.4,6.4-6.4
		c0.2,0.3,0.3,0.6,0.5,0.9c3.6-1.9,7.4-3.1,11.4-2.5c0.1,1.5,1.2,0.8,2,1c0.3,0.3,0.7,0.7,1,1c0.3,0.3,0.7,0.7,1,1s0.7,0.7,1,1
		c0.4,1-0.9,2.5,1,3c0,0.7,0,1.3,0,2c-1.9,0.5-0.6,2-1,3c-1.5,0.1-0.8,1.2-1,2c-2,1.7-4,3.3-6,5c-0.3,0.3-0.7,0.7-1,1
		c0,0.3,0,0.7,0,1c-0.6-0.1-1.3-0.1-1.8-0.4c-3.2-1.8-6.6-2.9-10.4-2.7c-2.3,0.2-4.7,0.1-7,0c-4.5-0.1-8.7,1.4-12.8,3
		c-0.4-1,0.9-2.5-1-3c-0.4-1.6-1.4-2.2-3-2c-0.2-0.8,0.5-1.9-1-2c-0.3-0.3-0.7-0.7-1-1c-0.2-0.8,0.5-1.9-1-2c0-1.3,0-2.7,0-4
		c0-0.3,0-0.7,0-1c1.5-0.1,0.8-1.2,1-2c1.5-0.1,0.8-1.2,1-2c0.3-0.3,0.7-0.7,1-1c1.5,0.2,2.7-0.6,4.1-0.9c2.9-0.6,5.6,0.3,8.2,1.7
		C216.1,473.2,216.9,473.3,217,472z M237.5,488.8c4.2-2.8,8.9-5.7,7.2-12.5c-0.6-0.6-1.4-1.4-2.2-2.2c-4.3-2.4-7.7,0.1-11.3,2
		c-4,2.1-5.5,5.6-6.4,9.7C229.2,486.7,233,487.7,237.5,488.8z M223,485.6c-0.1-0.7,0.1-1.5-0.2-2.2c-2.1-4.8-5.5-7.9-10.8-9.6
		c-3-0.9-5.1-0.6-7.4,1c-0.7,0.5-1.3,1-1.6,1.3c0,2.5,0,4.5,0,6.4c1.2,1.2,2.4,2.4,3.6,3.6c1.6,1.6,3.7,2.5,5.6,1.8
		C215.7,486.6,219.4,487,223,485.6z"/>
	<path class="st7" d="M242,471c-4.1-0.6-7.8,0.6-11.4,2.5c-0.2-0.3-0.3-0.6-0.5-0.9c-2.1,2.1-4.1,4.1-6.4,6.4
		c-1.6-1.6-3.5-3.4-5.3-5.2c-0.4-0.4-0.3-1.2-0.4-1.8c0.4-1.8,0.8-3.7,1.3-5.9c1-0.6,2.3-1.5,3.6-2.4c0-0.9,0-1.7,0-2.6
		c-0.9-0.1-1.7-0.1-2.7-0.2c0-0.9,0-1.8,0-2.8c0.8-0.1,1.6-0.2,2.6-0.3c0.1-0.9,0.3-1.8,0.4-2.8c0.6,0,1,0,1.6,0c0,0.9,0,1.6,0,2.6
		c1.1,0.2,2,0.4,3,0.5c0,0.8,0,1.6,0,2.6c-0.8,0.1-1.7,0.3-2.7,0.4c0,0.8,0,1.6,0,2.6c2.8,1.5,5.2,3.4,4.9,7.7
		c2.3-0.8,4.3-1.2,6.1-2.1c2.3-1.2,3.9,0.9,5.9,0.7C242,470.3,242,470.7,242,471z"/>
	<path class="st7" d="M237,502c-1.6,2.2-4.2,2.3-6.5,2.9c-2.1,0.6-4.4-0.1-6.6,1c-1.6,0.8-3.4-1.4-5.5-0.9c-3.3,0.7-6.1-1.1-9.1-2.1
		c-0.2-0.1-0.2-0.5-0.4-0.8c1.6-1,7.1-3,8.3-3c3.8,0,7.6-0.3,11.3,0.1C231.6,499.4,234.8,499.4,237,502z"/>
	<path class="st8" d="M239,494c1.4,1,1.4,2,0,3c-0.7-0.2-1.5-0.4-2.2-0.7c-2-0.7-4-2-6.1-2.2c-4.6-0.3-9.3-0.3-14,0
		c-2.4,0.2-4.8,1.1-7.1,2c-0.9,0.3-1.6,1.1-2.6,0.9c0-0.7,0-1.3,0-2c4.3-2.9,9.4-3.2,14.3-3.9c5.1-0.7,10,0.7,14.9,2.5
		C237,493.9,238.1,493.9,239,494z"/>
	<path class="st8" d="M237,502c-2.2-2.6-5.4-2.6-8.3-2.9c-3.7-0.4-7.6-0.1-11.3-0.1c-1.2,0-6.7,2-8.3,3c-0.6,0-1.2,0-2,0
		c0-0.8,0-1.4,0-2c0.5-0.3,1-0.8,1.6-1c4.1-1.7,8.4-2.6,12.7-3c2.1-0.2,4.3-0.2,6.4,0.2c3.5,0.7,6.9,1.8,10.3,2.7
		c0.4,0.8,0.8,1.5,1.4,2.7C238.4,501.8,237.7,501.9,237,502z"/>
	<path class="st6" d="M239,494c-0.9-0.1-2-0.1-2.8-0.4c-4.8-1.8-9.8-3.2-14.9-2.5c-4.9,0.7-10,0.9-14.3,3.9c0-1,0-2,0-3
		c4.1-1.6,8.2-3.1,12.8-3c2.3,0,4.7,0.1,7,0c3.8-0.3,7.2,0.8,10.4,2.7c0.5,0.3,1.2,0.3,1.8,0.4C239,492.7,239,493.3,239,494z"/>
	<path class="st6" d="M238,499c-3.4-0.9-6.8-2-10.3-2.7c-2.1-0.4-4.3-0.4-6.4-0.2c-4.4,0.4-8.6,1.3-12.7,3c-0.6,0.2-1.1,0.7-1.6,1
		c0-1,0-2,0-3c1.1,0.2,1.8-0.6,2.6-0.9c2.3-0.9,4.7-1.8,7.1-2c4.6-0.3,9.3-0.3,14,0c2.1,0.1,4,1.4,6.1,2.2c0.7,0.3,1.5,0.5,2.2,0.7
		C238.8,497.8,239.5,498.9,238,499z"/>
	<path class="st3" d="M195.2,504.4c1.1-1.5,1.8-2.5,2.6-3.7c1.5,0.6,2.8,1.1,4.1,1.6c0,1.8,0,3.6,0,5.5c-1.9,0-3.7,0-5.5,0
		c-0.3-0.3-0.7-0.7-1.2-1.2C195.2,505.7,195.2,504.6,195.2,504.4z M199.8,506.5c0-0.2,0-0.9,0-1.6c-0.7,0.1-1.1,0.2-2.6,0.4
		C198.5,506,199.2,506.3,199.8,506.5z"/>
	<path class="st9" d="M217,472c-0.1,1.3-0.9,1.2-1.7,0.8c-2.6-1.4-5.3-2.3-8.2-1.7c-1.3,0.3-2.6,1.1-4.1,0.9c1.1-1,2.2-2,3.2-2.9
		C210.2,469,213.6,469.9,217,472z"/>
	<path class="st3" d="M203,487c1.6-0.2,2.6,0.4,3,2C204.4,489.2,203.4,488.6,203,487z"/>
	<path class="st3" d="M248,480c0-0.7,0-1.3,0-2c1.4,1.3,1.4,2.7,0,4C248,481.3,248,480.7,248,480z"/>
	<path class="st9" d="M200,478c0,1.3,0,2.7,0,4C198.6,480.7,198.6,479.3,200,478z"/>
	<path class="st9" d="M242,471c0-0.3,0-0.7,0-1c0.7,0.7,1.3,1.3,2,2C243.2,471.8,242.1,472.5,242,471z"/>
	<path class="st3" d="M248,478c-1.9-0.5-0.6-2-1-3C248.9,475.5,247.6,477,248,478z"/>
	<path class="st9" d="M248,480c0,0.7,0,1.3,0,2c-0.3,0.3-0.7,0.7-1,1C247.4,482,246.1,480.5,248,480z"/>
	<path class="st9" d="M246,485c0.2-0.8-0.5-1.9,1-2C246.8,483.8,247.5,484.9,246,485z"/>
	<path class="st9" d="M200,482c1.5,0.1,0.8,1.2,1,2C199.5,483.9,200.2,482.8,200,482z"/>
	<path class="st9" d="M202,485c1.5,0.1,0.8,1.2,1,2C201.5,486.9,202.2,485.8,202,485z"/>
	<path class="st9" d="M201,475c-0.2,0.8,0.5,1.9-1,2C200.2,476.2,199.5,475.1,201,475z"/>
	<path class="st9" d="M202,473c-0.2,0.8,0.5,1.9-1,2C201.2,474.2,200.5,473.1,202,473z"/>
	<path class="st9" d="M247,475c-0.3-0.3-0.7-0.7-1-1C246.3,474.3,246.7,474.7,247,475z"/>
	<path class="st9" d="M203,472c-0.3,0.3-0.7,0.7-1,1C202.3,472.7,202.7,472.3,203,472z"/>
	<path class="st9" d="M246,474c-0.3-0.3-0.7-0.7-1-1C245.3,473.3,245.7,473.7,246,474z"/>
	<path class="st3" d="M239,491c0.3-0.3,0.7-0.7,1-1C239.7,490.3,239.3,490.7,239,491z"/>
	<path class="st9" d="M245,473c-0.3-0.3-0.7-0.7-1-1C244.3,472.3,244.7,472.7,245,473z"/>
	<path class="st9" d="M201,484c0.3,0.3,0.7,0.7,1,1C201.7,484.7,201.3,484.3,201,484z"/>
	<circle class="st4" cx="288" cy="96" r="45.3"/>
	<path class="st6" d="M285.6,7c1.7,0,3.3,0,5,0c0.4,0.4,0.7,0.7,1.3,1.3c0,1.2,0,2.7,0,4.4c-0.4,0.3-1,0.9-1.7,1.5
		c-0.9,5.4,2.2,10.2,1.8,16.7c1.6-3.1,2.8-5.1,3.7-7.2c0.9-2.1,1.6-4.3,2.5-6.9c-0.6-0.7-1.4-1.5-2.4-2.7c0.4-1.5,0.9-3.3,1.3-5
		c2,0,3.8,0,5.5,0c0.5,0.5,0.8,0.8,1.3,1.3c0,1.3,0,2.8,0,4.2c-1,1-1.9,1.9-2.7,2.7c0,3.9,0,7.7,0,12.2c1.3-1,2.2-1.4,2.8-2.2
		c1.4-1.9,2.5-4,4.1-6.6c-0.2-0.8-0.5-2.4-1-4.2c0.5-0.9,1.2-2.1,2-3.4c1.5,0,2.9,0,4.6,0c0.3,0.3,0.8,0.8,1.3,1.3
		c0,1.6,0,3.3,0,5.4c-1,0.4-2.3,1-3.8,1.6c-1,5.8-2.1,11.8-3.1,17.4c-1.6,2.2-3,4.2-4.4,6.2c0.7,1.6,1.4,3,2.2,4.8
		c0,1.3,0,3.1,0,5.2c-3.9,1.4-7.9,2.1-12.1,2c-4.2-0.1-8.3-0.1-12.5,0c-4.2,0.1-8.1-0.9-12.2-2.2c-0.2-3.4,0.7-6.3,3.5-8.9
		c-0.9-1.6-1.5-3.3-2.6-4.5c-2-2.1-2.4-4.6-2.9-7.3c-0.6-3.4-0.6-6.9-1.9-10.2c-0.3-0.7,0-1.6,0-2.5c-1.3-0.5-2.6-1-3.9-1.4
		c0-2.1,0-3.9,0-5.7c0.4-0.4,0.7-0.7,1.2-1.2c1.3,0,2.7,0,4.5,0c0.6,1,1.4,2.2,2.2,3.5c-0.4,1.4-0.8,2.9-1.3,4.7c3,2,3.3,6,7,8.2
		c0.6-4.7,0.1-8.9,0.3-13c-1.1-0.6-2-1.2-2.9-1.7c0-1.5,0-2.8,0-4.5c0.7-0.5,1.6-1.2,2.9-2.3c0.5,0,1.6,0,2.6,0
		c0.8,0.8,1.5,1.5,2.3,2.3c0,0.9,0,1.8,0,3.1c-0.5,0.6-1.3,1.4-2.2,2.5c1.9,4.7,3.8,9.4,5.9,14.7c1-5.9,1.9-11,2.7-15.9
		c-0.9-0.9-1.5-1.5-2.3-2.3C284.3,10.9,283.2,8.8,285.6,7z M307,27.4c-2.2,2.4-3.6,4.8-5,7.4c2.2,0.4,3.9,0.5,5-1.4
		c0-1.7,0-3.5,1.2-7.8c-0.8,0.7-1.1,0.9-1.1,1c0.1,0.5,0.3,0.9,0.4,1.4C307.6,27.4,307.8,26.8,307,27.4z M268.2,28
		c0.3,0,0.6,0,0.9-0.1c-0.1-0.6-0.3-1.3-0.4-1.9c-0.2,0-0.4,0.1-0.6,0.1c0.1,0.6,0.1,1.3,1.1,1.1c0,3.1,0,5.4,0,7.6c1.7,0,3.3,0,5,0
		C272.5,32.3,271.1,30.1,268.2,28z M302.7,49.5c-1.7-1.4-3.4-1.6-5.2-1.5c-6.3,0.1-12.6,0.1-19,0c-2.6-0.1-4.7,0.6-6.4,2.4
		c0,1.2,0,2.3,0,3.2c10.7,1.9,21.3,2,31.9-0.1C303.6,52.1,303.2,50.8,302.7,49.5z M303.1,37.5c0.1-0.2,0.3-0.3,0.4-0.5
		c-2.2,0-4.3,0.1-6.5,0c-2.2-0.2-4.4-0.9-6.6-0.9c-3.2,0-6.3-0.4-9.6,0.8c-2.5,0.9-5.6,0.2-8.4,0.2c0.2,0.2,0.4,0.5,0.6,0.7
		c-0.8,0.3-1.7,0.6-2.8,1c1,1.1,1.6,1.6,2.1,2.3c10.4,0,20.8,0,31.2,0c0.6-0.6,1.1-1.2,1.9-2.1C304.5,38.3,303.8,37.9,303.1,37.5z
		 M301.9,43.2c-9.3,0-18.5,0-27.7,0c-0.1,0.5-0.2,0.8-0.2,1.1c0,0.5,0,1,0.1,1.4c7.9,0.7,11.2,0.6,13.5-0.5c5,1.6,9.6,0.4,14.3,0.9
		C301.9,44.9,301.9,44.1,301.9,43.2z M291.1,33.9c-0.9-4.4-1.7-8.7-2.5-12.9c-0.5,0.1-0.9,0.1-1.2,0.1c-0.8,4.3-1.6,8.5-2.4,12.7
		C287.2,33.9,289,33.9,291.1,33.9z M277.6,22c-0.2,0-0.3,0.1-0.5,0.1c0,4.2,0,8.5,0,12.9c1.8-0.6,3.3-1,5-1.6
		C280.6,29.6,279.1,25.8,277.6,22z M298.8,21.5c-1.8,4.5-3.3,8.4-4.9,12.4c2,0,3.4,0,4.9,0C298.8,29.9,298.8,26,298.8,21.5z
		 M276.1,9.4c-1.1,1.1-1.7,1.8-2.6,2.7c1.1,0.9,2,1.5,2.9,2.2c0.8-1,1.3-1.7,2-2.5C277.6,11,277,10.4,276.1,9.4z M310.3,14.8
		c0,1.5,0,2.8,0,4c1,0,1.8,0,2.5,0C313.4,16.6,312.7,15.3,310.3,14.8z M265.8,14.8c-2.5,0.6-3.2,1.9-2.7,3.6
		c0.1,0.4,1.6,0.4,2.7,0.7C265.8,17.6,265.8,16.4,265.8,14.8z M302.9,13.8c-1.3-1.6-2-2.3-2.7-3.2c-1.3,0.9-2.6,1.4-2,3.2
		C299.4,13.8,300.6,13.8,302.9,13.8z M288,8.4c-0.9,1.3-1.5,2.2-2.7,3.7c2.2-0.2,3.5-0.3,5.5-0.4C289.6,10.3,288.9,9.5,288,8.4z"/>
	<path class="st10" d="M94.9,482c-4.8,3.2-9.5,6.6-13.4,11.1c-2.4-0.4-4.7-0.9-7.4-1.3c-0.4-0.4-1.1-1.1-2-2c0-0.2-0.1-0.7-0.2-1.2
		c-0.3-1-1-2.1-0.9-3.1c0.2-1.5,0.7-3,1.4-4.4c2.7-5.3,5-10.8,9.1-15.2c0.6-0.6,0.8-1.6,1.2-2.4c-0.4-1.6-0.7-3.3-1.1-5
		c0.3,0.2,0.6,0.3,0.9,0.5c0.3-0.8,0.6-1.6,1.1-2.7c2,1.9,3.4,3.4,5.2,5.2c1.7-1.7,3.2-3.1,4.6-4.5c2.4,0.3,2.5,1.9,2.5,3.6
		c1.6,0.7,3,1.8,4.9,1.4c0,0.3,0,0.7,0,1c-0.9,0-1.9,0-2.9,0c0,0.8,0,1.2,0,1.6c7.1,3,9.7,5.2,12.9,12.3c1.8,3.9,2.7,8,3,12.2
		c0.2,4.9,0.1,9.9,0.1,14.9c0,0.3,0,0.7,0,1c-9.9-0.3-19.9,1-29.8-1.3c0.3-1.5,0.4-3,0.9-4.5c0.3-1.2,0.8-2.4,1.6-3.3
		c1.8-2.3,3.6-4.6,5.6-6.6C94.3,487.2,95.4,484.9,94.9,482c0,0,0.1,0.1,0.1,0.1c0.3-0.2,0.5-0.5,0.8-0.7c-0.1-0.1-0.2-0.2-0.3-0.3
		C95.4,481.4,95.1,481.6,94.9,482z M84,467.1c-0.6,1.5-1.3,3-1.9,4.6c-0.1,0.4,0.2,0.9,0.3,1.3c0.8,0,1.5,0,2.1,0
		c0.8-0.8,1.6-1.6,2.4-2.4c0-1.1,0-2.2,0-3.5C85.9,467.1,85.1,467.1,84,467.1z M79.5,484.5c-1-1.5-1.5-2.3-1.9-2.9
		c-2.4,1.3-3.2,2.5-1.9,4.8C76.9,485.8,78,485.2,79.5,484.5z"/>
	<path class="st11" d="M114,504c0-5,0.2-9.9-0.1-14.9c-0.2-4.2-1.2-8.3-3-12.2c-3.2-7.1-5.8-9.3-12.9-12.3c0-0.4,0-0.9,0-1.6
		c1,0,2,0,2.9,0c0.3,0,0.7,0,1,0c0.1,1.5,1.2,0.8,2,1c0.1,1.5,1.2,0.8,2,1c0.3,0.3,0.7,0.7,1,1c0.1,1.5,1.2,0.8,2,1
		c0.3,0.3,0.7,0.7,1,1c0.3,0.3,0.7,0.7,1,1c0.2,0.8-0.5,1.9,1,2c0.1,0.6,0.1,1.3,0.4,1.8c1.1,2.4,3,4.4,2.6,7.3
		c1.9,1.1-0.1,3.8,2,4.8c0,1.7,0,3.3,0,5c0,1,0,2,0,3c0,3.7,0,7.3,0,11c-0.3,0-0.7,0-1,0C115.3,504,114.7,504,114,504z"/>
	<path class="st3" d="M70.1,510.7c-0.1-0.4-0.1-0.7-0.2-1.4c1-0.2,2-0.4,3.3-0.7c-1.6-0.6-2.8-1-4.1-1.5c0-1.4,0-2.5,0-3
		c0.9-1.3,1.7-2.3,2.6-3.5c0.8,0.6,1.3,0.9,1.7,1.3c0.6-0.3,1.3-0.7,2.3-1.3c0,3.3,0,6.2,0,9.1C74,510.4,72.3,511.7,70.1,510.7z
		 M74.5,503.3c-1.5,0-2.5,0-4.1,0c0.7,1.5,1.3,2.7,2.2,4.6C73.4,505.9,73.9,504.7,74.5,503.3z"/>
	<path class="st9" d="M117,485c-2.1-1-0.1-3.7-2-4.8c0.4-2.9-1.5-5-2.6-7.3c-0.3-0.5-0.2-1.2-0.4-1.8c0.5,0,1,0,1.6,0
		c2.3,4.4,3.5,9.1,4.4,14C117.7,485,117.3,485,117,485z"/>
	<path class="st5" d="M117,504c0-3.7,0-7.3,0-11c0.7,0,1.3,0,2,0c0,3.6,0,7.1,0,11C118.2,504,117.6,504,117,504z"/>
	<path class="st3" d="M119,493c-0.7,0-1.3,0-2,0c0-1,0-2,0-3c0.3,0,0.7,0,1,0C119.9,490.5,118.6,492,119,493z"/>
	<ellipse class="st5" cx="117.5" cy="487.5" rx="0.7" ry="3.5"/>
	<path class="st3" d="M104,464c-0.8-0.2-1.9,0.5-2-1C102.8,463.2,103.9,462.5,104,464z"/>
	<path class="st3" d="M114,504c0.7,0,1.3,0,2,0c-0.1,1.5-1.2,0.8-2,1C114,504.7,114,504.3,114,504z"/>
	<path class="st9" d="M112,471c-1.5-0.1-0.8-1.2-1-2C112.5,469.1,111.8,470.2,112,471z"/>
	<path class="st3" d="M109,467c-0.8-0.2-1.9,0.5-2-1C107.8,466.2,108.9,465.5,109,467z"/>
	<path class="st3" d="M107,466c-0.3-0.3-0.7-0.7-1-1C106.3,465.3,106.7,465.7,107,466z"/>
	<path class="st9" d="M111,469c-0.3-0.3-0.7-0.7-1-1C110.3,468.3,110.7,468.7,111,469z"/>
	<path class="st3" d="M102,463c-0.3,0-0.7,0-1,0c0-0.3,0-0.7,0-1C101.3,462.3,101.7,462.7,102,463z"/>
	<path class="st1" d="M448,511c0-21,0-42,0-63c21,0,42,0,63,0c0,20.9,0,41.8,0,63C489.8,511,468.9,511,448,511z M493,490
		c0-0.3,0-0.7,0-1c0-5.7,0-11.3,0-17c0-0.3,0-0.7,0-1c1.6,0.2,2.6-0.4,3-2c0.3-0.7,0.7-1.3,1-2c0-2.3,0-4.6,0-6.9
		c-2.8,0-5.2,0-7.7,0c-0.2,0.7-0.5,1.2-0.7,2c-1.3-0.1-2.5-0.2-3.4-0.3c-0.3-0.9-0.4-1.3-0.5-1.6c-3.3,0-6.4,0-9.4,0
		c-0.2,0.7-0.4,1.3-0.6,1.7c-1.3,0-2.4,0-3.5,0c-0.3-0.7-0.5-1.3-0.6-1.8c-2.5,0-4.8,0-7.6,0c-0.3,1.1-0.9,2.2-0.9,3.4
		c0,1.2,0.6,2.4,0.9,3.6c0.3,0.7,0.7,1.3,1,2c0.4,1.6,1.4,2.2,3,2c0,0.3,0,0.7,0,1c0,5.7,0,11.3,0,17c0,0.3,0,0.7,0,1
		c-1.5,0.1-0.8,1.2-1,2c-0.6,0-1.2,0-2,0c0,2.2,0,4.1,0,6c-1.2,0-2.3,0-3.5,0c-0.5,0.5-0.9,0.9-1.5,1.5c0.2,1.8-0.8,3.9,1.4,5.4
		c13,0,26.1,0,39.1,0c2.3-1.5,1.3-3.6,1.4-5.4c-0.5-0.5-1-1-1.5-1.5c-1.2,0-2.3,0-3.5,0c-0.1-2,0.3-4.1-0.3-6c-0.8,0-1.2,0-1.7,0
		C493.8,491.2,494.5,490.1,493,490z M503.1,461.8c1.8,0,3.3,0,4.9,0c0.3-0.9,1.1-2.2,0.8-2.6c-1.1-1.5,0.2-2.8,0.1-4.2
		c0-0.3-0.2-0.6-0.3-0.9c-1.3-0.5-2.6-0.9-4.1-1.5c-0.6,0.7-1.1,1.4-1.8,2.2C504.3,456.9,502.6,459.3,503.1,461.8z M457.8,508
		c0-1.9,0-3.8,0-5.7c-2.5-1.8-2.5-1.8-4.4,0.6c0.9,0.2,1.8,0.3,2.7,0.5c-1.7,0.7-3.7,0.4-4.1,3.3c0.5,0.3,1.2,0.7,2.4,1.4
		C454.9,508,456.2,508,457.8,508z"/>
	<path class="st1" d="M64,1c0,21,0,42,0,63c-21,0-42,0-63,0C1,43.1,1,22.2,1,1C22.2,1,43.1,1,64,1z M46,24.4c1.4-1.4,2.7-2.6,4-3.9
		c0-2.7,0-5.4,0-8.1c-5.1-2.3-7.3-2-9.6,1.5c-1,0-2,0-2.9,0c-0.6-1-1.1-1.9-1.7-2.9c-2.6,0-5.1,0-7.6,0c-0.6,1-1.1,1.9-1.6,2.8
		c-1.2,0-2.3,0-3.3,0c-1.9-3.4-4.3-3.7-9.3-1.4c0,2.7,0,5.3,0,8.6c1.1,1,2.5,2.4,3.9,3.7c0,6,0,11.9,0,17.8c-0.7,0.7-1.3,1.3-2,2
		c0,1.6,0,3.4,0,5.1c-1.6,0.6-3.6-0.5-4.7,1.8c0,1.1,0,2.6,0,4c0.5,0.5,0.9,1,1.4,1.4c13,0,26,0,39,0c0.5-0.5,0.9-0.9,1.4-1.4
		c0-1.5,0-3,0-4.9c-1.7-0.4-3.3-0.8-4.9-1.2c0-1.8,0-3.4,0-5.8c-0.4-0.3-1.3-0.8-2-1.2C46,36.5,46,30.6,46,24.4z"/>
	<circle class="st12" cx="416" cy="160" r="45.3"/>
	<path class="st1" d="M320,128c0-21.3,0-42.7,0-64c21.3,0,42.7,0,64,0c0,21.3,0,42.7,0,64C362.7,128,341.3,128,320,128z
		 M370.1,120.4c-0.7-7.9-2.8-15.2-10.5-20c3.6-1.2,1.5-4.8,3.4-6.4c-1.4-3.2-1.6-6.8-4.9-8.6c1.9-4.5,1-6.5-3.8-9.3
		c-4.1-0.3-7.9,0-9.2,4.8c-0.1,1.6,0.1,3.3-0.4,4.8c-0.4,1.3-1.5,2.4-2.4,3.5c-0.9,1.2,0.5,3-1,4.1c-0.2,0.1-0.2,0.6-0.1,0.4
		c0.5,2,0.8,3.5,1.4,6.1c-0.2-0.1,0.7,0.3,1.5,0.8c-7.4,5-9.5,12.1-10.2,19.8c0.7,0.7,1.1,1.2,1.4,1.5c11.3,0,22.4,0,33.3,0
		C369.2,121.3,369.5,121,370.1,120.4z"/>
	<path class="st6" d="M422.5,85.7c3.2,1.7,3.2,5.2,4.4,8c-0.4,1.4-0.8,3.1-1.3,5.2c-0.3,0.3-0.8,0.8-1.5,1.5c0.3,0.3,0.5,0.8,0.8,1
		c4.4,2.7,6.5,7,8,11.6c0.8,2.4,0.9,5,1.3,7.3c-0.7,0.7-1.2,1.2-1.6,1.6c-11.2,0-22.3,0-33.3,0c-0.5-0.5-0.8-0.8-1.4-1.4
		c0.6-7.7,2.7-14.8,10-19.8c-0.3-0.8-1.2-1.2-1.7-1.9c-0.3-1.6-0.6-3.1-1-5.3c0.1-0.3,0.4-1.3,0.7-2.3c0.2-0.7,0.1-1.8,0.6-2.2
		c2.5-2.4,2.6-5.4,2.4-8.4c2.9-4.6,2.9-4.6,9.6-4.5C424,79.2,423.2,81.5,422.5,85.7z M412.9,101.4c-3.2,1-5.2,2.5-7.1,4.2
		c-1.9,1.7-2.7,4-3.7,6c-1,2.2-0.9,4.8-1.2,7.4c10,0,19.5,0,28.9,0c0.3,0,0.6-0.2,1.2-0.3c-0.6-7.8-3.3-14.2-11.9-17.6
		c3.5-2.7,5.6-5.7,5-8.5c-1.3-3.4-2.7-5.3-5-6.1c0.4-2,0.7-4.1,1-5.5c-1.2-1.3-1.9-2.2-2.6-2.9c-1.2,0-2.2,0-3,0
		c-1,0.9-1.8,1.7-2.9,2.7c0.4,1.9,0.7,3.9,1.2,6.2c-3.1-0.2-3.3,2.9-4.8,4.6C407.2,95.5,409.5,98.2,412.9,101.4z"/>
	<path class="st6" d="M363.9,45.8c-1.3,1-2.6,1.9-4.2,3.1c6.3,0.1,12.7-0.2,17.7,5.1c-0.7,0.8-1.3,1.3-1.9,2
		c-5.7,0-11.5,0.2-17.3-0.1c-2.7-0.1-5.4-1.5-8.1-0.8c-7.2,1.9-14.4,0.4-21.2,1c-0.9-0.7-1.6-1.1-2.1-1.5c0.1-0.7,0.1-1.1,0.3-1.3
		c2.6-3.3,6.5-3.7,10.2-4.3c2.1-0.3,4.3-0.1,6.9-0.1c-1.7-1.3-3-2.3-4.2-3.3c-0.1-2.9-0.4-5.7,1.9-8.2c-0.9-1.3-2.1-2.5-2.8-3.9
		c-0.7-1.4-1.1-3-1.1-4.5c0.1-1.7,0.7-3.3,1.3-4.9c1.4-4.3,4.5-7,8.9-8.6c-0.5-1.5-0.9-2.9-1.4-4.5c0.7-1.2,1.4-2.6,2.2-4
		c1.9,0,3.7,0,5.5,0c2.7,2.2,2.7,5,1.1,8.1c1.8,1.1,3.6,2,5.2,3.2c2.2,1.7,3.2,4.3,4.1,6.8c1.6,4.6,1.3,5.7-1.6,10
		c-0.4,0.6-0.6,1.4-1.1,2.5C364.1,39.6,364.2,42.4,363.9,45.8z M361.5,23c-0.8-0.8-2.1-2-3.3-3.3c-3.5-3.6-8.7-3.6-12.3,0
		c-1.3,1.3-2.6,2.6-3.5,3.5c-0.6,1.8-1.2,3.1-1.3,4.5c-0.2,1.6,0,3.3,0,4.8c1.2,1.3,2.4,2.5,3.5,3.7c5.1,0,10,0,15,0
		c1.2-1.2,2.3-2.3,3.5-3.5C363.1,29.4,363.2,26.4,361.5,23z M331,53.6c2.6,1.4,4.7-1,7.1-0.7c2.3,0.3,4.7,0.2,7,0
		c2.4-0.1,4.9,0.8,7-1c0.8,0.4,1.5,1,2.2,1c6,0.1,12.1-0.4,18.1,1c0.2,0,0.5-0.3,0.7-0.5c-0.5-0.5-0.9-0.9-1.5-1.5
		c-2.4,0-5.2,0.6-7.4-0.2c-2.6-1-5.1-0.6-7.6-0.8c-0.5,0-1-0.1-1.3-0.4c-1.6-1.4-3.9-1.1-5.2-0.5c-3.5,1.8-7.3,0-10.8,1.7
		c-1.9,0.9-4.5,0.2-6.7,0.2C331.9,52.6,331.5,53.1,331,53.6z M360.9,39.4c-2.7-2-5.8-1.4-8.8-1.4c-3.1,0-6.4-0.8-9.1,1.6
		c0,0.7,0.1,1.4,0.1,2.2c6,0,11.8,0,17.8,0C360.9,40.9,360.9,40.2,360.9,39.4z M362,44.2c-6.8,0-13.3,0-20.1,0
		C346.2,48.1,357.8,48.1,362,44.2z M350,12.6c0.7,0.5,1.4,1.1,2,1.7c1.9-2,1.9-2,1.6-5.3c-1.2,0.1-2.4,0.1-3.6,0.2
		C350,10.5,350,11.5,350,12.6z"/>
	<path class="st9" d="M494,42.5c0.6,0.6,1.2,1.2,1.9,1.9c0,1.6,0,3.4,0,5.3c1.7,0.8,4-0.6,5,2.2c-0.1,1.3,0.9,3.4-1.4,5
		c-13,0-26.1,0-39.1,0c-2.3-1.4-1.2-3.6-1.5-5.9c1.6-0.4,3.2-0.9,5-1.4c0-1.7,0-3.5,0-5.1c0.8-0.8,1.4-1.4,2-2c0-6,0-11.9,0-18.1
		c-1.2-1.2-2.6-2.4-3.9-3.6c0-2.9,0-5.7,0-8.4c3.1-2,6-1.8,8.8,0c0.1,0.6,0.2,1,0.3,1.5c1.3,0,2.4,0,3.2,0c0.7-1.1,1.3-2,1.8-2.9
		c2.5,0,4.8,0,7.4,0c0.5,0.8,1.1,1.7,1.9,2.8c0.8,0,1.9,0,3.1,0c0.1-0.4,0.2-0.8,0.4-1.4c2.7-2,5.7-2.1,8.8-0.2c0,2.7,0,5.5,0,8.3
		c-1.3,1.3-2.6,2.6-3.9,3.9C494,30.5,494,36.5,494,42.5z M469.2,24.1c0,5.9,0,11.3,0,16.9c7.4,0,14.6,0,21.7,0c0-5.9,0-11.4,0-16.9
		C483.5,24.1,476.4,24.1,469.2,24.1z M465.1,18.9c10.2,0,19.9,0,29.7,0c0-1.7,0-3.3,0-4.8c-0.9,0-1.5,0-2.2,0c-0.6,1-1.3,2-1.9,3
		c-2.6,0-4.9,0-7.4,0c-0.6-1-1.3-2-2-2.9c-1,0-2,0-2.8,0c-0.6,1-1.2,2-1.7,2.8c-2.6,0-5.1,0-7.7,0c-0.6-1-1.1-1.9-1.6-2.7
		c-0.8,0-1.6,0-2.5,0C465.1,15.8,465.1,17.2,465.1,18.9z M466.1,49.8c9.3,0,18.5,0,27.8,0c0-1,0-1.7,0-2.7c-9.3,0-18.5,0-27.8,0
		C466.1,48.1,466.1,48.9,466.1,49.8z M497.9,52.2c-12,0-23.9,0-35.8,0c0,0.6,0,1.1,0,1.7c12,0,23.9,0,35.8,0
		C497.9,53.2,497.9,52.8,497.9,52.2z M468.6,22.4c0,0.2,0,0.3,0,0.5c7.7,0,15.5,0,23.2,0c-0.2-0.2-0.3-0.5-0.5-0.7
		c0.6-0.2,1.2-0.3,1.8-0.5c-0.1-0.2-0.3-0.3-0.4-0.5c-8.5,0-17.1,0-25.6,0c-0.1,0.2-0.2,0.3-0.3,0.5C467.4,21.9,468,22.1,468.6,22.4
		z M469.1,43.8c7.3,0,14.5,0,21.8,0c0-0.6,0-1.1,0-1.7c-7.3,0-14.5,0-21.8,0C469.1,42.8,469.1,43.2,469.1,43.8z"/>
	<path class="st2" d="M504.8,7.8c-0.6,0.6-1,0.9-1.6,1.5c-0.4-2.8,1.7-3.3,3.5-5.1c0.1,2.2,0.2,3.6,0.3,5c0,1.5,0,3,0,4.6
		c-0.5,0.1-1,0.3-1.8,0.5C505.1,12,504.9,10,504.8,7.8z"/>
	<circle class="st12" cx="160" cy="288" r="45.3"/>
	<circle class="st12" cx="96" cy="224" r="45.3"/>
	<path class="st1" d="M128,384c-21.3,0-42.7,0-64,0c0-21.3,0-42.7,0-64c21.3,0,42.7,0,64,0C128,341.3,128,362.7,128,384z M106,346.5
		c-1.4-1.9-2.7-3.7-4.1-5.4c0.6-1.3,1.7-2.4,0.7-4c-0.8-1.3-1.4-2.7-2.1-4c-1.1-0.4-2.1-0.9-3.1-1.1c-1.3-0.2-2.6,0-3.6,0
		c-1.1,0.6-2,1-2.8,1.4c-2.2,5.2-2.2,5.2-1.1,7.7c-1.3,1.8-2.7,3.5-4,5.2c0,6.9,0,6.9,2,10.3c-6.4,5.1-10,11.5-8.8,20.2
		c11.3,0,22.5,0,33.7,0c1.2-8.7-2.5-15.1-8.9-20.2C107,353.6,105.7,349.9,106,346.5z"/>
	<circle class="st12" cx="160" cy="160" r="45.3"/>
	<path class="st1" d="M64,64c21.3,0,42.7,0,64,0c0,21.3,0,42.7,0,64c-21.3,0-42.7,0-64,0C64,106.7,64,85.3,64,64z M88.1,100.5
		c-7.6,5.1-9.6,12.2-10.2,19.6c1,1.9,2.4,1.8,3.7,1.8c10.3,0,20.6,0,30.7,0c2-1.1,1.9-2.9,1.6-4.5c-1.4-6.7-3.5-13.2-10.3-17.2
		c3.6-1.2,1.5-4.6,3.4-6.3c-1.4-3-1.1-6.9-4.9-8.4c1.8-4.5,1-6.7-3.6-9.6c-4-0.2-7.9-0.5-9.5,5.4c0,0.5,0.3,2.1-0.1,3.5
		c-0.4,1.4-1.6,2.6-2.3,4c-0.4,0.7-0.4,1.5-0.6,2.2c-0.3,1-0.7,2.1-0.7,2.3c0.4,2.2,0.7,3.8,1,5.5C86.8,99.4,87.4,99.9,88.1,100.5z"
		/>
	<path class="st6" d="M48.8,122c-10.6,0-20.9,0-31.2,0c-1.3,0-2.7,0.1-3.7-1.8c0.6-7.6,2.7-14.9,10.2-19.6c-0.7-0.6-1.3-1.2-1.8-1.6
		c-0.3-1.7-0.6-3.2-1-5.4c0.1-0.2,0.6-1.2,0.7-2.3c0-1.3,0.4-2.1,1.3-3c0.7-0.8,1.1-1.8,1.8-3c0-1.4,0-3.1,0-3.9
		c1.6-5.8,5.6-5.5,9.5-5.3c4.5,2.8,5.4,5.1,3.6,9.6c3.8,1.5,3.5,5.5,4.7,8.1c-0.4,1.8-0.8,3.3-1.2,5.1c-0.3,0.3-0.9,0.9-1.6,1.6
		c0.3,0.3,0.5,0.7,0.8,1c4.5,2.8,6.8,7.1,8.1,12.1c0.5,2,0.8,4,1,6.1C50,120.3,49.2,121.2,48.8,122z M16.9,118.8
		c10.4,0,20.2,0,30.1,0c0.2-3.4-0.8-6.4-2-9.2c-1.7-4-5.2-6.6-9.2-8.3c1.6-2.1,2.9-3.9,4.2-5.6c0.6-4.4-1-7.5-4.6-9.1
		c0.3-2.2,0.6-4.2,0.9-6.2c-0.3,0.1-0.6,0.3-0.9,0.4c-0.6-1-1.2-2-1.6-2.7c-1.4,0-2.4,0-2.4,0c-1.5,1.1-2.5,1.8-3.2,2.3
		c0,1.3-0.1,2.4,0,3.3c0.2,1,0.7,1.9,1.1,2.8c-4.5,2.4-5.1,3.6-5,9.2c1.3,1.8,2.7,3.7,4.3,5.7C20,104.4,17.8,111,16.9,118.8z"/>
	<circle class="st12" cx="352" cy="224" r="45.3"/>
	<circle class="st12" cx="416" cy="288" r="45.3"/>
	<path class="st1" d="M503.1,269.8c0-0.6,0-1.1,0-1.6c1-0.1,1.9-0.3,2.8-0.4c0.1-0.5,0.1-0.8,0.2-1.5c-0.9-0.1-1.7-0.3-2.8-0.5
		c0-1.5,0-3,0-4.7c1.5,0,3,0,4.5,0c0.1,0.4,0.2,0.9,0.4,1.6c-1.1,0.2-2.1,0.4-3.6,0.7c1.7,0.8,3,1.3,4.3,1.9
		c0.1,1.5,0.8,3.2-1.5,4.5C506.3,269.8,504.7,269.8,503.1,269.8z"/>
	<path class="st1" d="M508.1,133.2c0.3,0.9,1.1,2.3,0.8,2.6c-1.8,1.8,2.1,4.7-1.9,6.2c-1.1,0-2.9,0-4.8,0c-0.1-0.5-0.2-0.9-0.4-1.7
		c1.3-0.1,2.6-0.3,4.2-0.5c-0.8-0.9-1.4-1.6-1.8-2.2c0.7-0.7,1.3-1.3,2.4-2.3c-1.6-0.2-2.5-0.4-3.5-0.5c0-0.6,0-1,0-1.6
		C504.6,133.2,506,133.2,508.1,133.2z"/>
	<path class="st2" d="M505.9,201.4c0,0.4,0,0.8,0,1.4c-0.6,0-1.2,0-1.7,0c-0.1-0.2-0.2-0.3-0.4-0.5
		C504.5,202,505.2,201.7,505.9,201.4z"/>
	<circle class="st12" cx="352" cy="352" r="45.3"/>
	<path class="st1" d="M448,448c-21.3,0-42.7,0-64,0c0-21.3,0-42.7,0-64c21.3,0,42.7,0,64,0C448,405.3,448,426.7,448,448z M421.9,405
		c3.1-3.2-1-5.2-1.2-8.2c-2.5-0.4-4.8-0.7-6.5-0.9c-1.5,0.8-2.3,1.2-3.1,1.6c-0.2,2.6-4.1,4.6-0.9,7.5c-1.5,2-2.8,3.7-4.2,5.6
		c0.2,3.4-0.9,7.1,2.1,10.1c-6.5,5.2-10.1,11.6-8.9,20.2c11.2,0,22.4,0,33.6,0c1.2-8.7-2.4-15.1-8.9-20.2c3-3,1.9-6.7,2.1-10.1
		C424.6,408.6,423.3,406.9,421.9,405z"/>
	<path class="st5" d="M474.1,405c-0.6-1.3-1.7-2.4-0.7-4c0.8-1.1,1.3-2.4,2-3.9c2.9-1.5,6-2.2,9.4,0.3c0.1,2.3,4.4,4.3,1.1,7.4
		c1.5,2,2.9,3.7,4.2,5.4c-0.2,3.5,0.8,7-2,10.2c6.3,5.2,10.1,11.6,8.8,20.4c-11.1,0-22.2,0-33.5,0c-1.5-8.6,2.3-15,8.8-20.3
		c-2-3.4-2-3.4-2-10C471.2,408.9,472.5,407.1,474.1,405z"/>
	<path class="st2" d="M502.1,390.8c0-0.6,0-1,0-1.6c2.2,0,4.3,0,6.9,0c-0.2,0.9-0.2,1.9-0.5,2.9c-0.4,1.3-1,2.6-1.4,3.9
		c-0.6,2-1.9,2.4-3.9,1.8c1-2,2-4,3.2-6.4C504.8,391.2,503.4,391,502.1,390.8z"/>
	<path class="st1" d="M505,330.1c0.8,0,1.2,0,1.8,0c0.1,0.5,0.2,1,0.3,1.5C505.8,332.3,504.9,332.3,505,330.1z"/>
	<path class="st1" d="M192,384c0,21.3,0,42.7,0,64c-21.3,0-42.7,0-64,0c0-21.3,0-42.7,0-64C149.3,384,170.7,384,192,384z
		 M176.8,440.7c1.2-8.4-2.4-14.9-8.8-20c0.6-1.2,1.2-2.2,1.9-3.5c0-7.5,0-7.5-3.7-11.7c0.2-1.6,0.7-3,0.4-4.3
		c-0.3-1.4-1.4-2.7-2.1-4c-3.1-1.8-6.3-1.7-9.4,0.1c-2.2,5.2-2.2,5.2-1.3,7.9c-1.4,1.9-2.7,3.7-4,5.4c0.3,3.5-0.8,7,2,9.8
		c-2.3,3-5.4,5.2-7.1,9c-1.8,3.9-1.8,7.6-1.8,11.6c11.4,0,22.3,0,33.3,0C176.5,441,176.6,440.8,176.8,440.7z"/>
	<path class="st10" d="M85,425c0.1-1.3-0.4-2.6,0.9-3.5c-1-1.6-2.1-3.1-2.8-4.8c-1.3-3.2-0.6-7.6,1.3-10.5c2.2-3.2,3.5-4.4,7.9-6.8
		c-0.4-1.3-0.8-2.6-1.3-4.2c0.6-1.2,1.4-2.5,2.2-4c1.9,0,3.7,0,5.8,0c0.6,1,1.4,2.4,2.3,3.8c-0.4,1.5-0.9,3-1.3,4.4
		c5.5,3,8.2,6.3,10,11.8c0.9,2.6-0.7,4.6-1.3,6.7c-0.4,1.3-1.6,2.3-2.4,3.5c1.4,0.9,0.9,2.3,1,3.5C99.7,425,92.3,425,85,425z
		 M99.9,407.8c-1.2,0-2,0-2.7,0c-0.2-1.1-0.3-2-0.4-2.8c-0.6,0-1,0.1-1.5,0.1c-0.1,0.9-0.3,1.8-0.4,2.7c-1,0.2-1.9,0.3-2.6,0.5
		c0,1,0,1.8,0,2.5c1.1,0.2,2,0.4,3,0.6c0,1,0,1.8,0,2.6c0.6,0,1.1-0.1,1.6-0.1c0.2-1,0.3-1.9,0.5-2.8c1-0.1,1.8-0.1,2.7-0.2
		C99.9,409.9,99.9,409.1,99.9,407.8z M88.1,421.8c5.3,0,10.5,0,15.8,0c0-0.6,0-1.1,0-1.6c-5.3,0-10.5,0-15.8,0
		C88.1,420.8,88.1,421.3,88.1,421.8z"/>
	<path class="st10" d="M108,427c0,0.7,0,1.3,0,2.5c-1.1,0.9-2.4,2-3.9,3.2c4.1,0.5,8.3,1,12.4,1.5c1.1,0.7,2.3,1.5,3.5,2.3
		c0,0.9,0,1.9,0,3c-0.4,0.1-0.8,0.3-1.3,0.4c-3.8,0.5-7.4-0.8-11-0.9c-7.8-0.2-15.6-0.2-23.4,0c-4,0.1-7.9,1.8-12.1,0.6
		c0-0.9,0-2.1,0-3.5c0.9-0.6,2.1-1.4,3-1.9c4.5-0.5,8.6-1,12.8-1.5c-1.4-1.1-2.8-2.1-4-3c0-1.1,0-1.9,0-2.7c1,0.3,2,0.9,3.1,1
		c6,0.1,11.9,0.1,17.9,0C106,427.9,107,427.3,108,427z"/>
	<path class="st8" d="M108,427c-1,0.3-2,0.9-3.1,1c-6,0.1-11.9,0.1-17.9,0c-1,0-2-0.6-3.1-1c0.2-0.8-0.5-1.9,1-2c7.3,0,14.7,0,22,0
		C108.5,425.1,107.8,426.2,108,427z"/>
	<ellipse class="st5" cx="32" cy="480.5" rx="18.4" ry="12"/>
	<path class="st7" d="M11,502c0-1.4-0.4-2.9,1.9-4c0.6,0,1.9,0,3.1,0c0.3,0,0.7,0,1,0c0.3,0.3,0.5,1,0.8,1c9.5,0.1,18.9,0.1,28.4,0
		c0.3,0,0.5-0.6,0.8-1c0.3,0,0.7,0,1,0c1.2,0,2.3,0,3.5,0c0.4,0.5,0.9,0.9,1.4,1.4c0,1.4,0,2.8,0,4.2c-0.5,0.5-0.8,0.8-1.3,1.3
		c-12.9,0-26,0-39.1,0c-0.4-0.6-1-1.2-1.5-1.9C11,502.7,11,502.3,11,502z"/>
	<path class="st10" d="M15,467c0-2.2,0-4.3,0-6.7c2.1,0,4.2,0,6.8,0c0.2,0.3,0.8,1.1,1.1,1.6c1.6,0,2.8,0,3.8,0
		c0.2-0.6,0.3-1.1,0.4-1.7c3.1,0,6.2,0,9.5,0c0.1,0.4,0.3,0.9,0.6,1.7c1.1,0,2.2,0,3.4,0c0.5-0.5,1.1-1.1,1.8-1.8c2,0,4.1,0,6.6,0
		c0,2.3,0,4.6,0,6.9C37.7,467,26.3,467,15,467z"/>
	<path class="st9" d="M48,498c-0.3,0-0.7,0-1,0c-10,0-20,0-30,0c-0.3,0-0.7,0-1,0c0-1.9,0-3.8,0-6c0.8,0,1.4,0,2,0
		c0.3,0.3,0.5,1,0.8,1c8.8,0.1,17.6,0.1,26.4,0c0.3,0,0.5-0.6,0.8-1c0.5,0,1,0,1.7,0C48.3,493.9,47.9,496,48,498z"/>
	<path class="st2" d="M15,467c11.3,0,22.7,0,34,0c-0.3,0.7-0.7,1.3-1,2c-10.7,0-21.3,0-32,0C15.7,468.3,15.3,467.7,15,467z"/>
	<path class="st10" d="M16,469c10.7,0,21.3,0,32,0c-0.4,1.6-1.4,2.2-3,2c-8.7,0-17.3,0-26,0C17.4,471.2,16.4,470.6,16,469z"/>
	<path class="st2" d="M19,489c8.7,0,17.3,0,26,0c0,0.3,0,0.7,0,1c-0.3,0.3-0.5,1-0.8,1c-8.1,0.1-16.3,0.1-24.4,0
		c-0.3,0-0.5-0.6-0.8-1C19,489.7,19,489.3,19,489z"/>
	<path class="st1" d="M11,502c0,0.3,0,0.7,0,1c0,1.6,0,3.2,0,4.9c-0.8,0-1.2,0-2,0c0-1.6,0-3.2,0-4.9c-0.8,0-1.2,0.1-2,0.1
		c0,1.6,0,3.2,0,4.7c-0.7,0.1-1,0.1-1.7,0.2c-0.5-3-0.1-6-0.3-10c1.3,1.3,1.8,1.8,2.7,2.7C8.4,501,9.7,501.5,11,502z"/>
	<path class="st5" d="M19,490c0.3,0.3,0.5,1,0.8,1c8.1,0.1,16.3,0.1,24.4,0c0.3,0,0.5-0.6,0.8-1c1.5,0.1,0.8,1.2,1,2
		c-9.3,0-18.7,0-28,0C18.2,491.2,17.5,490.1,19,490z"/>
	<ellipse class="st13" cx="32" cy="471.5" rx="18.4" ry="0.7"/>
	<circle class="st12" cx="288" cy="416" r="45.3"/>
	<path class="st5" d="M344,420.5c-2.8-2.9-1.8-6.4-2-10c1.2-1.6,2.5-3.4,4-5.4c-2.7-2.9,0.6-5.1,1.2-7.8c3.1-1.9,6.3-1.8,9.6,0
		c0.4,2.6,4.2,4.7,0.9,8c4.6,3.1,4.7,7.6,4.3,11.9c-0.6,1.2-1.1,2.1-1.8,3.4c6.1,5.2,10.1,11.5,8.6,20.2c-11.1,0-22.2,0-33.3,0
		C334.3,432,335.6,428.9,344,420.5z"/>
	<path class="st10" d="M434,505c-5.1,0-10.3-0.2-15.4,0.1c-4.9,0.3-9.5-1.7-14.4-1c-0.1-1.7-0.1-2.9,0.6-4.4c1.8-3.8,4-7.2,7.1-10
		c2.3-2.1,3.5-4.5,3.1-7.7c0,0,0.1,0.1,0.1,0.1c0.3-0.2,0.5-0.5,0.8-0.7c-0.1-0.1-0.2-0.2-0.3-0.3c-0.2,0.3-0.5,0.5-0.6,0.9
		c-4.9,3.3-9.7,6.7-13.4,11.1c-2.6-0.5-4.7-0.9-7.9-1.6c-1.5-0.5-1.7-3.1-2.5-5.1c-0.7-1.9,0.8-3.8,1.6-5.7c2.3-5.8,6-10.8,9.2-16.5
		c0-1.7,0-3.6,0-5.8c0.5-0.5,1-1.1,1.8-2c1.7,1.6,3.2,3,5,4.7c0.5-0.4,1.5-0.7,1.7-1.3c0.6-1.9,2.3-2.2,4.2-3.1
		c0.6,1.3,1.1,2.5,1.9,4c1.1,0.5,2.6,1.5,4.5,1.2c0,0.3,0,0.7,0,1c-0.9,0-1.9,0-2.9,0c0,0.8,0,1.2,0,1.7c6.2,2.2,10.4,6.3,12.9,12.3
		c1.6,3.9,2.7,8,2.9,12.2c0.2,4.9,0.1,9.9,0.1,14.9C434,504.3,434,504.7,434,505z M402.2,472.9c2.6,0.6,3.5-1.2,4.6-2.3
		c0-1.2,0-2.4,0-3.6c-0.9,0-1.7,0-2.6,0C402.9,468.7,401.5,470.3,402.2,472.9z M395.2,485.8c2.2,0.5,3.3-0.2,3.9-2.1
		c-0.5-0.8-1-1.5-1.4-2C395.2,482.6,394.7,483.9,395.2,485.8z"/>
	<path class="st11" d="M434,504c0-5,0.2-9.9-0.1-14.9c-0.2-4.2-1.3-8.2-2.9-12.2c-2.5-6-6.7-10.1-12.9-12.3c0-0.5,0-0.9,0-1.7
		c1,0,2,0,2.9,0c0.3,0,0.7,0,1,0c0.1,1.5,1.2,0.8,2,1c0.1,1.5,1.2,0.8,2,1c0.3,0.3,0.7,0.7,1,1c0.1,1.5,1.2,0.8,2,1
		c0.3,0.3,0.7,0.7,1,1s0.7,0.7,1,1c0.2,0.8-0.5,1.9,1,2c0,0.5-0.2,1.1,0,1.5c3.6,6.4,5,13.3,5,20.5c0,3.7,0,7.3,0,11
		c-0.3,0-0.7,0-1,0C435.3,504,434.7,504,434,504z"/>
	<path class="st9" d="M437,493c0.1-7.3-1.4-14.2-5-20.5c-0.2-0.4,0-1,0-1.5c0.5,0,1,0,1.6,0c1.1,2.5,3.1,4.9,3.2,7.5
		c0.2,5,3,9.5,2.2,14.5C438.3,493,437.7,493,437,493z"/>
	<path class="st1" d="M388.2,507.7c0-2.9,0-5.7,0-9.4c1,1,1.6,1.5,2.5,2.4c0.7,0.2,1.9,0.7,3.2,1.1c0,1.8,0,3.3,0,4.7
		C392,508,392,508,388.2,507.7z M391.8,505.9c0-1,0-1.8,0-2.8c-0.6,0-1,0-1.7,0c0,1,0,1.8,0,2.8
		C390.8,505.9,391.2,505.9,391.8,505.9z"/>
	<path class="st5" d="M437,493c0.7,0,1.3,0,2,0c0,3.6,0,7.1,0,11c-0.8,0-1.4,0-2,0C437,500.3,437,496.7,437,493z"/>
	<path class="st9" d="M429,467c-0.8-0.2-1.9,0.5-2-1C427.8,466.2,428.9,465.5,429,467z"/>
	<path class="st9" d="M426,465c-0.8-0.2-1.9,0.5-2-1C424.8,464.2,425.9,463.5,426,465z"/>
	<path class="st9" d="M424,464c-0.8-0.2-1.9,0.5-2-1C422.8,463.2,423.9,462.5,424,464z"/>
	<path class="st9" d="M432,471c-1.5-0.1-0.8-1.2-1-2C432.5,469.1,431.8,470.2,432,471z"/>
	<path class="st9" d="M434,504c0.7,0,1.3,0,2,0c-0.1,1.5-1.2,0.8-2,1C434,504.7,434,504.3,434,504z"/>
	<path class="st9" d="M427,466c-0.3-0.3-0.7-0.7-1-1C426.3,465.3,426.7,465.7,427,466z"/>
	<path class="st9" d="M431,469c-0.3-0.3-0.7-0.7-1-1C430.3,468.3,430.7,468.7,431,469z"/>
	<path class="st9" d="M422,463c-0.3,0-0.7,0-1,0c0-0.3,0-0.7,0-1C421.3,462.3,421.7,462.7,422,463z"/>
	<path class="st10" d="M271,489c-1.5,0.2-2.8-0.5-2.9-1.9c-0.2-1.9-1.2-3.5-1.2-5.6c-0.1-2.6-0.6-5.3-1.5-7.8
		c-0.5-1.3-0.3-2.9-0.4-4.3c-1.3-0.5-2.6-0.9-3.8-1.4c0-2.1,0-3.7,0-5.4c2-1.9,4.2-2.3,6.8-0.1c0,2.2,0,4.6,0,6.5
		c1.2,2.1,2.1,3.7,3.2,5.3c1,1.6,2.2,3.1,3.8,5.2c0.5-4.9,0.1-9.3,0.3-13.8c-1.1-0.9-2.2-1.8-3-2.4c0-2,0-3.3,0-4.6
		c1.2-2.4,3.4-1.5,5.5-1.7c0.6,0.8,1.3,1.7,2.3,3c0,0.4,0,1.3,0,2.5c-0.6,0.7-1.3,1.5-2,2.3c1.9,4.5,3.7,8.9,5.5,13.2
		c0.1-5.1,3.5-9.5,2.6-14.6c-0.6-0.6-1.2-1.2-1.8-1.8c0-1.4,0-2.9,0-4.4c1.2-0.7,2.4-1.5,3.8-2.3c1.3,0.7,2.6,1.5,4,2.3
		c0,1.6,0,3,0,4.4c-0.6,0.6-1.2,1.2-1.8,1.8c-0.9,5.1,2.5,9.5,2.6,14.6c1.8-4.4,3.6-8.7,5.6-13.6c-0.7-0.4-1.6-0.8-2.2-1.1
		c0-1.6,0-2.6,0-4c0.6-0.4,1.5-1.1,3-2.2c0.7,0,2.1,0,3.8,0c0.5,1.6,0.9,3.3,1.5,5.1c-1.4,0.9-2.6,1.7-3.2,2.1c0,5.5,0,10,0,15.5
		c2.6-3.9,4.7-7.1,6.9-10.3c0-2.3,0-4.6,0-6.9c2.2-3.1,4.5-1.2,6.9-0.3c0,1.7,0,3.5,0,5.7c-1,0.4-2.2,0.9-3.7,1.4
		c0.1-0.1-0.2,0.1-0.2,0.4c-0.4,2.9-0.2,5.9-1.2,8.5c-0.5,1.4-0.6,2.8-0.8,4.2c-0.3,1.7-0.5,3.4-1.1,5c-0.4,1-1.5,1.8-2.8,1.4
		c-0.3-0.3-0.5-0.9-0.8-1c-3.9-1.1-7.8-2.3-11.7-3c-5-0.8-10,0.4-15,1C275.7,487.9,272.4,486.3,271,489z"/>
	<path class="st7" d="M303,494c1.5,0.1,0.8,1.2,1,2c-0.9,0.1-1.9,0.1-2.8,0.4c-1.9,0.5-3.8,1.5-5.7,1.6c-7.9,0.1-15.8,0.7-23.4-1.9
		c0.2-0.8-0.5-1.9,1-2C283,494,293,494,303,494z"/>
	<path class="st7" d="M273,492c-1.5-0.1-0.8-1.2-1-2c2.9,0,5.4-1.7,8.1-1.9c4.8-0.4,9.6,0,14.3-0.2c1.4,0,2.4,0.7,3.6,1
		c2,0.5,4,0.7,6,1c-0.2,0.8,0.5,1.9-1,2C293,492,283,492,273,492z"/>
	<path class="st6" d="M305,498c1.5,0.1,0.8,1.2,1,2c-2.8,0.7-5.8,1.1-8.5,2.2c-1.1,0.4-2,0.8-3.1,0.8c-4.3,0-8.6,0-12.9,0
		c-0.8,0-1.6-0.1-2.3-0.3c-3-0.9-6-2-9.2-1.7c0-0.3,0-0.7,0-1c0.4-1-0.9-2.5,1-3c0.3,0.3,0.4,0.8,0.8,1c4.8,2.3,10.1,1.9,15.1,2.9
		c2.1,0.4,4.4-0.6,6.5-0.7C297.5,500,301.1,498.7,305,498z"/>
	<path class="st8" d="M304,490c-2-0.3-4-0.5-6-1c-1.2-0.3-2.2-1.1-3.6-1c-4.8,0.2-9.6-0.2-14.3,0.2c-2.7,0.2-5.2,1.9-8.1,1.9
		c-0.3-0.3-0.7-0.7-1-1c1.4-2.7,4.7-1.1,6.5-3c5-0.6,10-1.7,15-1c4,0.6,7.8,1.9,11.7,3c0.3,0.1,0.5,0.6,0.8,1
		C304.7,489.3,304.3,489.7,304,490z"/>
	<path class="st8" d="M305,498c-3.9,0.7-7.5,2-11.6,2.2c-2.1,0.1-4.4,1.1-6.5,0.7c-5-1-10.4-0.6-15.1-2.9c-0.3-0.2-0.5-0.6-0.8-1
		c0.3-0.3,0.7-0.7,1-1c7.6,2.6,15.6,2,23.4,1.9c1.9,0,3.8-1.1,5.7-1.6c0.9-0.2,1.9-0.2,2.8-0.4C305.5,496.1,304.8,497.2,305,498z"/>
	<path class="st11" d="M270,501c3.2-0.3,6.2,0.7,9.2,1.7c0.7,0.2,1.6,0.3,2.3,0.3c4.3,0,8.6,0,12.9,0c1.1,0,2.1-0.4,3.1-0.8
		c2.7-1.1,5.6-1.5,8.5-2.2c-0.4,1,0.9,2.5-1,3c-2.5,0-5.1-0.1-7,2c-0.3,0-0.7,0-1,0c-1.7,0-3.3,0-5,0c-2.7,0-5.3,0-8,0
		c-1.7,0-3.3,0-5,0c-0.3,0-0.7,0-1,0c-1.9-2.1-4.5-2-7-2c-0.3-0.3-0.7-0.7-1-1C270,501.7,270,501.3,270,501z"/>
	<ellipse class="st8" cx="288" cy="493" rx="21.2" ry="1.4"/>
	<path class="st1" d="M265.8,507.9c-2,0-3.7,0-5.5,0c-0.3-1.1-0.6-2.2-1-3.7c0.4-0.7,1.1-1.9,1.8-3.1c0.9-0.1,1.7-0.2,2-0.2
		c0.9-0.9,1.5-1.5,2.7-2.7C265.8,501.9,265.8,504.7,265.8,507.9z M263.5,502.9c-0.4,0-0.8,0.1-1.2,0.1c0,1,0,2,0,3.1
		c0.7-0.1,1.2-0.2,1.9-0.4C263.9,504.7,263.7,503.8,263.5,502.9z"/>
	<path class="st9" d="M284,505c2.7,0,5.3,0,8,0c0,0.3,0,0.7,0,1c-0.3,0.3-0.5,0.9-0.8,1c-2.1,0.1-4.3,0.1-6.4,0
		c-0.3,0-0.5-0.6-0.8-1C284,505.7,284,505.3,284,505z"/>
	<path class="st9" d="M271,503c2.5,0,5.1-0.1,7,2C275.5,504.9,272.8,505.6,271,503z"/>
	<path class="st9" d="M298,505c1.9-2.1,4.5-2,7-2C303.2,505.6,300.5,504.9,298,505z"/>
	<ellipse class="st7" cx="281.5" cy="505.5" rx="3.5" ry="0.7"/>
	<ellipse class="st7" cx="294.5" cy="505.5" rx="3.5" ry="0.7"/>
	<path class="st9" d="M270,501c0,0.3,0,0.7,0,1c-0.3-0.4-0.7-0.8-1-1.2c0.3-0.3,0.7-0.5,1-0.8C270,500.3,270,500.7,270,501z"/>
	<path class="st9" d="M270,502c0.3,0.3,0.7,0.7,1,1C270.7,502.7,270.3,502.3,270,502z"/>
	<path class="st9" d="M279,505c0,0.3,0,0.7,0,1c-0.3-0.3-0.7-0.7-1-1C278.3,505,278.7,505,279,505z"/>
	<path class="st9" d="M297,506c0-0.3,0-0.7,0-1c0.3,0,0.7,0,1,0C297.7,505.3,297.3,505.7,297,506z"/>
	<path class="st8" d="M348.2,472.1c1-0.1,1.7-0.2,2.7-0.3c0-0.8,0.1-1.6,0.1-2.5c0.4-0.1,0.8-0.3,1.7-0.5c0.2,1,0.3,1.9,0.5,3
		c0.7,0,1.5,0,2.6,0c0.1,1.1,0.2,2,0.3,3c-1,0-1.8,0-2.8,0c-0.2,1.1-0.3,2-0.5,3c-0.5,0-0.9,0.1-1.6,0.2c0-0.9,0-1.6,0-2.7
		c-1.1-0.2-2-0.3-3-0.5C348.2,474.1,348.2,473.3,348.2,472.1z"/>
	<path class="st13" d="M359.9,484.2c0,0.6,0,1,0,1.7c-5.3,0-10.5,0-15.8,0c0-0.6,0-1,0-1.7C349.4,484.2,354.6,484.2,359.9,484.2z"/>
	<circle class="st12" cx="224" cy="96" r="45.3"/>
	<path class="st6" d="M178.1,120.4c-0.8,0.8-1.2,1.2-1.5,1.5c-11.1,0-22.2,0-33.2,0c-0.5-0.5-0.8-0.8-1.5-1.5
		c0.5-7.9,2.8-15.1,10-19.9c-0.7-0.7-1.3-1.4-1.8-1.9c-0.3-1.7-0.5-3-0.9-5.2c0.8-2.2,1.1-5.6,3.7-8c0-1.7,0-3.3,0-5.4
		c1.3-1.3,2.8-2.8,4.1-4.1c2.1,0,3.8,0,5.4,0c4.6,2.9,5.5,5.3,3.6,9.6c3.8,1.5,3.5,5.5,4.9,8.4c-1.9,1.8,0.1,5.2-3.2,6.4
		C175.3,105.3,177.3,112.5,178.1,120.4z M175.2,118.9c-1-8-3.3-14.6-11.8-17.5c2.7-3.1,5.6-5.7,4.2-10.8c-1.1-1.1-2.8-2.9-4.2-4.3
		c0.3-2,0.6-3.8,0.8-5.5c-1-1-1.9-1.9-2.7-2.7c-1,0-2,0-3,0c-0.8,0.8-1.6,1.6-2.8,2.8c0.3,1.7,0.7,3.8,1.1,5.8
		c-2.4,0.7-3.7,2.7-4.9,5.6c-1.1,3.5,1.8,6.2,4.6,9.2c-3.9,1.4-6.7,3.6-8.6,6.8c-2,3.3-2.7,6.8-3,10.7
		C155.1,118.9,164.9,118.9,175.2,118.9z"/>
	<path class="st6" d="M240,43.5c0,3.2,0,6,0,8.8c-1.7,3-5,3-7.8,3.9c-4,1.3-9.6,2.5-12.2,1.6c-4.2-1.4-9-1.2-12.9-4.9
		c0-3,0-6.8,0-10.5c-3.1-1.1-4.6-3.9-6.8-5.6c-1.2-5.4-1.2-5.4-0.1-10.8c1.9-1.7,4-3.5,5.7-5c4.7-0.7,8.1,1.5,12.1,2.7
		c-0.2-3.7,1.1-6.7,5-8.2c0-0.7,0-1.5,0-2.2c-2.6-0.6-2.6-0.6-4.1-3.1c1.4-0.1,2.6-0.3,4-0.4c0.1-0.9,0.3-1.8,0.4-2.8
		c0.6,0,1,0,1.6,0c0,0.9,0,1.7,0,2.6c1.1,0.2,2,0.3,3,0.5c0,0.8,0,1.6,0,2.6c-0.8,0.1-1.8,0.3-2.8,0.4c0,0.7-0.1,1.3-0.1,2.2
		c3.3,1.3,5,3.9,5.2,7.8c2-0.5,3.9-0.7,5.5-1.5c1.8-0.9,3.5-1,5.1-0.3c2.2,1.1,4.8,1.9,6.2,4.2c0.7,1.2,1.3,2.4,1.8,3.7
		c0.8,2.3,0.3,4.6-1.1,6.3c-1.7,2.1-2.7,5.1-5.8,6.1C241.2,41.9,240.7,42.8,240,43.5z M246,33.5c0-1.7,0-3.3,0-5
		c-4.1-4.1-6.4-5.3-10-4.5c-5.1,1.2-9.2,4-10.9,9.3c0,1.4,0,2.9,0,4.5c2.9,0.5,5.7,0.9,8.6,1.4c1.2,0.6,2.6,1.2,3.7,1.8
		C241.9,39.1,242.6,38.6,246,33.5z M223,33.9c-0.9-1.4-1.4-2.2-2-3c-1.6-2.2-3.3-4.3-6-5.4c-5.1-2-10.2-3.3-12.9,3.1
		c0,2.2,0,4.2,0,5.7c1.8,3.2,4.6,4.6,6.6,7c4.6-2.9,9.8-1.8,14.3-3.7C223,36.2,223,34.9,223,33.9z M236.8,43.3
		c-2.9-1.2-5.9-2.8-9.3-2.3c-0.7,0.1-1.6,0.3-2,0c-1.8-1.5-3.3-0.9-5.3-0.1c-1.8,0.8-4.1,0.4-6.2,0.6c-0.6,0.1-1.2,0.3-1.8,0.5
		c-2.1,0.8-2.9,1.9-2.8,4.5c4.2-3.1,9-2.5,13.6-2.4c4.6,0,9.3-0.6,13.7,1.9C236.8,45,236.8,44.2,236.8,43.3z M208.7,51.8
		c5-3.3,9.7-2.7,14.3-2.8c1.3,0,2.7,0,4,0c2.4,0.1,4.8-0.4,7.1,0.9c0.7,0.4,1.9-0.2,4-0.5c-1.9-1.2-2.9-2.1-3.9-2.4
		c-2-0.5-4-0.7-6.1-1.1c-1.7-0.3-3.4-0.9-5.1-0.9c-1.2,0-2.4,0.8-3.6,0.9c-1.5,0.2-3.2-0.4-4.5,0.1C212.7,47,209.5,47.1,208.7,51.8z
		 M235.1,52.4c-13.7-3.5-12.3-2.2-24.7,0.1c2.8,0.9,5.1,2.2,7.4,2.3c5.2,0.2,10.4,0.8,15.5-0.9C234,53.7,234.4,53,235.1,52.4z
		 M219.4,23.6c2.3,2.2,1.9,5.5,4.9,6.5c1.8-2.3,3-4.8,3.7-7.5c-1.3-1.7-1.7-4.2-4.7-4.8C222.1,19.6,220.9,21.4,219.4,23.6z"/>
	<path class="st9" d="M119,56.9c-11.5,0-22.6,0-33.6,0c-1.8-1.4-1.6-3-1-4.9c0.9-3.4,3.4-5.7,5.4-8.2c1.3-1.6,2.6-3.3,3.9-4.8
		c1.4-1.7,1.4-3.1,1-5c-4.2,4-9.7,6.1-13,11.2c-2.4-0.5-4.7-0.9-7.8-1.5c0.1,0.1-0.3-0.5-0.7-1c-2.8-3.5-2.9-4.8-0.5-9.9
		c2.3-4.9,4.4-10,8.1-14.1c0.5-0.5,0.6-1.4,1.2-2.7c0-1.3,0-3.3,0-5.4c0.6-0.6,1.3-1.2,2.2-1.9c1.7,1.7,3.2,3.2,4.7,4.7
		c1.4-1.7,2.6-3.1,4-4.8c1.1,0.6,2.5,1,2.8,1.8c1,2.6,3,3.1,5.4,3.8c8.5,2.3,14.2,10.5,16.1,18.3C119.2,40.4,118.9,48.4,119,56.9z
		 M85,13c0,0.3,0,0.7,0,1c-0.3,1.5-0.6,3-1,4.8c0.9,0.1,1.8,0.3,2.8,0.5c0,1.2,0,2.3,0,3.1c-0.9,1-1.6,1.9-2.3,2.7
		c-0.9-0.1-1.7-0.1-2.5-0.1c0-0.8,0.1-1.3,0-1.8c-0.1-0.4-0.3-0.7-0.6-1.4c-2.3,4.1-4.5,7.9-6.9,12.1c2,0.2,4.2-0.1,4.5,2.6
		c-0.9,1.3-2,2.3-3.9,1.3c-0.1-0.9-0.3-1.8-0.4-2.6c-0.2,0-0.4,0-0.5,0c0,1.6,0,3.1,0,5.1c1.1,0.3,2.3,0.6,3.4,0.9
		c0.3-1,0.6-1.5,0.7-2c0.9,0,1.7,0,2.5,0c0.2,1,0.3,2,0.5,3c2.8-2.3,5-4.8,7.8-6.9c3.4-2.6,7.2-5.2,8.2-9.9c0-0.2,0.8-0.2,1.7-0.4
		c-0.4,4-0.9,7.8-1.3,12.2c-0.8,1.3-2.2,3-3.1,5c-1,2.2-2.6,3.7-4.3,5.2C88,49,87.8,51.4,86.8,54c10.2,0,19.8,0,29.4,0
		c0.1,0,0.3-0.1,0.4-0.1c0.1-0.1,0.2-0.2,0.5-0.5c-0.7-3.4,0.9-7.1-1.1-10.5c0.6-4.3-1.1-8.2-2-12.2c-1-4.2-3.2-8.1-6.6-10.6
		c-3.5-2.6-7.4-4.9-12.3-4c-0.6-1.5-1.1-2.8-1.6-4.3c-0.7,1.1-1.3,2-2,3.2c-1.3,0-2.9,0-4.6,0c-0.3,0-0.5-0.6-0.8-1
		c-0.3-0.3-0.7-0.7-1.1-0.9C85,13,85,13,85.1,12.9c-0.2-0.3-0.5-0.5-0.7-0.8c-0.1,0.1-0.2,0.2-0.3,0.3C84.4,12.6,84.6,12.9,85,13z"
		/>
	<path class="st11" d="M160,52.2c-1,0.3-2.1,0.7-3.1,0.8c-2.5,0.1-5,0-7.5,0c-2.6,0-5.2-0.4-7.6,0.9c-0.6,0.3-1.6,0.1-2.8-0.5
		c0.9-0.1,1.7-0.2,2.6-0.2c-0.4-0.3-0.7-0.7-1.1-1c5-0.4,10.1-0.5,15-1.3c2-0.3,4.2-1.5,6.1-0.7c3,1.2,6.3,0,9,1.1
		c3.1,1.3,6.2,0.1,9.2,0.9c0.4,0.4,0.8,0.9,1.7,1.8c-1.1,0-1.8,0.2-2.3,0c-5.3-1.7-10.7-0.7-16.1-1C162.1,52.9,161.2,52.5,160,52.2z
		"/>
	<path class="st11" d="M153.3,38c4.7,0,8.8,0,13.2,0c0.8,0.9,1.8,2,2.7,3c-0.4,0.5-0.6,1-0.7,1c-5.8,0-11.6,0-18.3,0
		C151.6,40.2,152.4,39.2,153.3,38z"/>
	<path class="st13" d="M161.9,9.2c0,1.3,0,2.4,0,3.5c-0.2-0.2-0.4-0.4-0.6-0.6c-0.3,0.8-0.7,1.5-1.5,3.4c-0.5-1.9-0.8-2.7-1-3.6
		c-0.2,0.2-0.5,0.5-0.7,0.7c0-1.1,0-2.2,0-3.5C159.3,9.2,160.4,9.2,161.9,9.2z"/>
	<path class="st2" d="M135.2,499.2c1.4,0,2.5,0,4.1,0c-0.8,1.7-1.4,3-2.4,5.1c0,0.7,0,2.1,0,3.7c-1,0-1.7,0-2.6,0
		c-1-1.7,0.7-4-1.3-5.4C133.8,501.3,134.6,500.1,135.2,499.2z"/>
	<circle class="st12" cx="224" cy="352" r="45.3"/>
	<path class="st5" d="M216.1,420.6c-2.9-3-1.9-6.5-2.1-10c1.2-1.6,2.5-3.4,4-5.5c-2.8-2.8,0.5-5.1,1.2-7.8c3.1-1.8,6.3-1.9,9.4-0.1
		c0.7,1.4,1.8,2.6,2.1,4.1c0.3,1.2-0.2,2.6-0.4,4.4c4,2.7,4.1,7.2,3.7,11.6c-0.6,1.1-1.1,2.1-1.8,3.4c6.1,5.1,10,11.5,8.7,20.2
		c-11.2,0-22.3,0-33.6,0C205.8,432.4,209.4,426.1,216.1,420.6z"/>
	<path class="st10" d="M237.5,488.8c-4.5-1.1-8.4-2.1-12.6-3.1c0.8-4.1,2.3-7.6,6.4-9.7c3.6-1.8,7-4.3,11.3-2
		c0.8,0.8,1.6,1.6,2.2,2.2C246.4,483.1,241.8,486,237.5,488.8z"/>
	<path class="st10" d="M223,485.6c-3.6,1.4-7.3,1-10.8,2.3c-1.9,0.7-4.1-0.2-5.6-1.8c-1.2-1.2-2.3-2.3-3.6-3.6c0-1.9,0-3.9,0-6.4
		c0.3-0.3,1-0.8,1.6-1.3c2.3-1.7,4.3-2,7.4-1c5.3,1.6,8.7,4.7,10.8,9.6C223.1,484,223,484.9,223,485.6z"/>
	<path class="st1" d="M199.8,506.5c-0.5-0.2-1.2-0.6-2.6-1.2c1.4-0.2,1.9-0.3,2.6-0.4C199.8,505.7,199.8,506.3,199.8,506.5z"/>
	<circle class="st12" cx="288" cy="160" r="45.3"/>
	<path class="st11" d="M303.1,37.5c0.7,0.4,1.4,0.8,2.4,1.4c-0.8,0.9-1.3,1.4-1.9,2.1c-10.4,0-20.8,0-31.2,0
		c-0.6-0.6-1.1-1.2-2.1-2.3c1.2-0.4,2-0.7,2.8-1c-0.2-0.2-0.4-0.5-0.6-0.7c2.8,0,5.9,0.7,8.4-0.2c3.3-1.1,6.4-0.7,9.6-0.8
		c2.2,0,4.4,0.7,6.6,0.9c2.1,0.2,4.3,0,6.5,0C303.4,37.2,303.2,37.3,303.1,37.5z"/>
	<path class="st11" d="M301.9,43.2c0,0.9,0,1.7,0,2.9c-4.7-0.5-9.3,0.7-14.3-0.9c-2.3,1-5.6,1.2-13.5,0.5c0-0.5-0.1-0.9-0.1-1.4
		c0-0.3,0.1-0.6,0.2-1.1C283.4,43.2,292.6,43.2,301.9,43.2z"/>
	<path class="st13" d="M291.1,33.9c-2,0-3.8,0-6,0c0.8-4.2,1.6-8.5,2.4-12.7c0.3,0,0.6-0.1,1.2-0.1
		C289.4,25.2,290.2,29.4,291.1,33.9z"/>
	<path class="st13" d="M277.6,22c1.5,3.8,3,7.5,4.5,11.5c-1.7,0.5-3.2,1-5,1.6c0-4.5,0-8.7,0-12.9C277.3,22.1,277.5,22.1,277.6,22z"
		/>
	<path class="st13" d="M298.8,21.5c0,4.5,0,8.4,0,12.4c-1.5,0-3,0-4.9,0C295.5,29.8,297,26,298.8,21.5z"/>
	<path class="st13" d="M269.2,27.2c1.9,2.9,3.4,5.1,5,7.6c-1.7,0-3.2,0-5,0C269.2,32.5,269.2,30.3,269.2,27.2z"/>
	<path class="st13" d="M307,27.4c0,2.4,0,4.2,0,5.9c-1.1,1.9-2.8,1.9-5,1.4C303.4,32.2,304.8,29.8,307,27.4z"/>
	<path class="st2" d="M276.1,9.4c0.9,1,1.5,1.6,2.2,2.4c-0.6,0.8-1.2,1.5-2,2.5c-0.9-0.7-1.7-1.3-2.9-2.2
		C274.4,11.2,275,10.5,276.1,9.4z"/>
	<path class="st8" d="M310.3,14.8c2.5,0.5,3.1,1.8,2.5,4c-0.8,0-1.5,0-2.5,0C310.3,17.7,310.3,16.3,310.3,14.8z"/>
	<path class="st8" d="M265.8,14.8c0,1.6,0,2.8,0,4.3c-1.1-0.2-2.6-0.3-2.7-0.7C262.6,16.7,263.3,15.4,265.8,14.8z"/>
	<path class="st8" d="M302.9,13.8c-2.3,0-3.5,0-4.7,0c-0.6-1.8,0.7-2.2,2-3.2C300.9,11.5,301.6,12.3,302.9,13.8z"/>
	<path class="st11" d="M288,8.4c1,1.2,1.6,1.9,2.8,3.3c-2,0.2-3.3,0.3-5.5,0.4C286.4,10.5,287,9.6,288,8.4z"/>
	<path class="st4" d="M308.2,25.6c-0.3,1.2-0.5,1.8-0.7,2.4c-0.2-0.5-0.4-0.9-0.4-1.4C307,26.5,307.4,26.3,308.2,25.6z"/>
	<path class="st4" d="M268.2,28c-0.1-0.6-0.1-1.3-0.2-1.9c0.2,0,0.4-0.1,0.6-0.1c0.1,0.6,0.3,1.3,0.4,1.9
		C268.8,28,268.5,28,268.2,28z"/>
	<path class="st8" d="M84,467.1c1.2,0,2,0,2.9,0c0,1.2,0,2.3,0,3.5c-0.8,0.8-1.6,1.6-2.4,2.4c-0.6,0-1.3,0-2.1,0
		c-0.1-0.4-0.4-1-0.3-1.3C82.6,470.1,83.3,468.6,84,467.1z"/>
	<path class="st8" d="M79.5,484.5c-1.5,0.7-2.6,1.3-3.8,1.9c-1.3-2.4-0.5-3.6,1.9-4.8C78,482.2,78.5,483,79.5,484.5z"/>
	<path class="st1" d="M94.9,481.9c0.2-0.3,0.5-0.5,0.7-0.8c0.1,0.1,0.2,0.2,0.3,0.3c-0.3,0.2-0.5,0.5-0.8,0.7
		C95,482,95,482,94.9,481.9z"/>
	<path class="st2" d="M74.5,503.3c-0.6,1.5-1,2.6-1.8,4.6c-0.9-2-1.5-3.1-2.2-4.6C72,503.3,73,503.3,74.5,503.3z"/>
	<ellipse class="st5" cx="480" cy="480.5" rx="18.4" ry="12"/>
	<path class="st6" d="M496,498c1.2,0,2.3,0,3.5,0c0.5,0.5,0.9,0.9,1.5,1.5c-0.2,1.8,0.8,3.9-1.4,5.4c-13,0-26.1,0-39.1,0
		c-2.3-1.5-1.3-3.6-1.4-5.4c0.5-0.5,1-1,1.5-1.5c1.2,0,2.3,0,3.5,0c0.3,0,0.7,0,1,0c0.3,0.3,0.5,1,0.8,1c9.5,0.1,18.9,0.1,28.4,0
		c0.3,0,0.5-0.6,0.8-1C495.3,498,495.7,498,496,498z"/>
	<path class="st7" d="M463,467c-0.3-1.2-0.9-2.4-0.9-3.6c0-1.2,0.6-2.3,0.9-3.4c2.8,0,5.1,0,7.6,0c0.2,0.5,0.4,1.1,0.6,1.8
		c1.1,0,2.2,0,3.5,0c0.1-0.4,0.3-1,0.6-1.7c3.1,0,6.2,0,9.4,0c0.1,0.3,0.2,0.8,0.5,1.6c1,0.1,2.2,0.2,3.4,0.3c0.3-0.7,0.5-1.3,0.7-2
		c2.4,0,4.9,0,7.7,0c0,2.3,0,4.6,0,6.9C485.7,467,474.3,467,463,467z"/>
	<path class="st9" d="M465,498c-0.3,0-0.7,0-1,0c0-1.9,0-3.8,0-6c0.8,0,1.4,0,2,0c0.3,0.3,0.5,1,0.8,1c8.8,0.1,17.6,0.1,26.4,0
		c0.3,0,0.5-0.6,0.8-1c0.5,0,1,0,1.7,0c0.6,1.9,0.2,4,0.3,6c-0.3,0-0.7,0-1,0C485,498,475,498,465,498z"/>
	<path class="st2" d="M463,467c11.3,0,22.7,0,34,0c-0.3,0.7-0.7,1.3-1,2c-10.7,0-21.3,0-32,0C463.7,468.3,463.3,467.7,463,467z"/>
	<path class="st7" d="M464,469c10.7,0,21.3,0,32,0c-0.4,1.6-1.4,2.2-3,2c-8.7,0-17.3,0-26,0C465.4,471.2,464.4,470.6,464,469z"/>
	<path class="st2" d="M467,489c8.7,0,17.3,0,26,0c0,0.3,0,0.7,0,1c-0.3,0.3-0.5,1-0.8,1c-8.1,0.1-16.3,0.1-24.4,0
		c-0.3,0-0.5-0.6-0.8-1C467,489.7,467,489.3,467,489z"/>
	<path class="st3" d="M503.1,461.8c-0.5-2.5,1.2-4.9-0.3-7c0.7-0.8,1.2-1.4,1.8-2.2c1.5,0.6,2.8,1,4.1,1.5c0.1,0.3,0.3,0.6,0.3,0.9
		c0.2,1.4-1.2,2.6-0.1,4.2c0.3,0.4-0.5,1.7-0.8,2.6C506.4,461.8,504.9,461.8,503.1,461.8z M506.5,461.1c0.2-0.3,0.5-0.6,0.7-0.8
		c-0.6-0.8-1.1-1.5-1.7-2.2c-0.7,0.6-1.1,1-1.8,1.6C504.8,460.2,505.6,460.7,506.5,461.1z M507.3,455.5c-2.7-1.1-2.4,0.1-2.1,1.3
		C505.9,456.4,506.5,456,507.3,455.5z"/>
	<path class="st10" d="M467,490c0.3,0.3,0.5,1,0.8,1c8.1,0.1,16.3,0.1,24.4,0c0.3,0,0.5-0.6,0.8-1c1.5,0.1,0.8,1.2,1,2
		c-9.3,0-18.7,0-28,0C466.2,491.2,465.5,490.1,467,490z"/>
	<path class="st3" d="M457.8,508c-1.6,0-2.9,0-3.4,0c-1.2-0.7-1.9-1.1-2.4-1.4c0.3-2.9,2.4-2.6,4.1-3.3c-0.9-0.2-1.8-0.3-2.7-0.5
		c1.9-2.3,1.9-2.3,4.4-0.6C457.8,504.2,457.8,506.1,457.8,508z M456,505.3c-0.7,0-1.3,0-2.1,0c0.1,0.7,0.2,1.2,0.4,1.8
		c0.7-0.1,1.2-0.3,1.8-0.4C456,506.2,456,505.8,456,505.3z"/>
	<ellipse class="st13" cx="480" cy="471.5" rx="18.4" ry="0.7"/>
	<path class="st9" d="M46,24.4c0,6.2,0,12.1,0,18.2c0.7,0.4,1.5,0.9,2,1.2c0,2.4,0,4,0,5.8c1.6,0.4,3.2,0.8,4.9,1.2
		c0,1.9,0,3.4,0,4.9c-0.4,0.4-0.9,0.9-1.4,1.4c-13,0-26,0-39,0c-0.4-0.5-0.9-0.9-1.4-1.4c0-1.4,0-2.9,0-4c1.1-2.3,3.1-1.2,4.7-1.8
		c0-1.7,0-3.5,0-5.1c0.8-0.8,1.4-1.4,2-2c0-5.9,0-11.8,0-17.8c-1.4-1.3-2.8-2.7-3.9-3.7c0-3.3,0-6,0-8.6c5-2.3,7.4-2,9.3,1.4
		c1,0,2.1,0,3.3,0c0.5-0.9,1-1.8,1.6-2.8c2.6,0,5,0,7.6,0c0.5,0.9,1.1,1.9,1.7,2.9c0.9,0,1.9,0,2.9,0c2.2-3.5,4.4-3.8,9.6-1.5
		c0,2.7,0,5.3,0,8.1C48.7,21.8,47.4,23,46,24.4z M21.2,24.1c0,5.9,0,11.3,0,16.9c7.1,0,14.1,0,21.1,0c0.1,0,0.3-0.1,0.4-0.2
		c0.1-0.1,0.2-0.2,0.2-0.2c0-5.6,0-11.1,0-16.6C35.5,24.1,28.4,24.1,21.2,24.1z M46.8,18.9c0-1.9,0-3.3,0-4.8c-1,0-1.7,0-2.3,0
		c-0.7,1.1-1.3,2-1.7,2.8c-2.7,0-5.1,0-7.7,0c-0.6-1-1.1-1.9-1.7-2.9c-1,0-2,0-2.9,0c-0.7,1-1.3,2.1-1.9,2.9c-2.7,0-5,0-7.4,0
		c-0.5-0.9-1.1-1.8-1.7-2.8c-0.6,0-1.4,0-2.3,0c0,1.7,0,3.2,0,4.8C27.1,18.9,36.9,18.9,46.8,18.9z M18.1,49.9c9.5,0,18.6,0,27.9,0
		c-0.1-1.1-0.1-2-0.2-2.7c-9.4,0-18.5,0-27.7,0C18.1,48.1,18.1,48.9,18.1,49.9z M14.1,53.8c12,0,23.9,0,35.8,0c0-0.6,0-1.1,0-1.6
		c-12,0-23.9,0-35.8,0C14.1,52.8,14.1,53.3,14.1,53.8z M20.4,22.9c7.9,0,15.7,0,23.4,0c-0.1-0.2-0.3-0.3-0.4-0.5
		c0.6-0.2,1.2-0.5,1.7-0.7C36.4,21,28,21,19.6,21c-0.2,0-0.3,0.4-0.5,0.6C19.5,22,19.8,22.3,20.4,22.9z M42.9,42.2
		c-7.3,0-14.5,0-21.8,0c0,0.6,0,1,0,1.7c7.3,0,14.5,0,21.8,0C42.9,43.2,42.9,42.8,42.9,42.2z"/>
	<path class="st3" d="M320,192c0-21.3,0-42.7,0-64c21.3,0,42.7,0,64,0c0,21.3,0,42.7,0,64C362.7,192,341.3,192,320,192z
		 M337.5,173.3c3.5-5.1,9-7.3,13.2-11.3c0.4,1.9,0.3,3.2-1,4.9c-2.7,3.8-6.1,7-8.7,10.9c0.1,2.3-2.9,4.7,0.3,6.9
		c11.2,0,22.4,0,33.7,0c-0.2-8.3,0.1-16.3-1.8-24.4c-1.9-7.7-7.6-15.9-16.1-18.3c-2.4-0.7-4.4-1.1-5.4-3.8c-0.3-0.8-1.7-1.1-2.8-1.8
		c-1.4,1.7-2.6,3.1-3.9,4.7c-1.7-1.5-3.3-3-5-4.5c-0.9,0.8-1.5,1.3-2,1.7c0,2.2,0,4.2,0,5.5c-0.5,1.3-0.7,2.1-1.1,2.7
		c-3.7,4.2-5.7,9.2-8.1,14.1c-1.4,2.9-2.8,5.7-0.6,8.8c0.7,0.9,1.5,1.8,1.7,2C332.8,172.3,335,172.7,337.5,173.3z"/>
	<path class="st6" d="M370.1,120.4c-0.6,0.6-0.9,0.9-1.4,1.4c-10.9,0-22.1,0-33.3,0c-0.3-0.3-0.8-0.8-1.4-1.5
		c0.7-7.7,2.8-14.9,10.2-19.8c-0.9-0.5-1.7-0.9-1.5-0.8c-0.6-2.6-1-4.1-1.4-6.1c-0.1,0.2-0.1-0.2,0.1-0.4c1.5-1.1,0.1-2.9,1-4.1
		c0.8-1.1,2-2.2,2.4-3.5c0.5-1.5,0.3-3.2,0.4-4.8c1.3-4.9,5.1-5.2,9.2-4.8c4.8,2.8,5.7,4.8,3.8,9.3c3.3,1.8,3.5,5.4,4.9,8.6
		c-1.9,1.6,0.2,5.2-3.4,6.4C367.3,105.2,369.4,112.5,370.1,120.4z M367.2,118.9c-1-8-3.3-14.6-11.8-17.5c2.7-3.1,5.6-5.7,4.2-10.8
		c-1.1-1.1-2.8-2.9-4.2-4.3c0.3-2,0.6-3.8,0.8-5.5c-1-1-1.9-1.9-2.5-2.5c-1.3,0-2.4,0-3.3,0c-0.9,0.9-1.6,1.6-2.6,2.6
		c0.3,1.8,0.7,3.8,1.1,5.8c-2.4,0.7-3.7,2.7-4.9,5.7c-0.9,3.3,1.8,6,4.7,9.1c-3.9,1.5-6.7,3.6-8.7,6.9c-2,3.3-2.7,6.8-3,10.7
		C347.1,118.9,356.9,118.9,367.2,118.9z"/>
	<path class="st11" d="M331,53.6c0.5-0.5,0.9-1,1.5-1.6c2.2,0,4.8,0.7,6.7-0.2c3.5-1.6,7.3,0.1,10.8-1.7c1.2-0.6,3.5-0.9,5.2,0.5
		c0.3,0.3,0.9,0.3,1.3,0.4c2.5,0.2,5-0.1,7.6,0.8c2.2,0.8,4.9,0.2,7.4,0.2c0.5,0.5,1,1,1.5,1.5c-0.2,0.2-0.5,0.5-0.7,0.5
		c-6-1.4-12-0.9-18.1-1c-0.7,0-1.4-0.6-2.2-1c-2.1,1.8-4.6,0.9-7,1c-2.3,0.1-4.7,0.2-7,0C335.6,52.6,333.5,55,331,53.6z"/>
	<path class="st11" d="M360.9,39.4c0,0.8,0,1.6,0,2.5c-6,0-11.8,0-17.8,0c0-0.8-0.1-1.4-0.1-2.2c2.7-2.4,6-1.6,9.1-1.6
		C355,38,358.2,37.4,360.9,39.4z"/>
	<path class="st13" d="M350,12.6c0-1.1,0-2.1,0-3.4c1.2-0.1,2.4-0.1,3.6-0.2c0.3,3.3,0.3,3.3-1.6,5.3
		C351.4,13.7,350.7,13.1,350,12.6z"/>
	<path class="st13" d="M465.1,18.9c0-1.7,0-3.1,0-4.7c0.9,0,1.7,0,2.5,0c0.5,0.8,1,1.8,1.6,2.7c2.6,0,5,0,7.7,0
		c0.5-0.9,1.1-1.8,1.7-2.8c0.8,0,1.8,0,2.8,0c0.6,1,1.3,2,2,2.9c2.5,0,4.8,0,7.4,0c0.6-0.9,1.2-1.9,1.9-3c0.7,0,1.3,0,2.2,0
		c0,1.6,0,3.1,0,4.8C485,18.9,475.3,18.9,465.1,18.9z"/>
	<path class="st11" d="M497.9,52.2c0,0.6,0,1,0,1.7c-11.9,0-23.8,0-35.8,0c0-0.6,0-1,0-1.7C474,52.2,485.9,52.2,497.9,52.2z"/>
	<circle class="st4" cx="160" cy="224" r="45.3"/>
	<circle class="st4" cx="224" cy="288" r="45.3"/>
	<circle class="st4" cx="160" cy="352" r="45.3"/>
	<path class="st5" d="M106,346.5c-0.3,3.4,0.9,7.1-2.1,10.1c6.4,5.1,10.1,11.5,8.9,20.2c-11.2,0-22.4,0-33.7,0
		c-1.2-8.6,2.4-15,8.8-20.2c-2-3.4-2-3.4-2-10.3c1.3-1.7,2.6-3.5,4-5.2c-1.1-2.5-1.1-2.5,1.1-7.7c0.8-0.4,1.7-0.8,2.8-1.4
		c0.9,0,2.3-0.1,3.6,0c1,0.1,2,0.7,3.1,1.1c0.6,1.3,1.2,2.7,2.1,4c1,1.6-0.1,2.7-0.7,4C103.3,342.8,104.6,344.6,106,346.5z"/>
	<circle class="st4" cx="224" cy="160" r="45.3"/>
	<path class="st6" d="M88.1,100.5c-0.7-0.6-1.3-1.2-1.8-1.6c-0.3-1.7-0.6-3.2-1-5.5c0.1-0.2,0.4-1.2,0.7-2.3
		c0.2-0.7,0.2-1.6,0.6-2.2c0.7-1.4,1.9-2.6,2.3-4c0.4-1.4,0.1-3,0.1-3.5c1.6-5.9,5.6-5.6,9.5-5.4c4.5,2.8,5.4,5.1,3.6,9.6
		c3.8,1.5,3.5,5.5,4.9,8.4c-1.9,1.6,0.2,5.1-3.4,6.3c6.8,4,8.9,10.4,10.3,17.2c0.3,1.5,0.5,3.4-1.6,4.5c-10.1,0-20.4,0-30.7,0
		c-1.3,0-2.7,0.1-3.7-1.8C78.5,112.8,80.6,105.6,88.1,100.5z M97.5,78c-1,0-2,0-3,0c-0.8,0.8-1.6,1.6-2.7,2.7
		c0.3,1.8,0.7,3.8,1.1,5.8c-2.4,0.7-3.7,2.7-4.9,5.7c-0.9,3.4,1.9,6.1,4.7,9.1c-8.6,3-11,9.6-11.7,17.6c10.1,0,19.7,0,29.3,0
		c0.1,0,0.3-0.1,0.4-0.2c0.1-0.1,0.2-0.2,0.5-0.5c-1-7.4-3.3-14-11.3-16.9c4.2-5.9,4.2-5.9,4.1-10.6c-1.4-1.5-3.1-3.2-4.6-4.7
		c0.3-2,0.6-3.8,0.8-5.5C99.1,79.6,98.3,78.8,97.5,78z"/>
	<circle class="st4" cx="352" cy="288" r="45.3"/>
	<path class="st3" d="M256,192c21.3,0,42.7,0,64,0c0,21.3,0,42.7,0,64c-21.3,0-42.7,0-64,0C256,234.7,256,213.3,256,192z
		 M277.2,221.8c0.4,1.9,0.7,3.4,1.1,5.1c0.5,0.5,1,1,1.6,1.6c0,0-0.2,0.2-0.3,0.3c-7.1,4.7-9.1,11.9-9.8,19.3
		c1.1,2.2,2.7,1.9,4.1,1.9c10.2,0,20.3,0,30.4,0c0.5-0.5,1-1,1.4-1.4c0.4-4.1-1-7.8-2.5-11.4c-1.5-3.6-4.1-6.5-7.5-8.6
		c0.8-0.8,1.3-1.3,1.6-1.6c0.5-2,0.9-3.7,1.1-4.6c-0.4-2.1-0.5-3.8-1.1-5.1c-0.7-1.4-2.1-2.5-3.2-3.9c1.7-4.3,0.7-6.5-4.2-9.3
		c-3.8-0.2-7.6-0.3-9.1,5.4c0.2,2.3,0,5.4-2.8,7.8c-0.4,0.3-0.2,1.2-0.3,1.8C277.8,220,277.5,220.9,277.2,221.8z"/>
	<path class="st3" d="M256,384c0-21.3,0-42.7,0-64c21.3,0,42.7,0,64,0c0,21.3,0,42.7,0,64C298.7,384,277.3,384,256,384z M282.2,341
		c-1.6,2.1-2.9,3.8-4.2,5.5c0.3,3.4-0.9,7.1,2.1,10.1c-6.5,5.3-10.3,11.7-8.8,20.3c11.4,0,22.4,0,33.6,0c1.3-8.7-2.6-15.1-8.8-20.3
		c2.8-3.2,1.8-6.7,2-10.1c-1.3-1.8-2.7-3.5-3.7-4.9c0.2-1.7,0.6-3.1,0.3-4.3c-0.3-1.5-1.3-2.8-1.9-3.9c-0.8-0.4-1.5-0.8-2.5-1.3
		c-2.2,0-4.8-0.4-7,1.4C282.9,336,279,338,282.2,341z"/>
	<path class="st5" d="M421.9,405c1.4,1.9,2.7,3.7,4.1,5.5c-0.2,3.4,0.9,7.1-2.1,10.1c6.4,5.2,10.1,11.6,8.9,20.2
		c-11.2,0-22.4,0-33.6,0c-1.2-8.7,2.4-15.1,8.9-20.2c-3-3-1.8-6.7-2.1-10.1c1.4-1.8,2.7-3.6,4.2-5.6c-3.2-2.9,0.7-4.9,0.9-7.5
		c0.8-0.4,1.7-0.9,3.1-1.6c1.7,0.2,4,0.6,6.5,0.9C420.9,399.7,425,401.8,421.9,405z"/>
	<path class="st5" d="M176.8,440.7c-0.2,0.1-0.4,0.3-0.5,0.3c-11,0-21.9,0-33.3,0c0-4,0-7.7,1.8-11.6c1.7-3.8,4.8-6,7.1-9
		c-2.8-2.8-1.7-6.3-2-9.8c1.3-1.7,2.6-3.5,4-5.4c-1-2.7-1-2.7,1.3-7.9c3.1-1.8,6.3-1.9,9.4-0.1c0.7,1.3,1.7,2.6,2.1,4
		c0.3,1.2-0.2,2.6-0.4,4.3c3.7,4.2,3.7,4.2,3.7,11.7c-0.7,1.3-1.3,2.3-1.9,3.5C174.5,425.9,178,432.3,176.8,440.7z"/>
	<path class="st8" d="M99.9,407.8c0,1.3,0,2.1,0,3.1c-0.9,0.1-1.7,0.1-2.7,0.2c-0.1,0.9-0.3,1.8-0.5,2.8c-0.5,0-0.9,0.1-1.6,0.1
		c0-0.9,0-1.7,0-2.6c-1.1-0.2-2-0.4-3-0.6c0-0.8,0-1.5,0-2.5c0.7-0.1,1.7-0.3,2.6-0.5c0.2-0.9,0.3-1.8,0.4-2.7
		c0.5,0,0.9-0.1,1.5-0.1c0.1,0.9,0.3,1.8,0.4,2.8C97.9,407.8,98.7,407.8,99.9,407.8z"/>
	<path class="st13" d="M88.1,421.8c0-0.6,0-1,0-1.6c5.3,0,10.5,0,15.8,0c0,0.6,0,1,0,1.6C98.6,421.8,93.4,421.8,88.1,421.8z"/>
	<path class="st13" d="M17,498c10,0,20,0,30,0c-0.3,0.3-0.5,1-0.8,1c-9.5,0.1-18.9,0.1-28.4,0C17.5,499,17.3,498.3,17,498z"/>
	<path class="st13" d="M18,492c9.3,0,18.7,0,28,0c-0.3,0.3-0.5,1-0.8,1c-8.8,0.1-17.6,0.1-26.4,0C18.5,493,18.3,492.3,18,492z"/>
	<path class="st8" d="M402.2,472.9c-0.7-2.6,0.7-4.2,2-5.8c0.9,0,1.6,0,2.6,0c0,1.2,0,2.3,0,3.6
		C405.7,471.7,404.8,473.6,402.2,472.9z"/>
	<path class="st8" d="M395.2,485.8c-0.5-2,0-3.2,2.4-4.1c0.4,0.5,0.9,1.3,1.4,2C398.5,485.6,397.4,486.4,395.2,485.8z"/>
	<path class="st3" d="M414.9,481.9c0.2-0.3,0.5-0.5,0.7-0.8c0.1,0.1,0.2,0.2,0.3,0.3c-0.3,0.2-0.5,0.5-0.8,0.7
		C415,482,415,482,414.9,481.9z"/>
	<path class="st4" d="M391.8,505.9c-0.6,0-1.1,0-1.7,0c0-1,0-1.9,0-2.8c0.6,0,1.1,0,1.7,0C391.8,504.1,391.8,505,391.8,505.9z"/>
	<path class="st4" d="M263.5,502.9c0.2,0.9,0.4,1.8,0.7,2.9c-0.7,0.1-1.2,0.2-1.9,0.4c0-1.1,0-2.1,0-3.1
		C262.7,503,263.1,502.9,263.5,502.9z"/>
	<path class="st11" d="M236.8,43.3c0,0.9,0,1.7,0,2.6c-4.4-2.6-9.1-1.9-13.7-1.9c-4.6,0-9.4-0.7-13.6,2.4c-0.2-2.6,0.6-3.7,2.8-4.5
		c0.6-0.2,1.2-0.5,1.8-0.5c2.1-0.2,4.4,0.2,6.2-0.6c2-0.8,3.4-1.4,5.3,0.1c0.4,0.3,1.3,0.1,2,0C231,40.6,233.9,42.1,236.8,43.3z"/>
	<path class="st11" d="M208.7,51.8c0.9-4.7,4-4.8,6.4-5.7c1.3-0.5,3,0,4.5-0.1c1.2-0.1,2.4-0.9,3.6-0.9c1.7,0.1,3.4,0.6,5.1,0.9
		c2,0.4,4.1,0.5,6.1,1.1c1.1,0.3,2,1.2,3.9,2.4c-2.1,0.3-3.3,0.9-4,0.5c-2.3-1.3-4.7-0.8-7.1-0.9c-1.3-0.1-2.7,0-4,0
		C218.4,49,213.7,48.5,208.7,51.8z"/>
	<path class="st13" d="M235.1,52.4c-0.7,0.6-1.1,1.3-1.8,1.5c-5.1,1.7-10.3,1.1-15.5,0.9c-2.3-0.1-4.6-1.4-7.4-2.3
		C222.8,50.2,221.4,49,235.1,52.4z"/>
	<path class="st13" d="M219.4,23.6c1.5-2.3,2.7-4,3.9-5.7c3,0.5,3.4,3.1,4.7,4.8c-0.7,2.7-1.9,5.1-3.7,7.5
		C221.2,29.1,221.6,25.8,219.4,23.6z"/>
	<path class="st4" d="M84.9,13.1c-0.3-0.2-0.5-0.5-0.8-0.7c0.1-0.1,0.2-0.2,0.3-0.3c0.2,0.3,0.5,0.5,0.7,0.8C85,13,85,13,84.9,13.1z
		"/>
	<path class="st4" d="M86,14c-0.3,0-0.7,0-1,0c0-0.3,0-0.7,0-1C85.3,13.3,85.7,13.7,86,14z"/>
	<path class="st9" d="M158.8,21.2c0.8-0.1,1.2-0.2,1.9-0.3c0.2,0.9,0.3,1.7,0.5,2.8c0.8,0.1,1.7,0.3,2.7,0.4c0,0.8,0,1.6,0,2.6
		c-0.8,0-1.5,0-2.5,0c-0.2,1.1-0.4,2-0.5,3c-0.4,0.1-0.9,0.1-1.5,0.3c-0.2-1-0.3-1.9-0.5-2.9c-0.8-0.1-1.6-0.1-2.6-0.2
		c0-0.8,0-1.5,0-2.7c0.6-0.1,1.5-0.2,2.6-0.4C158.8,23.1,158.8,22.3,158.8,21.2z"/>
	<path class="st13" d="M465,498c10,0,20,0,30,0c-0.3,0.3-0.5,1-0.8,1c-9.5,0.1-18.9,0.1-28.4,0C465.5,499,465.3,498.3,465,498z"/>
	<path class="st13" d="M466,492c9.3,0,18.7,0,28,0c-0.3,0.3-0.5,1-0.8,1c-8.8,0.1-17.6,0.1-26.4,0C466.5,493,466.3,492.3,466,492z"
		/>
	<path class="st2" d="M506.5,461.1c-0.9-0.5-1.7-0.9-2.7-1.5c0.7-0.6,1.1-1,1.8-1.6c0.5,0.7,1.1,1.5,1.7,2.2
		C507,460.6,506.8,460.9,506.5,461.1z"/>
	<path class="st2" d="M507.3,455.5c-0.8,0.5-1.4,0.9-2.1,1.3C504.9,455.6,504.6,454.4,507.3,455.5z"/>
	<path class="st2" d="M456,505.3c0,0.6,0,0.9,0,1.4c-0.5,0.1-1.1,0.2-1.8,0.4c-0.1-0.6-0.2-1.1-0.4-1.8
		C454.7,505.3,455.3,505.3,456,505.3z"/>
	<path class="st13" d="M46.8,18.9c-9.9,0-19.7,0-29.6,0c0-1.6,0-3.1,0-4.8c0.9,0,1.7,0,2.3,0c0.6,1,1.2,2,1.7,2.8c2.5,0,4.8,0,7.4,0
		c0.5-0.8,1.2-1.9,1.9-2.9c0.9,0,1.9,0,2.9,0c0.5,0.9,1.1,1.9,1.7,2.9c2.5,0,5,0,7.7,0c0.5-0.7,1.1-1.7,1.7-2.8c0.5,0,1.3,0,2.3,0
		C46.8,15.6,46.8,17,46.8,18.9z"/>
	<path class="st11" d="M14.1,53.8c0-0.6,0-1,0-1.6c11.9,0,23.8,0,35.8,0c0,0.6,0,1,0,1.6C38,53.8,26.1,53.8,14.1,53.8z"/>
	<path class="st9" d="M337.5,173.3c-2.5-0.5-4.7-1-7.7-1.7c-0.2-0.3-1-1.1-1.7-2c-2.2-3.1-0.8-5.9,0.6-8.8c2.4-4.9,4.4-10,8.1-14.1
		c0.5-0.5,0.6-1.4,1.1-2.7c0-1.3,0-3.3,0-5.5c0.5-0.4,1.1-1,2-1.7c1.7,1.5,3.3,3,5,4.5c1.3-1.5,2.5-3,3.9-4.7c1.1,0.7,2.5,1,2.8,1.8
		c1,2.6,3,3.1,5.4,3.8c8.5,2.4,14.2,10.5,16.1,18.3c2,8.1,1.7,16.1,1.8,24.4c-11.3,0-22.5,0-33.7,0c-3.2-2.2-0.2-4.7-0.3-6.9
		c2.6-3.9,6-7.1,8.7-10.9c1.3-1.7,1.4-3.1,1-4.9C346.5,165.9,341.1,168.2,337.5,173.3z M341,141c0,0.3,0,0.7,0,1
		c-0.3,1.5-0.6,3-1,4.8c0.9,0.1,1.8,0.3,2.8,0.5c0,1.2,0,2.3,0,2.9c-1,1.2-1.7,2.1-2.3,3c-0.9-0.1-1.7-0.1-2.5-0.1
		c0-0.8,0.1-1.3,0-1.8c-0.1-0.4-0.3-0.7-0.6-1.4c-2.3,4.1-4.5,7.9-6.7,11.8c1.6,0.9,4,0.2,4.3,2.7c-0.8,1.7-2.1,2.4-3.8,1.6
		c-0.1-1-0.3-1.8-0.4-2.7c-0.2,0-0.4,0-0.5,0c0,1.6,0,3.1,0,5.1c1.1,0.3,2.3,0.6,3.4,0.9c0.3-1,0.6-1.5,0.7-2c0.9,0,1.7,0,2.5,0
		c0.2,1,0.3,2,0.5,3c2.8-2.3,5-4.8,7.8-6.9c3.4-2.6,7.2-5.2,8.2-9.9c0-0.2,0.8-0.2,1.7-0.4c-0.4,4-0.9,7.8-1.3,11.6
		c-2.1,5-5.5,9.2-9.3,12.5c-0.5,1.8-1,3.2-1.5,4.9c10.1,0,19.7,0,29.3,0c0.1,0,0.3-0.1,0.4-0.1c0.1-0.1,0.2-0.2,0.5-0.5
		c-0.7-3.4,0.9-7.1-1.1-10.5c0.6-4.3-1.1-8.2-2-12.2c-1-4.2-3.2-8.1-6.6-10.6c-3.5-2.6-7.4-4.9-12.3-4c-0.6-1.5-1.1-2.8-1.6-4.3
		c-0.7,1.1-1.3,2-2,3.2c-1.3,0-2.9,0-4.6,0c-0.3,0-0.5-0.6-0.8-1c-0.3-0.3-0.7-0.7-1.1-0.9c0.1-0.1,0.1-0.1,0.2-0.2
		c-0.2-0.3-0.5-0.5-0.7-0.8c-0.1,0.1-0.2,0.2-0.3,0.3C340.4,140.6,340.6,140.9,341,141z"/>
	<path class="st9" d="M353.2,26.8c-0.1,1.3-0.2,2.1-0.3,3c-0.5,0.1-0.9,0.1-1.6,0.2c-0.2-1-0.3-1.9-0.5-2.9
		c-0.8-0.1-1.6-0.2-2.6-0.3c0-0.8,0-1.5,0-2.6c0.7-0.1,1.6-0.3,2.6-0.5c0.1-0.9,0.3-1.8,0.4-2.8c0.6,0,1.1,0.1,1.7,0.1
		c0.1,0.9,0.2,1.7,0.2,2.6c0.9,0.1,1.8,0.3,2.8,0.4c0,0.9,0,1.6,0,2.6C355.1,26.8,354.3,26.8,353.2,26.8z"/>
	<path class="st1" d="M256,192c0,21.3,0,42.7,0,64c-21.3,0-42.7,0-64,0c0-21.3,0-42.7,0-64C213.3,192,234.7,192,256,192z M242,248.5
		c0.4-4-1-7.8-2.4-11.3c-1.4-3.6-4.2-6.5-8.3-9.1c1.2-0.7,2.1-1.1,2.4-1.3c0.5-2.2,0.9-3.7,1.3-5.2c-1.2-2.9-1.5-6.4-4.8-8.2
		c1.9-4.5,1-6.5-3.8-9.3c-4.1-0.3-7.9,0-9.2,4.8c-0.1,1.6,0.1,3.3-0.4,4.8c-0.4,1.3-1.5,2.4-2.4,3.5c-0.9,1.2,0.5,3-1,4.1
		c-0.2,0.1-0.2,0.6-0.1,0.4c0.5,2,0.8,3.5,1.2,5c-0.4,0.3-0.7,0.7-1.1,1c1,0.2,2,0.5,3.1,0.7c-7.6,5.1-9.7,12.3-10.4,20
		c0.7,0.7,1.1,1.2,1.4,1.5c11.3,0,22.4,0,33.3,0C241.2,249.3,241.5,249,242,248.5z"/>
	<circle class="st12" cx="288" cy="288" r="45.3"/>
	<path class="st6" d="M277.2,221.8c0.3-0.9,0.5-1.8,0.8-2.6c0.1-0.6-0.1-1.5,0.3-1.8c2.8-2.4,3-5.6,2.8-7.8c1.5-5.7,5.3-5.6,9.1-5.4
		c4.9,2.8,5.8,5,4.2,9.3c1.2,1.4,2.5,2.5,3.2,3.9c0.7,1.3,0.7,3,1.1,5.1c-0.2,0.9-0.6,2.6-1.1,4.6c-0.3,0.3-0.9,0.9-1.6,1.6
		c3.4,2.1,6.1,5,7.5,8.6c1.5,3.6,2.9,7.3,2.5,11.4c-0.5,0.5-1,1-1.4,1.4c-10.1,0-20.3,0-30.4,0c-1.5,0-3,0.3-4.1-1.9
		c0.7-7.4,2.6-14.6,9.8-19.3c0.1-0.1,0.3-0.3,0.3-0.3c-0.6-0.6-1.2-1.2-1.6-1.6C278,225.2,277.6,223.7,277.2,221.8z M289.7,206.2
		c-1.3,0-2.4,0-3.4,0c-0.9,0.9-1.6,1.6-2.6,2.6c0.3,1.8,0.7,3.8,1.1,5.8c-2.4,0.7-3.7,2.7-4.9,5.7c-0.9,3.4,1.9,6.1,4.6,9
		c-8.3,3.3-11.1,9.6-11.6,17.7c10,0,19.6,0,29.3,0c0.1,0,0.3-0.1,0.4-0.2c0.1-0.1,0.2-0.2,0.5-0.5c-1-7.4-3.3-14-11.7-17
		c2.8-3,5.5-5.7,4.2-10.8c-1.1-1.2-2.8-2.9-4.3-4.4c0.3-2,0.6-3.8,0.8-5.5C291.1,207.6,290.3,206.8,289.7,206.2z"/>
	<path class="st5" d="M282.2,341c-3.1-3,0.7-5,1-7.6c2.2-1.8,4.9-1.3,7-1.4c1,0.5,1.7,0.8,2.5,1.3c0.6,1.2,1.6,2.5,1.9,3.9
		c0.3,1.2-0.2,2.6-0.3,4.3c1,1.4,2.4,3.1,3.7,4.9c-0.2,3.4,0.8,6.9-2,10.1c6.2,5.2,10.1,11.6,8.8,20.3c-11.1,0-22.2,0-33.6,0
		c-1.4-8.6,2.3-15,8.8-20.3c-3-3-1.8-6.7-2.1-10.1C279.3,344.7,280.5,343.1,282.2,341z"/>
	<path class="st4" d="M340.9,141.1c-0.3-0.2-0.5-0.5-0.8-0.7c0.1-0.1,0.2-0.2,0.3-0.3c0.2,0.3,0.5,0.5,0.7,0.8
		C341,141,341,141,340.9,141.1z"/>
	<path class="st4" d="M342,142c-0.3,0-0.7,0-1,0c0-0.3,0-0.7,0-1C341.3,141.3,341.7,141.7,342,142z"/>
	<path class="st6" d="M242,248.5c-0.4,0.4-0.8,0.8-1.3,1.3c-10.9,0-22,0-33.3,0c-0.3-0.3-0.8-0.8-1.4-1.5c0.7-7.7,2.8-14.9,10.4-20
		c-1.1-0.3-2.1-0.5-3.1-0.7c0.4-0.3,0.7-0.7,1.1-1c-0.4-1.5-0.7-3-1.2-5c-0.1,0.2-0.1-0.2,0.1-0.4c1.5-1.1,0.1-2.9,1-4.1
		c0.8-1.1,2-2.2,2.4-3.5c0.5-1.5,0.3-3.2,0.4-4.8c1.3-4.9,5.1-5.2,9.2-4.8c4.8,2.8,5.7,4.8,3.8,9.3c3.3,1.8,3.5,5.4,4.8,8.2
		c-0.4,1.5-0.7,3.1-1.3,5.2c-0.2,0.1-1.1,0.6-2.4,1.3c4.1,2.6,6.8,5.5,8.3,9.1C241,240.8,242.4,244.6,242,248.5z M239.2,246.9
		c-0.5-4.1-1.3-7.5-3.1-10.7c-1.9-3.5-5.3-5.1-8.6-7.3c3.2-2.7,5.3-5.5,4.2-10.2c-1.2-1.3-2.9-3-4.4-4.5c0.3-2,0.6-3.8,0.8-5.5
		c-1.1-1.1-1.9-1.9-2.7-2.7c-1,0-2,0-3,0c-0.8,0.8-1.6,1.6-2.7,2.7c0.3,1.8,0.7,3.8,1.1,5.8c-2.4,0.7-3.7,2.7-4.9,5.7
		c-0.9,3.4,1.9,6.1,4.6,9c-8.3,3.3-11.1,9.6-11.5,17.6C219.1,246.9,228.9,246.9,239.2,246.9z"/>
</g>
</svg>
